<?xml version="1.0" encoding="utf-8"?>
<svg viewBox="26.062 24.614 364.382 258.687" xmlns="http://www.w3.org/2000/svg">
  <g transform="matrix(1, 0, 0, 1, 55.903633, 56.388229)">
    <g>
      <g>
        <g>
          <g>
            <line x1="50" y1="177" x2="45" y2="177" style="visibility: inherit;" fill="rgb(0, 0, 0)" stroke="rgb(204, 204, 204)" stroke-width="1px"/>
            <line x1="50" y1="162.25" x2="45" y2="162.25" style="visibility: inherit;" fill="rgb(0, 0, 0)" stroke="rgb(204, 204, 204)" stroke-width="1px"/>
            <line x1="50" y1="147.5" x2="45" y2="147.5" style="visibility: inherit;" fill="rgb(0, 0, 0)" stroke="rgb(204, 204, 204)" stroke-width="1px"/>
            <line x1="50" y1="132.75" x2="45" y2="132.75" style="visibility: inherit;" fill="rgb(0, 0, 0)" stroke="rgb(204, 204, 204)" stroke-width="1px"/>
            <line x1="50" y1="118.00000000000001" x2="45" y2="118.00000000000001" style="visibility: inherit;" fill="rgb(0, 0, 0)" stroke="rgb(204, 204, 204)" stroke-width="1px"/>
            <line x1="50" y1="103.25" x2="45" y2="103.25" style="visibility: inherit;" fill="rgb(0, 0, 0)" stroke="rgb(204, 204, 204)" stroke-width="1px"/>
            <line x1="50" y1="88.49999999999999" x2="45" y2="88.49999999999999" style="visibility: inherit;" fill="rgb(0, 0, 0)" stroke="rgb(204, 204, 204)" stroke-width="1px"/>
            <line x1="50" y1="73.75" x2="45" y2="73.75" style="visibility: inherit;" fill="rgb(0, 0, 0)" stroke="rgb(204, 204, 204)" stroke-width="1px"/>
            <line x1="50" y1="58.999999999999986" x2="45" y2="58.999999999999986" style="visibility: inherit;" fill="rgb(0, 0, 0)" stroke="rgb(204, 204, 204)" stroke-width="1px"/>
            <line x1="50" y1="44.24999999999998" x2="45" y2="44.24999999999998" style="visibility: inherit;" fill="rgb(0, 0, 0)" stroke="rgb(204, 204, 204)" stroke-width="1px"/>
            <line x1="50" y1="29.499999999999993" x2="45" y2="29.499999999999993" style="visibility: inherit;" fill="rgb(0, 0, 0)" stroke="rgb(204, 204, 204)" stroke-width="1px"/>
            <line x1="50" y1="14.749999999999988" x2="45" y2="14.749999999999988" style="visibility: inherit;" fill="rgb(0, 0, 0)" stroke="rgb(204, 204, 204)" stroke-width="1px"/>
            <line x1="50" y1="0" x2="45" y2="0" style="visibility: inherit;" fill="rgb(0, 0, 0)" stroke="rgb(204, 204, 204)" stroke-width="1px"/>
          </g>
          <g transform="translate(40, 0)">
            <text x="0" y="177" dx="0em" dy="0.3em" style="text-anchor: end; visibility: hidden; font-family: Roboto, sans-serif; font-size: 12px; font-weight: 200; white-space: pre;" fill="rgb(33, 33, 33)" stroke="none" stroke-width="1px">0.1</text>
            <text x="0" y="162.25" dx="0em" dy="0.3em" style="text-anchor: end; visibility: inherit; font-family: Roboto, sans-serif; font-size: 12px; font-weight: 200; white-space: pre;" fill="rgb(33, 33, 33)" stroke="none" stroke-width="1px">0.15</text>
            <text x="0" y="147.5" dx="0em" dy="0.3em" style="text-anchor: end; visibility: hidden; font-family: Roboto, sans-serif; font-size: 12px; font-weight: 200; white-space: pre;" fill="rgb(33, 33, 33)" stroke="none" stroke-width="1px">0.2</text>
            <text x="0" y="132.75" dx="0em" dy="0.3em" style="text-anchor: end; visibility: inherit; font-family: Roboto, sans-serif; font-size: 12px; font-weight: 200; white-space: pre;" fill="rgb(33, 33, 33)" stroke="none" stroke-width="1px">0.25</text>
            <text x="0" y="118.00000000000001" dx="0em" dy="0.3em" style="text-anchor: end; visibility: hidden; font-family: Roboto, sans-serif; font-size: 12px; font-weight: 200; white-space: pre;" fill="rgb(33, 33, 33)" stroke="none" stroke-width="1px">0.3</text>
            <text x="0" y="103.25" dx="0em" dy="0.3em" style="text-anchor: end; visibility: inherit; font-family: Roboto, sans-serif; font-size: 12px; font-weight: 200; white-space: pre;" fill="rgb(33, 33, 33)" stroke="none" stroke-width="1px">0.35</text>
            <text x="0" y="88.49999999999999" dx="0em" dy="0.3em" style="text-anchor: end; visibility: hidden; font-family: Roboto, sans-serif; font-size: 12px; font-weight: 200; white-space: pre;" fill="rgb(33, 33, 33)" stroke="none" stroke-width="1px">0.4</text>
            <text x="0" y="73.75" dx="0em" dy="0.3em" style="text-anchor: end; visibility: inherit; font-family: Roboto, sans-serif; font-size: 12px; font-weight: 200; white-space: pre;" fill="rgb(33, 33, 33)" stroke="none" stroke-width="1px">0.45</text>
            <text x="0" y="58.999999999999986" dx="0em" dy="0.3em" style="text-anchor: end; visibility: hidden; font-family: Roboto, sans-serif; font-size: 12px; font-weight: 200; white-space: pre;" fill="rgb(33, 33, 33)" stroke="none" stroke-width="1px">0.5</text>
            <text x="0" y="44.24999999999998" dx="0em" dy="0.3em" style="text-anchor: end; visibility: inherit; font-family: Roboto, sans-serif; font-size: 12px; font-weight: 200; white-space: pre;" fill="rgb(33, 33, 33)" stroke="none" stroke-width="1px">0.55</text>
            <text x="0" y="29.499999999999993" dx="0em" dy="0.3em" style="text-anchor: end; visibility: hidden; font-family: Roboto, sans-serif; font-size: 12px; font-weight: 200; white-space: pre;" fill="rgb(33, 33, 33)" stroke="none" stroke-width="1px">0.6</text>
            <text x="0" y="14.749999999999988" dx="0em" dy="0.3em" style="text-anchor: end; visibility: inherit; font-family: Roboto, sans-serif; font-size: 12px; font-weight: 200; white-space: pre;" fill="rgb(33, 33, 33)" stroke="none" stroke-width="1px">0.65</text>
            <text x="0" y="0" dx="0em" dy="0.3em" style="text-anchor: end; visibility: hidden; font-family: Roboto, sans-serif; font-size: 12px; font-weight: 200; white-space: pre;" fill="rgb(33, 33, 33)" stroke="none" stroke-width="1px">0.7</text>
          </g>
          <line x1="50" y1="0" x2="50" y2="177" fill="rgb(0, 0, 0)" stroke="rgb(204, 204, 204)" stroke-width="1px"/>
        </g>
      </g>
      <g transform="translate(50, 0)" clip-path="url(#clip_0)">
        <clipPath id="clip_0">
          <rect width="280" height="177"/>
        </clipPath>
        <g>
          <g>
            <g>
              <line x1="0" y1="0" x2="0" y2="177" fill="rgb(0, 0, 0)" stroke="rgb(66, 66, 66)" stroke-width="1px" opacity="0.25"/>
              <line x1="31.11111111111111" y1="0" x2="31.11111111111111" y2="177" fill="rgb(0, 0, 0)" stroke="rgb(66, 66, 66)" stroke-width="1px" opacity="0.25"/>
              <line x1="62.22222222222222" y1="0" x2="62.22222222222222" y2="177" fill="rgb(0, 0, 0)" stroke="rgb(66, 66, 66)" stroke-width="1px" opacity="0.25"/>
              <line x1="93.33333333333333" y1="0" x2="93.33333333333333" y2="177" fill="rgb(0, 0, 0)" stroke="rgb(66, 66, 66)" stroke-width="1px" opacity="0.25"/>
              <line x1="124.44444444444444" y1="0" x2="124.44444444444444" y2="177" fill="rgb(0, 0, 0)" stroke="rgb(66, 66, 66)" stroke-width="1px" opacity="0.25"/>
              <line x1="155.55555555555557" y1="0" x2="155.55555555555557" y2="177" fill="rgb(0, 0, 0)" stroke="rgb(66, 66, 66)" stroke-width="1px" opacity="0.25"/>
              <line x1="186.66666666666666" y1="0" x2="186.66666666666666" y2="177" fill="rgb(0, 0, 0)" stroke="rgb(66, 66, 66)" stroke-width="1px" opacity="0.25"/>
              <line x1="217.77777777777777" y1="0" x2="217.77777777777777" y2="177" fill="rgb(0, 0, 0)" stroke="rgb(66, 66, 66)" stroke-width="1px" opacity="0.25"/>
              <line x1="248.88888888888889" y1="0" x2="248.88888888888889" y2="177" fill="rgb(0, 0, 0)" stroke="rgb(66, 66, 66)" stroke-width="1px" opacity="0.25"/>
              <line x1="280" y1="0" x2="280" y2="177" fill="rgb(0, 0, 0)" stroke="rgb(66, 66, 66)" stroke-width="1px" opacity="0.25"/>
            </g>
            <g>
              <line x1="0" y1="177" x2="280" y2="177" fill="rgb(0, 0, 0)" stroke="rgb(66, 66, 66)" stroke-width="1px" opacity="0.25"/>
              <line x1="0" y1="162.25" x2="280" y2="162.25" fill="rgb(0, 0, 0)" stroke="rgb(66, 66, 66)" stroke-width="1px" opacity="0.25"/>
              <line x1="0" y1="147.5" x2="280" y2="147.5" fill="rgb(0, 0, 0)" stroke="rgb(66, 66, 66)" stroke-width="1px" opacity="0.25"/>
              <line x1="0" y1="132.75" x2="280" y2="132.75" fill="rgb(0, 0, 0)" stroke="rgb(66, 66, 66)" stroke-width="1px" opacity="0.25"/>
              <line x1="0" y1="118.00000000000001" x2="280" y2="118.00000000000001" fill="rgb(0, 0, 0)" stroke="rgb(66, 66, 66)" stroke-width="1px" opacity="0.25"/>
              <line x1="0" y1="103.25" x2="280" y2="103.25" fill="rgb(0, 0, 0)" stroke="rgb(66, 66, 66)" stroke-width="1px" opacity="0.25"/>
              <line x1="0" y1="88.49999999999999" x2="280" y2="88.49999999999999" fill="rgb(0, 0, 0)" stroke="rgb(66, 66, 66)" stroke-width="1px" opacity="0.25"/>
              <line x1="0" y1="73.75" x2="280" y2="73.75" fill="rgb(0, 0, 0)" stroke="rgb(66, 66, 66)" stroke-width="1px" opacity="0.25"/>
              <line x1="0" y1="58.999999999999986" x2="280" y2="58.999999999999986" fill="rgb(0, 0, 0)" stroke="rgb(66, 66, 66)" stroke-width="1px" opacity="0.25"/>
              <line x1="0" y1="44.24999999999998" x2="280" y2="44.24999999999998" fill="rgb(0, 0, 0)" stroke="rgb(66, 66, 66)" stroke-width="1px" opacity="0.25"/>
              <line x1="0" y1="29.499999999999993" x2="280" y2="29.499999999999993" fill="rgb(0, 0, 0)" stroke="rgb(66, 66, 66)" stroke-width="1px" opacity="0.25"/>
              <line x1="0" y1="14.749999999999988" x2="280" y2="14.749999999999988" fill="rgb(0, 0, 0)" stroke="rgb(66, 66, 66)" stroke-width="1px" opacity="0.25"/>
              <line x1="0" y1="0" x2="280" y2="0" fill="rgb(0, 0, 0)" stroke="rgb(66, 66, 66)" stroke-width="1px" opacity="0.25"/>
            </g>
          </g>
        </g>
        <g>
          <g>
            <line x1="0" y1="206.5" x2="280" y2="206.5" fill="rgb(0, 0, 0)" stroke="rgb(153, 153, 153)" stroke-width="1.5px"/>
          </g>
        </g>
        <g>
          <g>
            <line x1="31.11111111111111" y1="0" x2="31.11111111111111" y2="177" fill="rgb(0, 0, 0)" stroke="rgb(153, 153, 153)" stroke-width="1.5px"/>
          </g>
        </g>
        <g>
          <g>
            <g>
              <g>
                <g>
                  <path stroke="rgb(0, 119, 187)" stroke-width="2px" d="M31.11111111111111,133.81988213956356L62.22222222222222,135.63635417819023L93.33333333333333,135.65629694960555L124.44444444444444,134.75034180957385L155.55555555555557,131.41692363610912" style="fill: none;" fill="none"/>
                </g>
                <g>
                  <path stroke="rgb(255, 112, 67)" stroke-width="2px" d="M31.11111111111111,118.99182164669037L62.22222222222222,131.15668400749564L93.33333333333333,138.41689513319608L124.44444444444444,144.40096045608686L155.55555555555557,150.4108415769567" style="fill: none;" fill="none"/>
                </g>
                <g>
                  <path stroke="rgb(187, 187, 187)" stroke-width="2px" d="M31.11111111111111,155.91062182188034L62.22222222222222,155.77243026904762L93.33333333333333,155.21030713678624L124.44444444444444,154.56331822046025" style="fill: none;" fill="none"/>
                </g>
                <g>
                  <path stroke="rgb(0, 153, 136)" stroke-width="2px" d="M31.11111111111111,141.1748036891222L62.22222222222222,151.19639608636498L93.33333333333333,157.30247762860083L124.44444444444444,162.7046468392124" style="fill: none;" fill="none"/>
                </g>
                <g>
                  <path stroke="rgb(238, 51, 119)" stroke-width="2px" d="M31.11111111111111,134.90797185897827L62.22222222222222,135.99703086167574L93.33333333333333,134.8039577016417L124.44444444444444,132.1833243246793L155.55555555555557,130.20925570918942" style="fill: none;" fill="none"/>
                </g>
                <g>
                  <path stroke="rgb(51, 187, 238)" stroke-width="2px" d="M31.11111111111111,123.56064060330391L62.22222222222222,133.33969513513148L93.33333333333333,139.85696149085248L124.44444444444444,145.38494128690047L155.55555555555557,151.49195094549307" style="fill: none;" fill="none"/>
                </g>
                <g>
                  <path stroke="rgb(51, 187, 238)" stroke-width="2px" d="M31.11111111111111,130.45104467868805L62.22222222222222,130.7325928993523L93.33333333333333,130.87332994779763L124.44444444444444,127.04088917451305L155.55555555555557,127.63449635820452L186.66666666666666,124.49368298893631" style="fill: none;" fill="none"/>
                </g>
                <g>
                  <path stroke="rgb(204, 51, 17)" stroke-width="2px" d="M31.11111111111111,121.25138142704962L62.22222222222222,128.76075255312026L93.33333333333333,133.18900687475593L124.44444444444444,137.86509721139996L155.55555555555557,142.51373775573262L186.66666666666666,147.95972735641644" style="fill: none;" fill="none"/>
                </g>
                <g>
                  <path stroke="rgb(0, 119, 187)" stroke-width="2px" d="M31.11111111111111,21.798898816108682L62.22222222222222,22.989084176719203L93.33333333333333,22.571065341939736L124.44444444444444,20.986634059644803L155.55555555555557,18.62834579054469" style="fill: none;" fill="none"/>
                </g>
                <g>
                  <path stroke="rgb(255, 112, 67)" stroke-width="2px" d="M31.11111111111111,15.401857733726494L62.22222222222222,21.178390473127358L93.33333333333333,26.159943160962086L124.44444444444444,32.29596597153475L155.55555555555557,39.91822006919996" style="fill: none;" fill="none"/>
                </g>
                <g>
                  <path stroke="rgb(0, 153, 136)" stroke-width="2px" d="M31.11111111111111,154.179930254817L62.22222222222222,153.439351670444L93.33333333333333,154.39305998962755L124.44444444444444,154.2894437833525L155.55555555555557,152.68312524407997L186.66666666666666,150.69534937246522" style="fill: none;" fill="none"/>
                </g>
                <g>
                  <path stroke="rgb(238, 51, 119)" stroke-width="2px" d="M31.11111111111111,138.42051380872726L62.22222222222222,149.78601967543364L93.33333333333333,156.24418185347196L124.44444444444444,161.39467745181173L155.55555555555557,166.22868277441185L186.66666666666666,170.46257287802658" style="fill: none;" fill="none"/>
                </g>
                <g>
                  <path stroke="rgb(51, 187, 238)" stroke-width="2px" d="M31.11111111111111,134.3597355633974L62.22222222222222,134.997270103544L93.33333333333333,134.944956773702L124.44444444444444,133.87528098774527L155.55555555555557,129.5288467541761" style="fill: none;" fill="none"/>
                </g>
                <g>
                  <path stroke="rgb(204, 51, 17)" stroke-width="2px" d="M31.11111111111111,117.97843047976495L62.22222222222222,130.36678571812809L93.33333333333333,137.65033994523844L124.44444444444444,143.8300664365182L155.55555555555557,149.87338416491383" style="fill: none;" fill="none"/>
                </g>
                <g>
                  <path stroke="rgb(204, 51, 17)" stroke-width="2px" d="M31.11111111111111,130.45298764109612L62.22222222222222,131.07141125574708L93.33333333333333,131.4530696321507L124.44444444444444,131.0995753543342L155.55555555555557,129.06106679303875L186.66666666666666,127.75071491770021" style="fill: none;" fill="none"/>
                </g>
                <g>
                  <path stroke="rgb(0, 119, 187)" stroke-width="2px" d="M31.11111111111111,118.51175168156622L62.22222222222222,127.43336140736936L93.33333333333333,132.41833825470232L124.44444444444444,136.8125080416965L155.55555555555557,141.2388551265808L186.66666666666666,146.1397892531872" style="fill: none;" fill="none"/>
                </g>
                <g>
                  <path stroke="rgb(255, 112, 67)" stroke-width="2px" d="M31.11111111111111,22.09549510478972L62.22222222222222,23.32025376707314L93.33333333333333,23.52068288107307L124.44444444444444,20.59063432475222L155.55555555555557,18.87718858646898" style="fill: none;" fill="none"/>
                </g>
                <g>
                  <path stroke="rgb(187, 187, 187)" stroke-width="2px" d="M31.11111111111111,14.749602615833275L62.22222222222222,20.773126758635023L93.33333333333333,26.063959490279753L124.44444444444444,32.03324553238995L155.55555555555557,39.70741553301617" style="fill: none;" fill="none"/>
                </g>
                <g>
                  <path stroke="rgb(0, 119, 187)" stroke-width="2px" d="M31.11111111111111,153.4782966375351L62.22222222222222,154.71102825924754L93.33333333333333,156.38593566478514L124.44444444444444,157.13625903854913L155.55555555555557,156.9185444111939L186.66666666666666,156.8214152695593L217.77777777777777,156.09380087499088" style="fill: none;" fill="none"/>
                </g>
                <g>
                  <path stroke="rgb(255, 112, 67)" stroke-width="2px" d="M31.11111111111111,135.68595246970654L62.22222222222222,147.14980432391167L93.33333333333333,152.3653167604792L124.44444444444444,156.45389517889743L155.55555555555557,159.8181275313075L186.66666666666666,162.949249818677L217.77777777777777,166.05438993367002" style="fill: none;" fill="none"/>
                </g>
                <g>
                  <path stroke="rgb(187, 187, 187)" stroke-width="2px" d="M31.11111111111111,134.75561195611954L62.22222222222222,136.1336866170168L93.33333333333333,136.12307379714082L124.44444444444444,136.41105660549638L155.55555555555557,137.58376571276509L186.66666666666666,137.0344474759697L217.77777777777777,134.6695920247698L248.88888888888889,130.64594617918522" style="fill: none;" fill="none"/>
                </g>
                <g>
                  <path stroke="rgb(0, 153, 136)" stroke-width="2px" d="M31.11111111111111,116.79354870319365L62.22222222222222,127.81070602685212L93.33333333333333,133.33854644091764L124.44444444444444,137.48990851027125L155.55555555555557,140.8565931768363L186.66666666666666,144.74567508766734L217.77777777777777,148.99191122379506L248.88888888888889,153.9757513704128" style="fill: none;" fill="none"/>
                </g>
                <g>
                  <path stroke="rgb(0, 153, 136)" stroke-width="2px" d="M31.11111111111111,129.2794735133648L62.22222222222222,129.87374746799466L93.33333333333333,130.69392646271353L124.44444444444444,131.10549810572581L155.55555555555557,131.23595089512432L186.66666666666666,130.71470726539096L217.77777777777777,129.9062647028524" style="fill: none;" fill="none"/>
                </g>
                <g>
                  <path stroke="rgb(238, 51, 119)" stroke-width="2px" d="M31.11111111111111,114.19388258457185L62.22222222222222,124.48763807862997L93.33333333333333,129.1500447474572L124.44444444444444,132.1894637167673L155.55555555555557,134.80936966341127L186.66666666666666,137.21215418589557L217.77777777777777,140.071770085932" style="fill: none;" fill="none"/>
                </g>
                <g>
                  <path stroke="rgb(51, 187, 238)" stroke-width="2px" d="M31.11111111111111,21.400037646293626L62.22222222222222,21.433841675519904L93.33333333333333,22.76776906908774L124.44444444444444,22.32381717093727L155.55555555555557,22.219090920202802L186.66666666666666,21.473115825587474" style="fill: none;" fill="none"/>
                </g>
                <g>
                  <path stroke="rgb(204, 51, 17)" stroke-width="2px" d="M31.11111111111111,13.420440495014171L62.22222222222222,17.53394906967877L93.33333333333333,20.577602418101563L124.44444444444444,23.384747629656523L155.55555555555557,26.50547351521142L186.66666666666666,29.99988258654848" style="fill: none;" fill="none"/>
                </g>
                <g>
                  <path stroke="rgb(255, 112, 67)" stroke-width="2px" d="M31.11111111111111,154.33022850751877L62.22222222222222,154.68122554570436L93.33333333333333,155.3004483738724L124.44444444444444,156.496691146482L155.55555555555557,156.32680497247674L186.66666666666666,156.19211748779165L217.77777777777777,156.38137662974694" style="fill: none;" fill="none"/>
                </g>
                <g>
                  <path stroke="rgb(187, 187, 187)" stroke-width="2px" d="M31.11111111111111,130.9802425801754L62.22222222222222,145.32410760968924L93.33333333333333,151.41479977813304L124.44444444444444,155.35206282741447L155.55555555555557,158.54255354380666L186.66666666666666,161.41740420126587L217.77777777777777,163.96509092716016" style="fill: none;" fill="none"/>
                </g>
                <g>
                  <path stroke="rgb(0, 153, 136)" stroke-width="2px" d="M31.11111111111111,134.51224492490292L62.22222222222222,136.39828117191792L93.33333333333333,136.65862046151744L124.44444444444444,136.77136295540805L155.55555555555557,137.00085677129994" style="fill: none;" fill="none"/>
                </g>
                <g>
                  <path stroke="rgb(238, 51, 119)" stroke-width="2px" d="M31.11111111111111,114.8625517785549L62.22222222222222,126.85539383068682L93.33333333333333,132.57523780696246L124.44444444444444,136.3572709345642L155.55555555555557,139.9446516224053" style="fill: none;" fill="none"/>
                </g>
                <g>
                  <path stroke="rgb(238, 51, 119)" stroke-width="2px" d="M31.11111111111111,128.68465447425842L62.22222222222222,128.7453061118722L93.33333333333333,129.34531731386573L124.44444444444444,129.98974328049843L155.55555555555557,130.5137141041256L186.66666666666666,130.04529371149L217.77777777777777,130.51210984023473L248.88888888888889,129.0645427739743" style="fill: none;" fill="none"/>
                </g>
                <g>
                  <path stroke="rgb(51, 187, 238)" stroke-width="2px" d="M31.11111111111111,110.3277742266655L62.22222222222222,122.97872885689141L93.33333333333333,128.35266375845794L124.44444444444444,131.46879249728997L155.55555555555557,134.10577546069393L186.66666666666666,136.5209874917266L217.77777777777777,138.79667817195227L248.88888888888889,141.53220360560138" style="fill: none;" fill="none"/>
                </g>
                <g>
                  <path stroke="rgb(204, 51, 17)" stroke-width="2px" d="M31.11111111111111,21.138414680957773L62.22222222222222,21.57977925240995L93.33333333333333,23.237072449557626L124.44444444444444,24.123241227120154L155.55555555555557,22.923324066719022L186.66666666666666,23.422096814940193L217.77777777777777,23.026420156376577" style="fill: none;" fill="none"/>
                </g>
                <g>
                  <path stroke="rgb(0, 119, 187)" stroke-width="2px" d="M31.11111111111111,13.542785584926618L62.22222222222222,17.43190837651489L93.33333333333333,20.122802088455266L124.44444444444444,22.781574421069198L155.55555555555557,25.480413951822488L186.66666666666666,28.461463982865542L217.77777777777777,31.956502198161992" style="fill: none;" fill="none"/>
                </g>
              </g>
            </g>
          </g>
          <g opacity="0.2">
            <g>
              <g>
                <g>
                  <path stroke="rgb(0, 119, 187)" stroke-width="2px" d="M31.11111111111111,133.81988213956356L62.22222222222222,136.72623740136623L93.33333333333333,135.67544201016426L124.44444444444444,133.68493856489658L155.55555555555557,127.06481286883353" style="fill: none;" fill="none"/>
                </g>
                <g>
                  <path stroke="rgb(255, 112, 67)" stroke-width="2px" d="M31.11111111111111,118.99182164669037L62.22222222222222,138.4556014239788L93.33333333333333,145.38669781386852L124.44444444444444,151.43822127580643L155.55555555555557,158.25734236836433" style="fill: none;" fill="none"/>
                </g>
                <g>
                  <path stroke="rgb(187, 187, 187)" stroke-width="2px" d="M31.11111111111111,155.91062182188034L62.22222222222222,155.68951533734798L93.33333333333333,154.6706689298153L124.44444444444444,153.80245925486088" style="fill: none;" fill="none"/>
                </g>
                <g>
                  <path stroke="rgb(0, 153, 136)" stroke-width="2px" d="M31.11111111111111,141.1748036891222L62.22222222222222,157.20935152471066L93.33333333333333,163.16431590914726L124.44444444444444,169.0575978308916" style="fill: none;" fill="none"/>
                </g>
                <g>
                  <path stroke="rgb(238, 51, 119)" stroke-width="2px" d="M31.11111111111111,134.90797185897827L62.22222222222222,136.65046626329422L93.33333333333333,133.658607468009L124.44444444444444,129.1014594733715L155.55555555555557,127.63191172480585" style="fill: none;" fill="none"/>
                </g>
                <g>
                  <path stroke="rgb(51, 187, 238)" stroke-width="2px" d="M31.11111111111111,123.56064060330391L62.22222222222222,139.20712785422802L93.33333333333333,146.11353719234467L124.44444444444444,151.88584552705288L155.55555555555557,159.4652627557516" style="fill: none;" fill="none"/>
                </g>
                <g>
                  <path stroke="rgb(51, 187, 238)" stroke-width="2px" d="M31.11111111111111,130.45104467868805L62.22222222222222,130.90152183175087L93.33333333333333,131.00843751430511L124.44444444444444,122.53393882513046L155.55555555555557,128.40950989723206L186.66666666666666,120.14880740642549" style="fill: none;" fill="none"/>
                </g>
                <g>
                  <path stroke="rgb(204, 51, 17)" stroke-width="2px" d="M31.11111111111111,121.25138142704962L62.22222222222222,133.26637522876263L93.33333333333333,137.4401310235262L124.44444444444444,143.36417944729328L155.55555555555557,148.58300285041332L186.66666666666666,155.4934915304184" style="fill: none;" fill="none"/>
                </g>
                <g>
                  <path stroke="rgb(0, 119, 187)" stroke-width="2px" d="M31.11111111111111,21.798898816108682L62.22222222222222,23.703195393085473L93.33333333333333,22.16976726055144L124.44444444444444,19.12334287166594L155.55555555555557,15.54936462640761" style="fill: none;" fill="none"/>
                </g>
                <g>
                  <path stroke="rgb(255, 112, 67)" stroke-width="2px" d="M31.11111111111111,15.401857733726494L62.22222222222222,24.644310116767876L93.33333333333333,30.942233741283395L124.44444444444444,39.51192879676818L155.55555555555557,49.869835019111626" style="fill: none;" fill="none"/>
                </g>
                <g>
                  <path stroke="rgb(0, 153, 136)" stroke-width="2px" d="M31.11111111111111,154.179930254817L62.22222222222222,152.9950045198202L93.33333333333333,155.3086199760437L124.44444444444444,154.16759112477303L155.55555555555557,150.58591575920582L186.66666666666666,147.9455397427082" style="fill: none;" fill="none"/>
                </g>
                <g>
                  <path stroke="rgb(238, 51, 119)" stroke-width="2px" d="M31.11111111111111,138.42051380872726L62.22222222222222,156.60532319545746L93.33333333333333,162.44401754438877L124.44444444444444,167.4516602754593L155.55555555555557,172.53996012359858L186.66666666666666,176.31956709176302" style="fill: none;" fill="none"/>
                </g>
                <g>
                  <path stroke="rgb(51, 187, 238)" stroke-width="2px" d="M31.11111111111111,134.3597355633974L62.22222222222222,135.37979082763195L93.33333333333333,134.89473597705364L124.44444444444444,132.61734226346016L155.55555555555557,123.8541422188282" style="fill: none;" fill="none"/>
                </g>
                <g>
                  <path stroke="rgb(204, 51, 17)" stroke-width="2px" d="M31.11111111111111,117.97843047976495L62.22222222222222,137.79979886114597L93.33333333333333,144.64255200326443L124.44444444444444,151.09742479026318L155.55555555555557,157.76353979110718" style="fill: none;" fill="none"/>
                </g>
                <g>
                  <path stroke="rgb(204, 51, 17)" stroke-width="2px" d="M31.11111111111111,130.45298764109612L62.22222222222222,131.44246542453766L93.33333333333333,131.81946167349815L124.44444444444444,130.68386608362198L155.55555555555557,126.39959001541139L186.66666666666666,125.93802654743196" style="fill: none;" fill="none"/>
                </g>
                <g>
                  <path stroke="rgb(0, 119, 187)" stroke-width="2px" d="M31.11111111111111,118.51175168156622L62.22222222222222,132.78632724285126L93.33333333333333,137.20391602814198L124.44444444444444,141.98005171120167L155.55555555555557,147.0178938806057L186.66666666666666,152.9195454865694" style="fill: none;" fill="none"/>
                </g>
                <g>
                  <path stroke="rgb(255, 112, 67)" stroke-width="2px" d="M31.11111111111111,22.09549510478972L62.22222222222222,24.055108964443193L93.33333333333333,23.71309483051298L124.44444444444444,17.144897222518907L155.55555555555557,16.6401138305664" style="fill: none;" fill="none"/>
                </g>
                <g>
                  <path stroke="rgb(187, 187, 187)" stroke-width="2px" d="M31.11111111111111,14.749602615833275L62.22222222222222,24.38724124431608L93.33333333333333,31.14315891265867L124.44444444444444,39.053125917911515L155.55555555555557,49.72681188583372" style="fill: none;" fill="none"/>
                </g>
                <g>
                  <path stroke="rgb(0, 119, 187)" stroke-width="2px" d="M31.11111111111111,153.4782966375351L62.22222222222222,155.450667232275L93.33333333333333,157.99384677410126L124.44444444444444,158.01863932609558L155.55555555555557,156.6342961937189L186.66666666666666,156.68705070018768L217.77777777777777,155.0533006489277" style="fill: none;" fill="none"/>
                </g>
                <g>
                  <path stroke="rgb(255, 112, 67)" stroke-width="2px" d="M31.11111111111111,135.68595246970654L62.22222222222222,154.02811543643475L93.33333333333333,157.372208699584L124.44444444444444,161.26206339895725L155.55555555555557,164.21046929061413L186.66666666666666,167.28071914613247L217.77777777777777,170.49478998035192" style="fill: none;" fill="none"/>
                </g>
                <g>
                  <path stroke="rgb(187, 187, 187)" stroke-width="2px" d="M31.11111111111111,134.75561195611954L62.22222222222222,136.96053141355515L93.33333333333333,136.11288549005985L124.44444444444444,136.74972438812256L155.55555555555557,139.1148547232151L186.66666666666666,136.27454259991646L217.77777777777777,131.28781089186668L248.88888888888889,124.77943190932274" style="fill: none;" fill="none"/>
                </g>
                <g>
                  <path stroke="rgb(0, 153, 136)" stroke-width="2px" d="M31.11111111111111,116.79354870319365L62.22222222222222,134.4210004210472L93.33333333333333,138.6452732384205L124.44444444444444,142.3719103038311L155.55555555555557,145.2521366775036L186.66666666666666,150.1256754398346L217.77777777777777,155.06409683823586L248.88888888888889,161.2422381490469" style="fill: none;" fill="none"/>
                </g>
                <g>
                  <path stroke="rgb(0, 153, 136)" stroke-width="2px" d="M31.11111111111111,129.2794735133648L62.22222222222222,130.23031184077263L93.33333333333333,131.48129829764366L124.44444444444444,131.58950635790825L155.55555555555557,131.40627005696297L186.66666666666666,129.99363967776299L217.77777777777777,128.7501789033413" style="fill: none;" fill="none"/>
                </g>
                <g>
                  <path stroke="rgb(238, 51, 119)" stroke-width="2px" d="M31.11111111111111,114.19388258457184L62.22222222222222,130.66389137506485L93.33333333333333,133.62595514953136L124.44444444444444,135.76382042467594L155.55555555555557,138.22991886734962L186.66666666666666,140.5360701829195L217.77777777777777,144.1610665768385" style="fill: none;" fill="none"/>
                </g>
                <g>
                  <path stroke="rgb(51, 187, 238)" stroke-width="2px" d="M31.11111111111111,21.400037646293626L62.22222222222222,21.454124093055704L93.33333333333333,24.048339366912835L124.44444444444444,21.801729738712297L155.55555555555557,22.08236032724379L186.66666666666666,20.441163718700388" style="fill: none;" fill="none"/>
                </g>
                <g>
                  <path stroke="rgb(204, 51, 17)" stroke-width="2px" d="M31.11111111111111,13.420440495014171L62.22222222222222,20.002054214477525L93.33333333333333,23.49950963258741L124.44444444444444,26.685950398445122L155.55555555555557,30.579893231391885L186.66666666666666,34.83390831947325" style="fill: none;" fill="none"/>
                </g>
                <g>
                  <path stroke="rgb(255, 112, 67)" stroke-width="2px" d="M31.11111111111111,154.33022850751877L62.22222222222222,154.89182376861572L93.33333333333333,155.89490228891373L124.44444444444444,157.90347264707088L155.55555555555557,156.1050015836954L186.66666666666666,156.0057962089777L217.77777777777777,156.65202023088932" style="fill: none;" fill="none"/>
                </g>
                <g>
                  <path stroke="rgb(187, 187, 187)" stroke-width="2px" d="M31.11111111111111,130.9802425801754L62.22222222222222,153.93042662739754L93.33333333333333,157.26186425983906L124.44444444444444,159.9822841733694L155.55555555555557,162.70805822312832L186.66666666666666,165.3943576067686L217.77777777777777,167.6083237081766" style="fill: none;" fill="none"/>
                </g>
                <g>
                  <path stroke="rgb(0, 153, 136)" stroke-width="2px" d="M31.11111111111111,134.51224492490292L62.22222222222222,137.52990292012691L93.33333333333333,136.908546179533L124.44444444444444,136.90394812822342L155.55555555555557,137.30048389732838" style="fill: none;" fill="none"/>
                </g>
                <g>
                  <path stroke="rgb(238, 51, 119)" stroke-width="2px" d="M31.11111111111111,114.8625517785549L62.22222222222222,134.05109906196594L93.33333333333333,138.0662880241871L124.44444444444444,140.8049418926239L155.55555555555557,144.62833584845066" style="fill: none;" fill="none"/>
                </g>
                <g>
                  <path stroke="rgb(238, 51, 119)" stroke-width="2px" d="M31.11111111111111,128.68465447425842L62.22222222222222,128.78169709444046L93.33333333333333,129.92132806777954L124.44444444444444,130.74758821725845L155.55555555555557,131.19781041145325L186.66666666666666,129.39729967713356L217.77777777777777,131.17966437339783L248.88888888888889,126.95397609472275" style="fill: none;" fill="none"/>
                </g>
                <g>
                  <path stroke="rgb(51, 187, 238)" stroke-width="2px" d="M31.11111111111111,110.3277742266655L62.22222222222222,130.56930163502693L93.33333333333333,133.5116412639618L124.44444444444444,135.13335989415646L155.55555555555557,137.54862041771412L186.66666666666666,139.86209520697594L217.77777777777777,142.05095225572586L248.88888888888889,145.52062594890594" style="fill: none;" fill="none"/>
                </g>
                <g>
                  <path stroke="rgb(204, 51, 17)" stroke-width="2px" d="M31.11111111111111,21.138414680957773L62.22222222222222,21.844597995281212L93.33333333333333,24.828073918819406L124.44444444444444,25.165375709533684L155.55555555555557,21.356712222099297L186.66666666666666,24.11207908391951L217.77777777777777,22.460596203803995" style="fill: none;" fill="none"/>
                </g>
                <g>
                  <path stroke="rgb(0, 119, 187)" stroke-width="2px" d="M31.11111111111111,13.542785584926598L62.22222222222222,19.765382051467874L93.33333333333333,22.706060051918023L124.44444444444444,25.908290684223154L155.55555555555557,29.004018843173967L186.66666666666666,32.58532935380934L217.77777777777777,36.954462766647325" style="fill: none;" fill="none"/>
                </g>
              </g>
            </g>
          </g>
        </g>
      </g>
      <g transform="translate(50, 177)" clip-path="url(#clip_1)">
        <clipPath id="clip_1">
          <rect width="280" height="23"/>
        </clipPath>
        <g>
          <g>
            <line x1="0" y1="0" x2="0" y2="5" style="visibility: inherit;" fill="rgb(0, 0, 0)" stroke="rgb(204, 204, 204)" stroke-width="1px"/>
            <line x1="31.11111111111111" y1="0" x2="31.11111111111111" y2="5" style="visibility: inherit;" fill="rgb(0, 0, 0)" stroke="rgb(204, 204, 204)" stroke-width="1px"/>
            <line x1="62.22222222222222" y1="0" x2="62.22222222222222" y2="5" style="visibility: inherit;" fill="rgb(0, 0, 0)" stroke="rgb(204, 204, 204)" stroke-width="1px"/>
            <line x1="93.33333333333333" y1="0" x2="93.33333333333333" y2="5" style="visibility: inherit;" fill="rgb(0, 0, 0)" stroke="rgb(204, 204, 204)" stroke-width="1px"/>
            <line x1="124.44444444444444" y1="0" x2="124.44444444444444" y2="5" style="visibility: inherit;" fill="rgb(0, 0, 0)" stroke="rgb(204, 204, 204)" stroke-width="1px"/>
            <line x1="155.55555555555557" y1="0" x2="155.55555555555557" y2="5" style="visibility: inherit;" fill="rgb(0, 0, 0)" stroke="rgb(204, 204, 204)" stroke-width="1px"/>
            <line x1="186.66666666666666" y1="0" x2="186.66666666666666" y2="5" style="visibility: inherit;" fill="rgb(0, 0, 0)" stroke="rgb(204, 204, 204)" stroke-width="1px"/>
            <line x1="217.77777777777777" y1="0" x2="217.77777777777777" y2="5" style="visibility: inherit;" fill="rgb(0, 0, 0)" stroke="rgb(204, 204, 204)" stroke-width="1px"/>
            <line x1="248.88888888888889" y1="0" x2="248.88888888888889" y2="5" style="visibility: inherit;" fill="rgb(0, 0, 0)" stroke="rgb(204, 204, 204)" stroke-width="1px"/>
            <line x1="280" y1="0" x2="280" y2="5" style="visibility: inherit;" fill="rgb(0, 0, 0)" stroke="rgb(204, 204, 204)" stroke-width="1px"/>
          </g>
          <g transform="translate(0, 8)">
            <text x="0" y="0" dx="0em" dy="0.95em" style="text-anchor: middle; visibility: hidden; font-family: Roboto, sans-serif; font-size: 12px; font-weight: 200; white-space: pre;" fill="rgb(33, 33, 33)" stroke="none" stroke-width="1px">-1</text>
            <text x="31.11111111111111" y="0" dx="0em" dy="0.95em" style="text-anchor: middle; visibility: inherit; font-family: Roboto, sans-serif; font-size: 12px; font-weight: 200; white-space: pre;" fill="rgb(33, 33, 33)" stroke="none" stroke-width="1px">0</text>
            <text x="62.22222222222222" y="0" dx="0em" dy="0.95em" style="text-anchor: middle; visibility: inherit; font-family: Roboto, sans-serif; font-size: 12px; font-weight: 200; white-space: pre;" fill="rgb(33, 33, 33)" stroke="none" stroke-width="1px">1</text>
            <text x="93.33333333333333" y="0" dx="0em" dy="0.95em" style="text-anchor: middle; visibility: inherit; font-family: Roboto, sans-serif; font-size: 12px; font-weight: 200; white-space: pre;" fill="rgb(33, 33, 33)" stroke="none" stroke-width="1px">2</text>
            <text x="124.44444444444444" y="0" dx="0em" dy="0.95em" style="text-anchor: middle; visibility: inherit; font-family: Roboto, sans-serif; font-size: 12px; font-weight: 200; white-space: pre;" fill="rgb(33, 33, 33)" stroke="none" stroke-width="1px">3</text>
            <text x="155.55555555555557" y="0" dx="0em" dy="0.95em" style="text-anchor: middle; visibility: inherit; font-family: Roboto, sans-serif; font-size: 12px; font-weight: 200; white-space: pre;" fill="rgb(33, 33, 33)" stroke="none" stroke-width="1px">4</text>
            <text x="186.66666666666666" y="0" dx="0em" dy="0.95em" style="text-anchor: middle; visibility: inherit; font-family: Roboto, sans-serif; font-size: 12px; font-weight: 200; white-space: pre;" fill="rgb(33, 33, 33)" stroke="none" stroke-width="1px">5</text>
            <text x="217.77777777777777" y="0" dx="0em" dy="0.95em" style="text-anchor: middle; visibility: inherit; font-family: Roboto, sans-serif; font-size: 12px; font-weight: 200; white-space: pre;" fill="rgb(33, 33, 33)" stroke="none" stroke-width="1px">6</text>
            <text x="248.88888888888889" y="0" dx="0em" dy="0.95em" style="text-anchor: middle; visibility: inherit; font-family: Roboto, sans-serif; font-size: 12px; font-weight: 200; white-space: pre;" fill="rgb(33, 33, 33)" stroke="none" stroke-width="1px">7</text>
            <text x="280" y="0" dx="0em" dy="0.95em" style="text-anchor: middle; visibility: hidden; font-family: Roboto, sans-serif; font-size: 12px; font-weight: 200; white-space: pre;" fill="rgb(33, 33, 33)" stroke="none" stroke-width="1px">8</text>
          </g>
          <line x1="0" y1="0" x2="280" y2="0" fill="rgb(0, 0, 0)" stroke="rgb(204, 204, 204)" stroke-width="1px"/>
        </g>
      </g>
    </g>
  </g>
  <text style="white-space: pre; fill: rgb(51, 51, 51); font-family: Arial, sans-serif; font-size: 13.5px;" x="221.042" y="38.127">Epoch Loss</text>
  <text style="white-space: pre; fill: rgb(51, 51, 51); font-family: Arial, sans-serif; font-size: 13.5px;" x="29.923" y="136.1">Loss</text>
  <text style="white-space: pre; fill: rgb(51, 51, 51); font-family: Arial, sans-serif; font-size: 13.5px;" x="222.491" y="271.718">Epoch x10</text>
</svg>