<?xml version="1.0" encoding="utf-8"?>
<svg viewBox="81.564 0 756.274 261.1" xmlns="http://www.w3.org/2000/svg">
  <defs>
    <path id="path-0" style="fill: none;" d="M 449.807 9.706 C 462.336 9.706 469.747 11.637 477.317 11.637 C 486.893 15.178 495.087 17.889 502.896 19.841 C 506.55 20.324 508.899 20.807 511.583 20.807 L 512.066 20.807 C 512.387 20.807 512.709 20.807 513.031 20.807"/>
  </defs>
  <g transform="matrix(1, 0, 0, 1, 129.388643, 39.384432)">
    <g>
      <g>
        <g>
          <g>
            <line x1="50" y1="177" x2="45" y2="177" style="visibility: inherit;" fill="rgb(0, 0, 0)" stroke="rgb(204, 204, 204)" stroke-width="1px"/>
            <line x1="50" y1="154.87499999999997" x2="45" y2="154.87499999999997" style="visibility: inherit;" fill="rgb(0, 0, 0)" stroke="rgb(204, 204, 204)" stroke-width="1px"/>
            <line x1="50" y1="132.75" x2="45" y2="132.75" style="visibility: inherit;" fill="rgb(0, 0, 0)" stroke="rgb(204, 204, 204)" stroke-width="1px"/>
            <line x1="50" y1="110.625" x2="45" y2="110.625" style="visibility: inherit;" fill="rgb(0, 0, 0)" stroke="rgb(204, 204, 204)" stroke-width="1px"/>
            <line x1="50" y1="88.49999999999999" x2="45" y2="88.49999999999999" style="visibility: inherit;" fill="rgb(0, 0, 0)" stroke="rgb(204, 204, 204)" stroke-width="1px"/>
            <line x1="50" y1="66.375" x2="45" y2="66.375" style="visibility: inherit;" fill="rgb(0, 0, 0)" stroke="rgb(204, 204, 204)" stroke-width="1px"/>
            <line x1="50" y1="44.24999999999998" x2="45" y2="44.24999999999998" style="visibility: inherit;" fill="rgb(0, 0, 0)" stroke="rgb(204, 204, 204)" stroke-width="1px"/>
            <line x1="50" y1="22.12500000000002" x2="45" y2="22.12500000000002" style="visibility: inherit;" fill="rgb(0, 0, 0)" stroke="rgb(204, 204, 204)" stroke-width="1px"/>
            <line x1="50" y1="0" x2="45" y2="0" style="visibility: inherit;" fill="rgb(0, 0, 0)" stroke="rgb(204, 204, 204)" stroke-width="1px"/>
          </g>
          <g transform="translate(40, 0)">
            <text x="0" y="177" dx="0em" dy="0.3em" style="text-anchor: end; visibility: hidden; font-family: Roboto, sans-serif; font-size: 12px; font-weight: 200; white-space: pre;" fill="rgb(33, 33, 33)" stroke="none" stroke-width="1px">0.6</text>
            <text x="0" y="154.87499999999997" dx="0em" dy="0.3em" style="text-anchor: end; visibility: inherit; font-family: Roboto, sans-serif; font-size: 12px; font-weight: 200; white-space: pre;" fill="rgb(33, 33, 33)" stroke="none" stroke-width="1px">0.65</text>
            <text x="0" y="132.75" dx="0em" dy="0.3em" style="text-anchor: end; visibility: hidden; font-family: Roboto, sans-serif; font-size: 12px; font-weight: 200; white-space: pre;" fill="rgb(33, 33, 33)" stroke="none" stroke-width="1px">0.7</text>
            <text x="0" y="110.625" dx="0em" dy="0.3em" style="text-anchor: end; visibility: inherit; font-family: Roboto, sans-serif; font-size: 12px; font-weight: 200; white-space: pre;" fill="rgb(33, 33, 33)" stroke="none" stroke-width="1px">0.75</text>
            <text x="0" y="88.49999999999999" dx="0em" dy="0.3em" style="text-anchor: end; visibility: hidden; font-family: Roboto, sans-serif; font-size: 12px; font-weight: 200; white-space: pre;" fill="rgb(33, 33, 33)" stroke="none" stroke-width="1px">0.8</text>
            <text x="0" y="66.375" dx="0em" dy="0.3em" style="text-anchor: end; visibility: inherit; font-family: Roboto, sans-serif; font-size: 12px; font-weight: 200; white-space: pre;" fill="rgb(33, 33, 33)" stroke="none" stroke-width="1px">0.85</text>
            <text x="0" y="44.24999999999998" dx="0em" dy="0.3em" style="text-anchor: end; visibility: hidden; font-family: Roboto, sans-serif; font-size: 12px; font-weight: 200; white-space: pre;" fill="rgb(33, 33, 33)" stroke="none" stroke-width="1px">0.9</text>
            <text x="0" y="22.12500000000002" dx="0em" dy="0.3em" style="text-anchor: end; visibility: inherit; font-family: Roboto, sans-serif; font-size: 12px; font-weight: 200; white-space: pre;" fill="rgb(33, 33, 33)" stroke="none" stroke-width="1px">0.95</text>
            <text x="0" y="0" dx="0em" dy="0.3em" style="text-anchor: end; visibility: hidden; font-family: Roboto, sans-serif; font-size: 12px; font-weight: 200; white-space: pre;" fill="rgb(33, 33, 33)" stroke="none" stroke-width="1px">1</text>
          </g>
          <line x1="50" y1="0" x2="50" y2="177" fill="rgb(0, 0, 0)" stroke="rgb(204, 204, 204)" stroke-width="1px"/>
        </g>
      </g>
      <g transform="translate(50, 0)" clip-path="url(#clip_0)">
        <clipPath id="clip_0">
          <rect width="280" height="177"/>
        </clipPath>
        <g>
          <g>
            <g>
              <line x1="0" y1="0" x2="0" y2="177" fill="rgb(0, 0, 0)" stroke="rgb(66, 66, 66)" stroke-width="1px" opacity="0.25"/>
              <line x1="31.11111111111111" y1="0" x2="31.11111111111111" y2="177" fill="rgb(0, 0, 0)" stroke="rgb(66, 66, 66)" stroke-width="1px" opacity="0.25"/>
              <line x1="62.22222222222222" y1="0" x2="62.22222222222222" y2="177" fill="rgb(0, 0, 0)" stroke="rgb(66, 66, 66)" stroke-width="1px" opacity="0.25"/>
              <line x1="93.33333333333333" y1="0" x2="93.33333333333333" y2="177" fill="rgb(0, 0, 0)" stroke="rgb(66, 66, 66)" stroke-width="1px" opacity="0.25"/>
              <line x1="124.44444444444444" y1="0" x2="124.44444444444444" y2="177" fill="rgb(0, 0, 0)" stroke="rgb(66, 66, 66)" stroke-width="1px" opacity="0.25"/>
              <line x1="155.55555555555557" y1="0" x2="155.55555555555557" y2="177" fill="rgb(0, 0, 0)" stroke="rgb(66, 66, 66)" stroke-width="1px" opacity="0.25"/>
              <line x1="186.66666666666666" y1="0" x2="186.66666666666666" y2="177" fill="rgb(0, 0, 0)" stroke="rgb(66, 66, 66)" stroke-width="1px" opacity="0.25"/>
              <line x1="217.77777777777777" y1="0" x2="217.77777777777777" y2="177" fill="rgb(0, 0, 0)" stroke="rgb(66, 66, 66)" stroke-width="1px" opacity="0.25"/>
              <line x1="248.88888888888889" y1="0" x2="248.88888888888889" y2="177" fill="rgb(0, 0, 0)" stroke="rgb(66, 66, 66)" stroke-width="1px" opacity="0.25"/>
              <line x1="280" y1="0" x2="280" y2="177" fill="rgb(0, 0, 0)" stroke="rgb(66, 66, 66)" stroke-width="1px" opacity="0.25"/>
            </g>
            <g>
              <line x1="0" y1="177" x2="280" y2="177" fill="rgb(0, 0, 0)" stroke="rgb(66, 66, 66)" stroke-width="1px" opacity="0.25"/>
              <line x1="0" y1="154.87499999999997" x2="280" y2="154.87499999999997" fill="rgb(0, 0, 0)" stroke="rgb(66, 66, 66)" stroke-width="1px" opacity="0.25"/>
              <line x1="0" y1="132.75" x2="280" y2="132.75" fill="rgb(0, 0, 0)" stroke="rgb(66, 66, 66)" stroke-width="1px" opacity="0.25"/>
              <line x1="0" y1="110.625" x2="280" y2="110.625" fill="rgb(0, 0, 0)" stroke="rgb(66, 66, 66)" stroke-width="1px" opacity="0.25"/>
              <line x1="0" y1="88.49999999999999" x2="280" y2="88.49999999999999" fill="rgb(0, 0, 0)" stroke="rgb(66, 66, 66)" stroke-width="1px" opacity="0.25"/>
              <line x1="0" y1="66.375" x2="280" y2="66.375" fill="rgb(0, 0, 0)" stroke="rgb(66, 66, 66)" stroke-width="1px" opacity="0.25"/>
              <line x1="0" y1="44.24999999999998" x2="280" y2="44.24999999999998" fill="rgb(0, 0, 0)" stroke="rgb(66, 66, 66)" stroke-width="1px" opacity="0.25"/>
              <line x1="0" y1="22.12500000000002" x2="280" y2="22.12500000000002" fill="rgb(0, 0, 0)" stroke="rgb(66, 66, 66)" stroke-width="1px" opacity="0.25"/>
              <line x1="0" y1="0" x2="280" y2="0" fill="rgb(0, 0, 0)" stroke="rgb(66, 66, 66)" stroke-width="1px" opacity="0.25"/>
            </g>
          </g>
        </g>
        <g>
          <g>
            <line x1="0" y1="442.5" x2="280" y2="442.5" fill="rgb(0, 0, 0)" stroke="rgb(153, 153, 153)" stroke-width="1.5px"/>
          </g>
        </g>
        <g>
          <g>
            <line x1="31.11111111111111" y1="0" x2="31.11111111111111" y2="177" fill="rgb(0, 0, 0)" stroke="rgb(153, 153, 153)" stroke-width="1.5px"/>
          </g>
        </g>
        <g>
          <g>
            <g>
              <g>
                <g>
                  <path stroke="rgb(0, 119, 187)" stroke-width="2px" d="M31.11111111111111,39.26064133644104L62.22222222222222,39.64403573423618L93.33333333333333,38.50947437845926L124.44444444444444,38.196866993847124L155.55555555555557,39.54514060197899" style="fill: none;" fill="none"/>
                </g>
                <g>
                  <path stroke="rgb(255, 112, 67)" stroke-width="2px" d="M31.11111111111111,48.03272098302841L62.22222222222222,40.81836858764291L93.33333333333333,36.62207542025314L124.44444444444444,33.140619076130996L155.55555555555557,29.599345460854682" style="fill: none;" fill="none"/>
                </g>
                <g>
                  <path stroke="rgb(187, 187, 187)" stroke-width="2px" d="M31.11111111111111,25.15133187174797L62.22222222222222,25.2791354991495L93.33333333333333,26.57019950297413L124.44444444444444,26.388012640835612" style="fill: none;" fill="none"/>
                </g>
                <g>
                  <path stroke="rgb(0, 153, 136)" stroke-width="2px" d="M31.11111111111111,33.49497511982912L62.22222222222222,27.552675157785355L93.33333333333333,24.739694768676937L124.44444444444444,21.815070351585785" style="fill: none;" fill="none"/>
                </g>
                <g>
                  <path stroke="rgb(238, 51, 119)" stroke-width="2px" d="M31.11111111111111,38.647183924913406L62.22222222222222,38.13596941530709L93.33333333333333,38.39679314469805L124.44444444444444,40.76718420502458L155.55555555555557,42.41967489339262" style="fill: none;" fill="none"/>
                </g>
                <g>
                  <path stroke="rgb(51, 187, 238)" stroke-width="2px" d="M31.11111111111111,45.41591987013817L62.22222222222222,39.63716173544526L93.33333333333333,35.687502248554864L124.44444444444444,32.19459141659387L155.55555555555557,28.735754400967384" style="fill: none;" fill="none"/>
                </g>
                <g>
                  <path stroke="rgb(51, 187, 238)" stroke-width="2px" d="M31.11111111111111,33.73960375785822L62.22222222222222,34.12301464006299L93.33333333333333,34.4490308451409L124.44444444444444,35.626555212828215L155.55555555555557,34.719443285862326L186.66666666666666,36.53902247101948" style="fill: none;" fill="none"/>
                </g>
                <g>
                  <path stroke="rgb(204, 51, 17)" stroke-width="2px" d="M31.11111111111111,39.86252009868622L62.22222222222222,36.42797688022256L93.33333333333333,34.84254505561319L124.44444444444444,32.846978894599204L155.55555555555557,30.80764266132979L186.66666666666666,28.01918314831883" style="fill: none;" fill="none"/>
                </g>
                <g>
                  <path stroke="rgb(0, 119, 187)" stroke-width="2px" d="M31.11111111111111,149.2721839249134L62.22222222222222,149.5277911797166L93.33333333333333,149.5017088067775L124.44444444444444,151.55757713460312L155.55555555555557,153.49309622589954" style="fill: none;" fill="none"/>
                </g>
                <g>
                  <path stroke="rgb(255, 112, 67)" stroke-width="2px" d="M31.11111111111111,158.6359088122845L62.22222222222222,149.1136896237731L93.33333333333333,141.24402240222807L124.44444444444444,133.67000143372402L155.55555555555557,125.02728271885597" style="fill: none;" fill="none"/>
                </g>
                <g>
                  <path stroke="rgb(0, 153, 136)" stroke-width="2px" d="M31.11111111111111,27.196163535118103L62.22222222222222,27.323967162519693L93.33333333333333,26.632797736294403L124.44444444444444,26.797724204576205L155.55555555555557,27.9461267018674L186.66666666666666,27.631460362435092" style="fill: none;" fill="none"/>
                </g>
                <g>
                  <path stroke="rgb(238, 51, 119)" stroke-width="2px" d="M31.11111111111111,35.79192593693733L62.22222222222222,28.886507861316144L93.33333333333333,25.526504115182497L124.44444444444444,22.694597575703913L155.55555555555557,19.787291434698787L186.66666666666666,17.32852393755267" style="fill: none;" fill="none"/>
                </g>
                <g>
                  <path stroke="rgb(51, 187, 238)" stroke-width="2px" d="M31.11111111111111,39.465100765228215L62.22222222222222,40.104118902236166L93.33333333333333,39.15212574661992L124.44444444444444,40.047730100615034L155.55555555555557,40.94799889811285" style="fill: none;" fill="none"/>
                </g>
                <g>
                  <path stroke="rgb(204, 51, 17)" stroke-width="2px" d="M31.11111111111111,48.96312743425369L62.22222222222222,41.02189499884848L93.33333333333333,36.78110570019605L124.44444444444444,32.86578731501803L155.55555555555557,29.267157331512383" style="fill: none;" fill="none"/>
                </g>
                <g>
                  <path stroke="rgb(204, 51, 17)" stroke-width="2px" d="M31.11111111111111,33.73960375785822L62.22222222222222,33.73960375785822L93.33333333333333,33.84393324961464L124.44444444444444,33.889960966565994L155.55555555555557,34.71164489034392L186.66666666666666,35.93392620345313" style="fill: none;" fill="none"/>
                </g>
                <g>
                  <path stroke="rgb(0, 119, 187)" stroke-width="2px" d="M31.11111111111111,42.15947091579437L62.22222222222222,37.43470944464207L93.33333333333333,35.454312848801564L124.44444444444444,33.578465454389935L155.55555555555557,31.587575431874342L186.66666666666666,29.3624271394606" style="fill: none;" fill="none"/>
                </g>
                <g>
                  <path stroke="rgb(255, 112, 67)" stroke-width="2px" d="M31.11111111111111,147.6363238692284L62.22222222222222,144.05787175521257L93.33333333333333,147.13553961746547L124.44444444444444,151.0305757968522L155.55555555555557,151.86432833290203" style="fill: none;" fill="none"/>
                </g>
                <g>
                  <path stroke="rgb(187, 187, 187)" stroke-width="2px" d="M31.11111111111111,160.55490508675575L62.22222222222222,150.50567932426924L93.33333333333333,143.0977269581385L124.44444444444444,135.03259797744892L155.55555555555557,124.58824746502025" style="fill: none;" fill="none"/>
                </g>
                <g>
                  <path stroke="rgb(0, 119, 187)" stroke-width="2px" d="M31.11111111111111,27.196163535118103L62.22222222222222,25.79034011811018L93.33333333333333,25.56864499437566L124.44444444444444,25.940704599351648L155.55555555555557,25.59833266683793L186.66666666666666,25.668173822365247L217.77777777777777,25.371333079563673" style="fill: none;" fill="none"/>
                </g>
                <g>
                  <path stroke="rgb(255, 112, 67)" stroke-width="2px" d="M31.11111111111111,37.50738590955734L62.22222222222222,30.492923464626074L93.33333333333333,27.529748237254605L124.44444444444444,25.66126786994151L155.55555555555557,24.03984686511001L186.66666666666666,22.61486309351422L217.77777777777777,20.79858053723946" style="fill: none;" fill="none"/>
                </g>
                <g>
                  <path stroke="rgb(187, 187, 187)" stroke-width="2px" d="M31.11111111111111,39.87407237291336L62.22222222222222,38.08485455811024L93.33333333333333,37.85012329415397L124.44444444444444,37.84052651813808L155.55555555555557,37.56957021823038L186.66666666666666,38.27910260872557L217.77777777777777,38.767164480130035L248.88888888888889,40.54853588085744" style="fill: none;" fill="none"/>
                </g>
                <g>
                  <path stroke="rgb(0, 153, 136)" stroke-width="2px" d="M31.11111111111111,48.87590512633324L62.22222222222222,42.47929483652119L93.33333333333333,39.52723985727958L124.44444444444444,37.50333035693451L155.55555555555557,35.57563554787706L186.66666666666666,33.62909598021929L217.77777777777777,31.16890410631019L248.88888888888889,28.17620630860944" style="fill: none;" fill="none"/>
                </g>
                <g>
                  <path stroke="rgb(0, 153, 136)" stroke-width="2px" d="M31.11111111111111,33.94408956170082L62.22222222222222,33.56067867949605L93.33333333333333,33.54763749302648L124.44444444444444,33.91777705017697L155.55555555555557,33.485734845245965L186.66666666666666,34.02122740900883L217.77777777777777,35.083411712542016" style="fill: none;" fill="none"/>
                </g>
                <g>
                  <path stroke="rgb(238, 51, 119)" stroke-width="2px" d="M31.11111111111111,44.36919942498207L62.22222222222222,38.445065282285256L93.33333333333333,36.453550120397516L124.44444444444444,35.33442568198286L155.55555555555557,34.57443771605934L186.66666666666666,33.71893928801409L217.77777777777777,32.64562797308085" style="fill: none;" fill="none"/>
                </g>
                <g>
                  <path stroke="rgb(51, 187, 238)" stroke-width="2px" d="M31.11111111111111,145.18252059817317L62.22222222222222,147.2273456677794L93.33333333333333,145.03647007504287L124.44444444444444,147.45288390501898L155.55555555555557,148.68540587936488L186.66666666666666,149.44637631335237" style="fill: none;" fill="none"/>
                </g>
                <g>
                  <path stroke="rgb(204, 51, 17)" stroke-width="2px" d="M31.11111111111111,160.84566369652748L62.22222222222222,154.6125952340662L93.33333333333333,151.47325549502764L124.44444444444444,147.02838262597868L155.55555555555557,142.64260143537967L186.66666666666666,137.99539506827523" style="fill: none;" fill="none"/>
                </g>
                <g>
                  <path stroke="rgb(255, 112, 67)" stroke-width="2px" d="M31.11111111111111,25.764789283275604L62.22222222222222,25.125787630677223L93.33333333333333,25.45180888200286L124.44444444444444,25.31372202067253L155.55555555555557,24.888536824090558L186.66666666666666,25.513582923174425L217.77777777777777,25.785259310402516" style="fill: none;" fill="none"/>
                </g>
                <g>
                  <path stroke="rgb(187, 187, 187)" stroke-width="2px" d="M31.11111111111111,40.32772332429886L62.22222222222222,31.532384175807238L93.33333333333333,28.424566664866052L124.44444444444444,26.25175871721961L155.55555555555557,24.853440850332056L186.66666666666666,23.440872390767478L217.77777777777777,22.194017859631035" style="fill: none;" fill="none"/>
                </g>
                <g>
                  <path stroke="rgb(0, 153, 136)" stroke-width="2px" d="M31.11111111111111,36.39786645770073L62.22222222222222,36.65347371250391L93.33333333333333,37.87933178398069L124.44444444444444,37.1985113215359L155.55555555555557,37.20601407636548" style="fill: none;" fill="none"/>
                </g>
                <g>
                  <path stroke="rgb(238, 51, 119)" stroke-width="2px" d="M31.11111111111111,53.15000921487808L62.22222222222222,43.973055984824896L93.33333333333333,40.16987561571355L124.44444444444444,37.91743540369408L155.55555555555557,35.974072599725346" style="fill: none;" fill="none"/>
                </g>
                <g>
                  <path stroke="rgb(238, 51, 119)" stroke-width="2px" d="M31.11111111111111,34.148575365543365L62.22222222222222,34.14857536554331L93.33333333333333,34.35722089239529L124.44444444444444,34.35530925498291L155.55555555555557,34.709086473371976L186.66666666666666,34.73129039080102L217.77777777777777,34.996380588866565L248.88888888888889,35.31698748656212" style="fill: none;" fill="none"/>
                </g>
                <g>
                  <path stroke="rgb(51, 187, 238)" stroke-width="2px" d="M31.11111111111111,48.55608120560646L62.22222222222222,39.706228114664555L93.33333333333333,37.100934465320734L124.44444444444444,35.85800330483302L155.55555555555557,34.90875644103925L186.66666666666666,34.13257523640894L217.77777777777777,33.34372356854252L248.88888888888889,32.25785072921153" style="fill: none;" fill="none"/>
                </g>
                <g>
                  <path stroke="rgb(204, 51, 17)" stroke-width="2px" d="M31.11111111111111,142.1152862906456L62.22222222222222,143.39330608025193L93.33333333333333,143.5758776445778L124.44444444444444,143.7503971783992L155.55555555555557,147.47568389510712L186.66666666666666,148.22945169762383L217.77777777777777,149.16344582576522" style="fill: none;" fill="none"/>
                </g>
                <g>
                  <path stroke="rgb(0, 119, 187)" stroke-width="2px" d="M31.11111111111111,159.94432255625725L62.22222222222222,154.8379305191338L93.33333333333333,150.82706341025778L124.44444444444444,147.4407820211833L155.55555555555557,143.9102115045191L186.66666666666666,138.9873323315268L217.77777777777777,134.4379166444119" style="fill: none;" fill="none"/>
                </g>
              </g>
            </g>
          </g>
          <g opacity="0.2">
            <g>
              <g>
                <g>
                  <path stroke="rgb(0, 119, 187)" stroke-width="2px" d="M31.11111111111111,39.26064133644104L62.22222222222222,39.87407237291336L93.33333333333333,37.42029547691345L124.44444444444444,37.82924070954323L155.55555555555557,41.30544662475586" style="fill: none;" fill="none"/>
                </g>
                <g>
                  <path stroke="rgb(255, 112, 67)" stroke-width="2px" d="M31.11111111111111,48.03272098302841L62.22222222222222,36.489757150411606L93.33333333333333,32.593633979558945L124.44444444444444,29.04642641544342L155.55555555555557,24.975858628749847" style="fill: none;" fill="none"/>
                </g>
                <g>
                  <path stroke="rgb(187, 187, 187)" stroke-width="2px" d="M31.11111111111111,25.15133187174797L62.22222222222222,25.355817675590515L93.33333333333333,27.809620946645737L124.44444444444444,26.173760890960693" style="fill: none;" fill="none"/>
                </g>
                <g>
                  <path stroke="rgb(0, 153, 136)" stroke-width="2px" d="M31.11111111111111,33.49497511982918L62.22222222222222,23.98729518055916L93.33333333333333,22.039233595132828L124.44444444444444,18.375712037086487" style="fill: none;" fill="none"/>
                </g>
                <g>
                  <path stroke="rgb(238, 51, 119)" stroke-width="2px" d="M31.11111111111111,38.647183924913406L62.22222222222222,37.82924070954323L93.33333333333333,38.647183924913406L124.44444444444444,43.554764091968536L155.55555555555557,44.577166736125946" style="fill: none;" fill="none"/>
                </g>
                <g>
                  <path stroke="rgb(51, 187, 238)" stroke-width="2px" d="M31.11111111111111,45.41591987013817L62.22222222222222,36.16990685462952L93.33333333333333,31.895829141139984L124.44444444444444,28.08692827820778L155.55555555555557,24.21989679336548" style="fill: none;" fill="none"/>
                </g>
                <g>
                  <path stroke="rgb(51, 187, 238)" stroke-width="2px" d="M31.11111111111111,33.739603757858276L62.22222222222222,34.35306116938591L93.33333333333333,34.762006402015686L124.44444444444444,37.01132386922836L155.55555555555557,33.53511795401573L186.66666666666666,39.056155532598495" style="fill: none;" fill="none"/>
                </g>
                <g>
                  <path stroke="rgb(204, 51, 17)" stroke-width="2px" d="M31.11111111111111,39.86252009868622L62.22222222222222,34.36725094914436L93.33333333333333,33.320530503988266L124.44444444444444,30.50019308924675L155.55555555555557,28.145085275173187L186.66666666666666,24.16173979640007" style="fill: none;" fill="none"/>
                </g>
                <g>
                  <path stroke="rgb(0, 119, 187)" stroke-width="2px" d="M31.11111111111111,149.2721839249134L62.22222222222222,149.6811555325985L93.33333333333333,149.47666972875595L124.44444444444444,153.975278288126L155.55555555555557,156.02010995149612" style="fill: none;" fill="none"/>
                </g>
                <g>
                  <path stroke="rgb(255, 112, 67)" stroke-width="2px" d="M31.11111111111111,158.63590881228447L62.22222222222222,143.40035811066628L93.33333333333333,133.68914186954498L124.44444444444444,124.76295277476311L155.55555555555557,113.74334916472435" style="fill: none;" fill="none"/>
                </g>
                <g>
                  <path stroke="rgb(0, 153, 136)" stroke-width="2px" d="M31.11111111111111,27.196163535118103L62.22222222222222,27.400649338960648L93.33333333333333,25.96927508711815L124.44444444444444,26.99167773127556L155.55555555555557,29.44548100233078L186.66666666666666,27.196163535118103" style="fill: none;" fill="none"/>
                </g>
                <g>
                  <path stroke="rgb(238, 51, 119)" stroke-width="2px" d="M31.11111111111111,35.79192593693733L62.22222222222222,24.743257015943527L93.33333333333333,22.300900518894196L124.44444444444444,19.364275485277176L155.55555555555557,15.991512537002563L186.66666666666666,13.92716333270073" style="fill: none;" fill="none"/>
                </g>
                <g>
                  <path stroke="rgb(51, 187, 238)" stroke-width="2px" d="M31.11111111111111,39.46510076522827L62.22222222222222,40.487529784440994L93.33333333333333,38.23821231722832L124.44444444444444,41.100960820913315L155.55555555555557,42.12338984012604" style="fill: none;" fill="none"/>
                </g>
                <g>
                  <path stroke="rgb(204, 51, 17)" stroke-width="2px" d="M31.11111111111111,48.96312743425369L62.22222222222222,36.257155537605286L93.33333333333333,32.70994797348976L124.44444444444444,28.26137289404869L155.55555555555557,24.568786025047302" style="fill: none;" fill="none"/>
                </g>
                <g>
                  <path stroke="rgb(204, 51, 17)" stroke-width="2px" d="M31.11111111111111,33.739603757858276L62.22222222222222,33.739603757858276L93.33333333333333,33.94408956170082L124.44444444444444,33.94408956170082L155.55555555555557,35.78443542122841L186.66666666666666,37.624781280756" style="fill: none;" fill="none"/>
                </g>
                <g>
                  <path stroke="rgb(0, 119, 187)" stroke-width="2px" d="M31.11111111111111,42.15947091579437L62.22222222222222,34.599852561950684L93.33333333333333,33.553132116794586L124.44444444444444,31.372468918561935L155.55555555555557,28.988269418478012L186.66666666666666,26.284245997667313" style="fill: none;" fill="none"/>
                </g>
                <g>
                  <path stroke="rgb(255, 112, 67)" stroke-width="2px" d="M31.11111111111111,147.63632386922836L62.22222222222222,141.91080048680305L93.33333333333333,150.09010076522827L124.44444444444444,155.61113834381104L155.55555555555557,152.95287564396858" style="fill: none;" fill="none"/>
                </g>
                <g>
                  <path stroke="rgb(187, 187, 187)" stroke-width="2px" d="M31.11111111111111,160.55490508675575L62.22222222222222,144.47614386677742L93.33333333333333,135.98609268665314L124.44444444444444,125.54800629615784L155.55555555555557,110.9521034359932" style="fill: none;" fill="none"/>
                </g>
                <g>
                  <path stroke="rgb(0, 119, 187)" stroke-width="2px" d="M31.11111111111111,27.196163535118103L62.22222222222222,24.946846067905426L93.33333333333333,25.355817675590515L124.44444444444444,26.378246694803238L155.55555555555557,25.15133187174797L186.66666666666666,25.764789283275604L217.77777777777777,24.946846067905426" style="fill: none;" fill="none"/>
                </g>
                <g>
                  <path stroke="rgb(255, 112, 67)" stroke-width="2px" d="M31.11111111111111,37.50738590955734L62.22222222222222,26.284245997667313L93.33333333333333,24.68510001897812L124.44444444444444,23.46393495798111L155.55555555555557,21.92291960120201L186.66666666666666,20.643597543239594L217.77777777777777,18.201267421245575" style="fill: none;" fill="none"/>
                </g>
                <g>
                  <path stroke="rgb(187, 187, 187)" stroke-width="2px" d="M31.11111111111111,39.87407237291336L62.22222222222222,37.01132386922836L93.33333333333333,37.624781280756L124.44444444444444,37.82924070954323L155.55555555555557,37.21580967307091L186.66666666666666,39.26064133644104L217.77777777777777,39.46510076522827L248.88888888888889,43.14579248428345" style="fill: none;" fill="none"/>
                </g>
                <g>
                  <path stroke="rgb(0, 153, 136)" stroke-width="2px" d="M31.11111111111111,48.87590512633324L62.22222222222222,38.641328662633896L93.33333333333333,36.693267077207565L124.44444444444444,35.12321278452873L155.55555555555557,33.058837205171585L186.66666666666666,30.936331003904343L217.77777777777777,27.650790363550186L248.88888888888889,23.812824189662933" style="fill: none;" fill="none"/>
                </g>
                <g>
                  <path stroke="rgb(0, 153, 136)" stroke-width="2px" d="M31.11111111111111,33.94408956170082L62.22222222222222,33.33063215017319L93.33333333333333,33.53511795401573L124.44444444444444,34.35306116938591L155.55555555555557,32.9216605424881L186.66666666666666,34.762006402015686L217.77777777777777,36.602352261543274" style="fill: none;" fill="none"/>
                </g>
                <g>
                  <path stroke="rgb(238, 51, 119)" stroke-width="2px" d="M31.11111111111111,44.36919942498207L62.22222222222222,34.8905847966671L93.33333333333333,34.541695564985275L124.44444444444444,34.01833534240723L155.55555555555557,33.582197427749634L186.66666666666666,32.535476982593536L217.77777777777777,31.110775619745255" style="fill: none;" fill="none"/>
                </g>
                <g>
                  <path stroke="rgb(51, 187, 238)" stroke-width="2px" d="M31.11111111111111,145.18252059817314L62.22222222222222,148.45424070954323L93.33333333333333,142.93322950601578L124.44444444444444,150.29458656907082L155.55555555555557,150.29458656907082L186.66666666666666,150.49907237291336" style="fill: none;" fill="none"/>
                </g>
                <g>
                  <path stroke="rgb(204, 51, 17)" stroke-width="2px" d="M31.11111111111111,160.84566369652748L62.22222222222222,150.8727541565895L93.33333333333333,148.45948934555054L124.44444444444444,141.80121213197708L155.55555555555557,136.91652551293373L186.66666666666666,131.56663566827774" style="fill: none;" fill="none"/>
                </g>
                <g>
                  <path stroke="rgb(255, 112, 67)" stroke-width="2px" d="M31.11111111111111,25.764789283275604L62.22222222222222,24.742386639118195L93.33333333333333,25.764789283275604L124.44444444444444,25.15133187174797L155.55555555555557,24.333415031433105L186.66666666666666,26.378246694803238L217.77777777777777,26.173760890960693" style="fill: none;" fill="none"/>
                </g>
                <g>
                  <path stroke="rgb(187, 187, 187)" stroke-width="2px" d="M31.11111111111111,40.32772332429886L62.22222222222222,26.255180686712265L93.33333333333333,25.441061854362488L124.44444444444444,23.69653657078743L155.55555555555557,23.027797043323517L186.66666666666666,21.48678168654442L217.77777777777777,20.410995930433273" style="fill: none;" fill="none"/>
                </g>
                <g>
                  <path stroke="rgb(0, 153, 136)" stroke-width="2px" d="M31.11111111111111,36.39786645770073L62.22222222222222,36.80683806538582L93.33333333333333,39.056155532598495L124.44444444444444,36.39786645770073L155.55555555555557,37.21580967307091" style="fill: none;" fill="none"/>
                </g>
                <g>
                  <path stroke="rgb(238, 51, 119)" stroke-width="2px" d="M31.11111111111111,53.15000921487808L62.22222222222222,38.466884046792984L93.33333333333333,36.51882246136665L124.44444444444444,35.26856571435928L155.55555555555557,33.43681812286377" style="fill: none;" fill="none"/>
                </g>
                <g>
                  <path stroke="rgb(238, 51, 119)" stroke-width="2px" d="M31.11111111111111,34.148575365543365L62.22222222222222,34.148575365543365L93.33333333333333,34.55752059817314L124.44444444444444,34.35306116938591L155.55555555555557,35.170978009700775L186.66666666666666,34.762006402015686L217.77777777777777,35.37546381354332L248.88888888888889,35.78443542122841" style="fill: none;" fill="none"/>
                </g>
                <g>
                  <path stroke="rgb(51, 187, 238)" stroke-width="2px" d="M31.11111111111111,48.55608120560646L62.22222222222222,34.39631626009941L93.33333333333333,34.599852561950684L124.44444444444444,34.39631626009941L155.55555555555557,33.66941973567009L186.66666666666666,33.058837205171585L217.77777777777777,32.21565306186676L248.88888888888889,30.67463770508766" style="fill: none;" fill="none"/>
                </g>
                <g>
                  <path stroke="rgb(204, 51, 17)" stroke-width="2px" d="M31.11111111111111,142.1152862906456L62.22222222222222,144.16011795401573L93.33333333333333,143.75114634633064L124.44444444444444,143.9556321501732L155.55555555555557,152.33941823244095L186.66666666666666,149.2721839249134L217.77777777777777,150.49907237291336" style="fill: none;" fill="none"/>
                </g>
                <g>
                  <path stroke="rgb(0, 119, 187)" stroke-width="2px" d="M31.11111111111111,159.94432255625725L62.22222222222222,151.77409529685974L93.33333333333333,146.97663098573685L124.44444444444444,143.45851510763168L155.55555555555557,139.30069863796234L186.66666666666666,132.17721819877625L217.77777777777777,127.93217942118645" style="fill: none;" fill="none"/>
                </g>
              </g>
            </g>
          </g>
        </g>
      </g>
      <g transform="translate(50, 177)" clip-path="url(#clip_1)">
        <clipPath id="clip_1">
          <rect width="280" height="23"/>
        </clipPath>
        <g>
          <g>
            <line x1="0" y1="0" x2="0" y2="5" style="visibility: inherit;" fill="rgb(0, 0, 0)" stroke="rgb(204, 204, 204)" stroke-width="1px"/>
            <line x1="31.11111111111111" y1="0" x2="31.11111111111111" y2="5" style="visibility: inherit;" fill="rgb(0, 0, 0)" stroke="rgb(204, 204, 204)" stroke-width="1px"/>
            <line x1="62.22222222222222" y1="0" x2="62.22222222222222" y2="5" style="visibility: inherit;" fill="rgb(0, 0, 0)" stroke="rgb(204, 204, 204)" stroke-width="1px"/>
            <line x1="93.33333333333333" y1="0" x2="93.33333333333333" y2="5" style="visibility: inherit;" fill="rgb(0, 0, 0)" stroke="rgb(204, 204, 204)" stroke-width="1px"/>
            <line x1="124.44444444444444" y1="0" x2="124.44444444444444" y2="5" style="visibility: inherit;" fill="rgb(0, 0, 0)" stroke="rgb(204, 204, 204)" stroke-width="1px"/>
            <line x1="155.55555555555557" y1="0" x2="155.55555555555557" y2="5" style="visibility: inherit;" fill="rgb(0, 0, 0)" stroke="rgb(204, 204, 204)" stroke-width="1px"/>
            <line x1="186.66666666666666" y1="0" x2="186.66666666666666" y2="5" style="visibility: inherit;" fill="rgb(0, 0, 0)" stroke="rgb(204, 204, 204)" stroke-width="1px"/>
            <line x1="217.77777777777777" y1="0" x2="217.77777777777777" y2="5" style="visibility: inherit;" fill="rgb(0, 0, 0)" stroke="rgb(204, 204, 204)" stroke-width="1px"/>
            <line x1="248.88888888888889" y1="0" x2="248.88888888888889" y2="5" style="visibility: inherit;" fill="rgb(0, 0, 0)" stroke="rgb(204, 204, 204)" stroke-width="1px"/>
            <line x1="280" y1="0" x2="280" y2="5" style="visibility: inherit;" fill="rgb(0, 0, 0)" stroke="rgb(204, 204, 204)" stroke-width="1px"/>
          </g>
          <g transform="translate(0, 8)">
            <text x="0" y="0" dx="0em" dy="0.95em" style="text-anchor: middle; visibility: hidden; font-family: Roboto, sans-serif; font-size: 12px; font-weight: 200; white-space: pre;" fill="rgb(33, 33, 33)" stroke="none" stroke-width="1px">-1</text>
            <text x="31.11111111111111" y="0" dx="0em" dy="0.95em" style="text-anchor: middle; visibility: inherit; font-family: Roboto, sans-serif; font-size: 12px; font-weight: 200; white-space: pre;" fill="rgb(33, 33, 33)" stroke="none" stroke-width="1px">0</text>
            <text x="62.22222222222222" y="0" dx="0em" dy="0.95em" style="text-anchor: middle; visibility: inherit; font-family: Roboto, sans-serif; font-size: 12px; font-weight: 200; white-space: pre;" fill="rgb(33, 33, 33)" stroke="none" stroke-width="1px">1</text>
            <text x="93.33333333333333" y="0" dx="0em" dy="0.95em" style="text-anchor: middle; visibility: inherit; font-family: Roboto, sans-serif; font-size: 12px; font-weight: 200; white-space: pre;" fill="rgb(33, 33, 33)" stroke="none" stroke-width="1px">2</text>
            <text x="124.44444444444444" y="0" dx="0em" dy="0.95em" style="text-anchor: middle; visibility: inherit; font-family: Roboto, sans-serif; font-size: 12px; font-weight: 200; white-space: pre;" fill="rgb(33, 33, 33)" stroke="none" stroke-width="1px">3</text>
            <text x="155.55555555555557" y="0" dx="0em" dy="0.95em" style="text-anchor: middle; visibility: inherit; font-family: Roboto, sans-serif; font-size: 12px; font-weight: 200; white-space: pre;" fill="rgb(33, 33, 33)" stroke="none" stroke-width="1px">4</text>
            <text x="186.66666666666666" y="0" dx="0em" dy="0.95em" style="text-anchor: middle; visibility: inherit; font-family: Roboto, sans-serif; font-size: 12px; font-weight: 200; white-space: pre;" fill="rgb(33, 33, 33)" stroke="none" stroke-width="1px">5</text>
            <text x="217.77777777777777" y="0" dx="0em" dy="0.95em" style="text-anchor: middle; visibility: inherit; font-family: Roboto, sans-serif; font-size: 12px; font-weight: 200; white-space: pre;" fill="rgb(33, 33, 33)" stroke="none" stroke-width="1px">6</text>
            <text x="248.88888888888889" y="0" dx="0em" dy="0.95em" style="text-anchor: middle; visibility: inherit; font-family: Roboto, sans-serif; font-size: 12px; font-weight: 200; white-space: pre;" fill="rgb(33, 33, 33)" stroke="none" stroke-width="1px">7</text>
            <text x="280" y="0" dx="0em" dy="0.95em" style="text-anchor: middle; visibility: hidden; font-family: Roboto, sans-serif; font-size: 12px; font-weight: 200; white-space: pre;" fill="rgb(33, 33, 33)" stroke="none" stroke-width="1px">8</text>
          </g>
          <line x1="0" y1="0" x2="280" y2="0" fill="rgb(0, 0, 0)" stroke="rgb(204, 204, 204)" stroke-width="1px"/>
        </g>
      </g>
    </g>
  </g>
  <text style="white-space: pre; fill: rgb(51, 51, 51); font-family: Arial, sans-serif; font-size: 12.8px;" x="282.112" y="31.572">Epoch Accuracy</text>
  <text style="white-space: pre; fill: rgb(51, 51, 51); font-family: Arial, sans-serif; font-size: 12.8px;" x="239.25" y="257.548" transform="matrix(1, 0, 0, 1, 60.787037, -5.250926)">Epoch x10<tspan x="239.25" dy="1em">​</tspan></text>
  <text style="white-space: pre; fill: rgb(51, 51, 51); font-family: Arial, sans-serif; font-size: 12.8px;" x="7.857" y="123.007" transform="matrix(1, 0, 0, 1, 76.256197, 2.420187)">Accuracy</text>
  <g transform="matrix(1, 0, 0, 1, 498.972719, 36.548311)">
    <g>
      <g>
        <g>
          <g>
            <line x1="50" y1="177" x2="45" y2="177" style="visibility: inherit;" fill="rgb(0, 0, 0)" stroke="rgb(204, 204, 204)" stroke-width="1px"/>
            <line x1="50" y1="162.25" x2="45" y2="162.25" style="visibility: inherit;" fill="rgb(0, 0, 0)" stroke="rgb(204, 204, 204)" stroke-width="1px"/>
            <line x1="50" y1="147.5" x2="45" y2="147.5" style="visibility: inherit;" fill="rgb(0, 0, 0)" stroke="rgb(204, 204, 204)" stroke-width="1px"/>
            <line x1="50" y1="132.75" x2="45" y2="132.75" style="visibility: inherit;" fill="rgb(0, 0, 0)" stroke="rgb(204, 204, 204)" stroke-width="1px"/>
            <line x1="50" y1="118.00000000000001" x2="45" y2="118.00000000000001" style="visibility: inherit;" fill="rgb(0, 0, 0)" stroke="rgb(204, 204, 204)" stroke-width="1px"/>
            <line x1="50" y1="103.25" x2="45" y2="103.25" style="visibility: inherit;" fill="rgb(0, 0, 0)" stroke="rgb(204, 204, 204)" stroke-width="1px"/>
            <line x1="50" y1="88.49999999999999" x2="45" y2="88.49999999999999" style="visibility: inherit;" fill="rgb(0, 0, 0)" stroke="rgb(204, 204, 204)" stroke-width="1px"/>
            <line x1="50" y1="73.75" x2="45" y2="73.75" style="visibility: inherit;" fill="rgb(0, 0, 0)" stroke="rgb(204, 204, 204)" stroke-width="1px"/>
            <line x1="50" y1="58.999999999999986" x2="45" y2="58.999999999999986" style="visibility: inherit;" fill="rgb(0, 0, 0)" stroke="rgb(204, 204, 204)" stroke-width="1px"/>
            <line x1="50" y1="44.24999999999998" x2="45" y2="44.24999999999998" style="visibility: inherit;" fill="rgb(0, 0, 0)" stroke="rgb(204, 204, 204)" stroke-width="1px"/>
            <line x1="50" y1="29.499999999999993" x2="45" y2="29.499999999999993" style="visibility: inherit;" fill="rgb(0, 0, 0)" stroke="rgb(204, 204, 204)" stroke-width="1px"/>
            <line x1="50" y1="14.749999999999988" x2="45" y2="14.749999999999988" style="visibility: inherit;" fill="rgb(0, 0, 0)" stroke="rgb(204, 204, 204)" stroke-width="1px"/>
            <line x1="50" y1="0" x2="45" y2="0" style="visibility: inherit;" fill="rgb(0, 0, 0)" stroke="rgb(204, 204, 204)" stroke-width="1px"/>
          </g>
          <g transform="translate(40, 0)">
            <text x="0" y="177" dx="0em" dy="0.3em" style="text-anchor: end; visibility: hidden; font-family: Roboto, sans-serif; font-size: 12px; font-weight: 200; white-space: pre;" fill="rgb(33, 33, 33)" stroke="none" stroke-width="1px">0.1</text>
            <text x="0" y="162.25" dx="0em" dy="0.3em" style="text-anchor: end; visibility: inherit; font-family: Roboto, sans-serif; font-size: 12px; font-weight: 200; white-space: pre;" fill="rgb(33, 33, 33)" stroke="none" stroke-width="1px">0.15</text>
            <text x="0" y="147.5" dx="0em" dy="0.3em" style="text-anchor: end; visibility: hidden; font-family: Roboto, sans-serif; font-size: 12px; font-weight: 200; white-space: pre;" fill="rgb(33, 33, 33)" stroke="none" stroke-width="1px">0.2</text>
            <text x="0" y="132.75" dx="0em" dy="0.3em" style="text-anchor: end; visibility: inherit; font-family: Roboto, sans-serif; font-size: 12px; font-weight: 200; white-space: pre;" fill="rgb(33, 33, 33)" stroke="none" stroke-width="1px">0.25</text>
            <text x="0" y="118.00000000000001" dx="0em" dy="0.3em" style="text-anchor: end; visibility: hidden; font-family: Roboto, sans-serif; font-size: 12px; font-weight: 200; white-space: pre;" fill="rgb(33, 33, 33)" stroke="none" stroke-width="1px">0.3</text>
            <text x="0" y="103.25" dx="0em" dy="0.3em" style="text-anchor: end; visibility: inherit; font-family: Roboto, sans-serif; font-size: 12px; font-weight: 200; white-space: pre;" fill="rgb(33, 33, 33)" stroke="none" stroke-width="1px">0.35</text>
            <text x="0" y="88.49999999999999" dx="0em" dy="0.3em" style="text-anchor: end; visibility: hidden; font-family: Roboto, sans-serif; font-size: 12px; font-weight: 200; white-space: pre;" fill="rgb(33, 33, 33)" stroke="none" stroke-width="1px">0.4</text>
            <text x="0" y="73.75" dx="0em" dy="0.3em" style="text-anchor: end; visibility: inherit; font-family: Roboto, sans-serif; font-size: 12px; font-weight: 200; white-space: pre;" fill="rgb(33, 33, 33)" stroke="none" stroke-width="1px">0.45</text>
            <text x="0" y="58.999999999999986" dx="0em" dy="0.3em" style="text-anchor: end; visibility: hidden; font-family: Roboto, sans-serif; font-size: 12px; font-weight: 200; white-space: pre;" fill="rgb(33, 33, 33)" stroke="none" stroke-width="1px">0.5</text>
            <text x="0" y="44.24999999999998" dx="0em" dy="0.3em" style="text-anchor: end; visibility: inherit; font-family: Roboto, sans-serif; font-size: 12px; font-weight: 200; white-space: pre;" fill="rgb(33, 33, 33)" stroke="none" stroke-width="1px">0.55</text>
            <text x="0" y="29.499999999999993" dx="0em" dy="0.3em" style="text-anchor: end; visibility: hidden; font-family: Roboto, sans-serif; font-size: 12px; font-weight: 200; white-space: pre;" fill="rgb(33, 33, 33)" stroke="none" stroke-width="1px">0.6</text>
            <text x="0" y="14.749999999999988" dx="0em" dy="0.3em" style="text-anchor: end; visibility: inherit; font-family: Roboto, sans-serif; font-size: 12px; font-weight: 200; white-space: pre;" fill="rgb(33, 33, 33)" stroke="none" stroke-width="1px">0.65</text>
            <text x="0" y="0" dx="0em" dy="0.3em" style="text-anchor: end; visibility: hidden; font-family: Roboto, sans-serif; font-size: 12px; font-weight: 200; white-space: pre;" fill="rgb(33, 33, 33)" stroke="none" stroke-width="1px">0.7</text>
          </g>
          <line x1="50" y1="0" x2="50" y2="177" fill="rgb(0, 0, 0)" stroke="rgb(204, 204, 204)" stroke-width="1px"/>
        </g>
      </g>
      <g transform="translate(50, 0)" clip-path="url(#clip-1)">
        <clipPath id="clip-1">
          <rect width="280" height="177"/>
        </clipPath>
        <g>
          <g>
            <g>
              <line x1="0" y1="0" x2="0" y2="177" fill="rgb(0, 0, 0)" stroke="rgb(66, 66, 66)" stroke-width="1px" opacity="0.25"/>
              <line x1="31.11111111111111" y1="0" x2="31.11111111111111" y2="177" fill="rgb(0, 0, 0)" stroke="rgb(66, 66, 66)" stroke-width="1px" opacity="0.25"/>
              <line x1="62.22222222222222" y1="0" x2="62.22222222222222" y2="177" fill="rgb(0, 0, 0)" stroke="rgb(66, 66, 66)" stroke-width="1px" opacity="0.25"/>
              <line x1="93.33333333333333" y1="0" x2="93.33333333333333" y2="177" fill="rgb(0, 0, 0)" stroke="rgb(66, 66, 66)" stroke-width="1px" opacity="0.25"/>
              <line x1="124.44444444444444" y1="0" x2="124.44444444444444" y2="177" fill="rgb(0, 0, 0)" stroke="rgb(66, 66, 66)" stroke-width="1px" opacity="0.25"/>
              <line x1="155.55555555555557" y1="0" x2="155.55555555555557" y2="177" fill="rgb(0, 0, 0)" stroke="rgb(66, 66, 66)" stroke-width="1px" opacity="0.25"/>
              <line x1="186.66666666666666" y1="0" x2="186.66666666666666" y2="177" fill="rgb(0, 0, 0)" stroke="rgb(66, 66, 66)" stroke-width="1px" opacity="0.25"/>
              <line x1="217.77777777777777" y1="0" x2="217.77777777777777" y2="177" fill="rgb(0, 0, 0)" stroke="rgb(66, 66, 66)" stroke-width="1px" opacity="0.25"/>
              <line x1="248.88888888888889" y1="0" x2="248.88888888888889" y2="177" fill="rgb(0, 0, 0)" stroke="rgb(66, 66, 66)" stroke-width="1px" opacity="0.25"/>
              <line x1="280" y1="0" x2="280" y2="177" fill="rgb(0, 0, 0)" stroke="rgb(66, 66, 66)" stroke-width="1px" opacity="0.25"/>
            </g>
            <g>
              <line x1="0" y1="177" x2="280" y2="177" fill="rgb(0, 0, 0)" stroke="rgb(66, 66, 66)" stroke-width="1px" opacity="0.25"/>
              <line x1="0" y1="162.25" x2="280" y2="162.25" fill="rgb(0, 0, 0)" stroke="rgb(66, 66, 66)" stroke-width="1px" opacity="0.25"/>
              <line x1="0" y1="147.5" x2="280" y2="147.5" fill="rgb(0, 0, 0)" stroke="rgb(66, 66, 66)" stroke-width="1px" opacity="0.25"/>
              <line x1="0" y1="132.75" x2="280" y2="132.75" fill="rgb(0, 0, 0)" stroke="rgb(66, 66, 66)" stroke-width="1px" opacity="0.25"/>
              <line x1="0" y1="118.00000000000001" x2="280" y2="118.00000000000001" fill="rgb(0, 0, 0)" stroke="rgb(66, 66, 66)" stroke-width="1px" opacity="0.25"/>
              <line x1="0" y1="103.25" x2="280" y2="103.25" fill="rgb(0, 0, 0)" stroke="rgb(66, 66, 66)" stroke-width="1px" opacity="0.25"/>
              <line x1="0" y1="88.49999999999999" x2="280" y2="88.49999999999999" fill="rgb(0, 0, 0)" stroke="rgb(66, 66, 66)" stroke-width="1px" opacity="0.25"/>
              <line x1="0" y1="73.75" x2="280" y2="73.75" fill="rgb(0, 0, 0)" stroke="rgb(66, 66, 66)" stroke-width="1px" opacity="0.25"/>
              <line x1="0" y1="58.999999999999986" x2="280" y2="58.999999999999986" fill="rgb(0, 0, 0)" stroke="rgb(66, 66, 66)" stroke-width="1px" opacity="0.25"/>
              <line x1="0" y1="44.24999999999998" x2="280" y2="44.24999999999998" fill="rgb(0, 0, 0)" stroke="rgb(66, 66, 66)" stroke-width="1px" opacity="0.25"/>
              <line x1="0" y1="29.499999999999993" x2="280" y2="29.499999999999993" fill="rgb(0, 0, 0)" stroke="rgb(66, 66, 66)" stroke-width="1px" opacity="0.25"/>
              <line x1="0" y1="14.749999999999988" x2="280" y2="14.749999999999988" fill="rgb(0, 0, 0)" stroke="rgb(66, 66, 66)" stroke-width="1px" opacity="0.25"/>
              <line x1="0" y1="0" x2="280" y2="0" fill="rgb(0, 0, 0)" stroke="rgb(66, 66, 66)" stroke-width="1px" opacity="0.25"/>
            </g>
          </g>
        </g>
        <g>
          <g>
            <line x1="0" y1="206.5" x2="280" y2="206.5" fill="rgb(0, 0, 0)" stroke="rgb(153, 153, 153)" stroke-width="1.5px"/>
          </g>
        </g>
        <g>
          <g>
            <line x1="31.11111111111111" y1="0" x2="31.11111111111111" y2="177" fill="rgb(0, 0, 0)" stroke="rgb(153, 153, 153)" stroke-width="1.5px"/>
          </g>
        </g>
        <g>
          <g>
            <g>
              <g>
                <g>
                  <path stroke="rgb(0, 119, 187)" stroke-width="2px" d="M31.11111111111111,133.81988213956356L62.22222222222222,135.63635417819023L93.33333333333333,135.65629694960555L124.44444444444444,134.75034180957385L155.55555555555557,131.41692363610912" style="fill: none;" fill="none"/>
                </g>
                <g>
                  <path stroke="rgb(255, 112, 67)" stroke-width="2px" d="M31.11111111111111,118.99182164669037L62.22222222222222,131.15668400749564L93.33333333333333,138.41689513319608L124.44444444444444,144.40096045608686L155.55555555555557,150.4108415769567" style="fill: none;" fill="none"/>
                </g>
                <g>
                  <path stroke="rgb(187, 187, 187)" stroke-width="2px" d="M31.11111111111111,155.91062182188034L62.22222222222222,155.77243026904762L93.33333333333333,155.21030713678624L124.44444444444444,154.56331822046025" style="fill: none;" fill="none"/>
                </g>
                <g>
                  <path stroke="rgb(0, 153, 136)" stroke-width="2px" d="M31.11111111111111,141.1748036891222L62.22222222222222,151.19639608636498L93.33333333333333,157.30247762860083L124.44444444444444,162.7046468392124" style="fill: none;" fill="none"/>
                </g>
                <g>
                  <path stroke="rgb(238, 51, 119)" stroke-width="2px" d="M31.11111111111111,134.90797185897827L62.22222222222222,135.99703086167574L93.33333333333333,134.8039577016417L124.44444444444444,132.1833243246793L155.55555555555557,130.20925570918942" style="fill: none;" fill="none"/>
                </g>
                <g>
                  <path stroke="rgb(51, 187, 238)" stroke-width="2px" d="M31.11111111111111,123.56064060330391L62.22222222222222,133.33969513513148L93.33333333333333,139.85696149085248L124.44444444444444,145.38494128690047L155.55555555555557,151.49195094549307" style="fill: none;" fill="none"/>
                </g>
                <g>
                  <path stroke="rgb(51, 187, 238)" stroke-width="2px" d="M31.11111111111111,130.45104467868805L62.22222222222222,130.7325928993523L93.33333333333333,130.87332994779763L124.44444444444444,127.04088917451305L155.55555555555557,127.63449635820452L186.66666666666666,124.49368298893631" style="fill: none;" fill="none"/>
                </g>
                <g>
                  <path stroke="rgb(204, 51, 17)" stroke-width="2px" d="M31.11111111111111,121.25138142704962L62.22222222222222,128.76075255312026L93.33333333333333,133.18900687475593L124.44444444444444,137.86509721139996L155.55555555555557,142.51373775573262L186.66666666666666,147.95972735641644" style="fill: none;" fill="none"/>
                </g>
                <g>
                  <path stroke="rgb(0, 119, 187)" stroke-width="2px" d="M31.11111111111111,21.798898816108682L62.22222222222222,22.989084176719203L93.33333333333333,22.571065341939736L124.44444444444444,20.986634059644803L155.55555555555557,18.62834579054469" style="fill: none;" fill="none"/>
                </g>
                <g>
                  <path stroke="rgb(255, 112, 67)" stroke-width="2px" d="M31.11111111111111,15.401857733726494L62.22222222222222,21.178390473127358L93.33333333333333,26.159943160962086L124.44444444444444,32.29596597153475L155.55555555555557,39.91822006919996" style="fill: none;" fill="none"/>
                </g>
                <g>
                  <path stroke="rgb(0, 153, 136)" stroke-width="2px" d="M31.11111111111111,154.179930254817L62.22222222222222,153.439351670444L93.33333333333333,154.39305998962755L124.44444444444444,154.2894437833525L155.55555555555557,152.68312524407997L186.66666666666666,150.69534937246522" style="fill: none;" fill="none"/>
                </g>
                <g>
                  <path stroke="rgb(238, 51, 119)" stroke-width="2px" d="M31.11111111111111,138.42051380872726L62.22222222222222,149.78601967543364L93.33333333333333,156.24418185347196L124.44444444444444,161.39467745181173L155.55555555555557,166.22868277441185L186.66666666666666,170.46257287802658" style="fill: none;" fill="none"/>
                </g>
                <g>
                  <path stroke="rgb(51, 187, 238)" stroke-width="2px" d="M31.11111111111111,134.3597355633974L62.22222222222222,134.997270103544L93.33333333333333,134.944956773702L124.44444444444444,133.87528098774527L155.55555555555557,129.5288467541761" style="fill: none;" fill="none"/>
                </g>
                <g>
                  <path stroke="rgb(204, 51, 17)" stroke-width="2px" d="M31.11111111111111,117.97843047976495L62.22222222222222,130.36678571812809L93.33333333333333,137.65033994523844L124.44444444444444,143.8300664365182L155.55555555555557,149.87338416491383" style="fill: none;" fill="none"/>
                </g>
                <g>
                  <path stroke="rgb(204, 51, 17)" stroke-width="2px" d="M31.11111111111111,130.45298764109612L62.22222222222222,131.07141125574708L93.33333333333333,131.4530696321507L124.44444444444444,131.0995753543342L155.55555555555557,129.06106679303875L186.66666666666666,127.75071491770021" style="fill: none;" fill="none"/>
                </g>
                <g>
                  <path stroke="rgb(0, 119, 187)" stroke-width="2px" d="M31.11111111111111,118.51175168156622L62.22222222222222,127.43336140736936L93.33333333333333,132.41833825470232L124.44444444444444,136.8125080416965L155.55555555555557,141.2388551265808L186.66666666666666,146.1397892531872" style="fill: none;" fill="none"/>
                </g>
                <g>
                  <path stroke="rgb(255, 112, 67)" stroke-width="2px" d="M31.11111111111111,22.09549510478972L62.22222222222222,23.32025376707314L93.33333333333333,23.52068288107307L124.44444444444444,20.59063432475222L155.55555555555557,18.87718858646898" style="fill: none;" fill="none"/>
                </g>
                <g>
                  <path stroke="rgb(187, 187, 187)" stroke-width="2px" d="M31.11111111111111,14.749602615833275L62.22222222222222,20.773126758635023L93.33333333333333,26.063959490279753L124.44444444444444,32.03324553238995L155.55555555555557,39.70741553301617" style="fill: none;" fill="none"/>
                </g>
                <g>
                  <path stroke="rgb(0, 119, 187)" stroke-width="2px" d="M31.11111111111111,153.4782966375351L62.22222222222222,154.71102825924754L93.33333333333333,156.38593566478514L124.44444444444444,157.13625903854913L155.55555555555557,156.9185444111939L186.66666666666666,156.8214152695593L217.77777777777777,156.09380087499088" style="fill: none;" fill="none"/>
                </g>
                <g>
                  <path stroke="rgb(255, 112, 67)" stroke-width="2px" d="M31.11111111111111,135.68595246970654L62.22222222222222,147.14980432391167L93.33333333333333,152.3653167604792L124.44444444444444,156.45389517889743L155.55555555555557,159.8181275313075L186.66666666666666,162.949249818677L217.77777777777777,166.05438993367002" style="fill: none;" fill="none"/>
                </g>
                <g>
                  <path stroke="rgb(187, 187, 187)" stroke-width="2px" d="M31.11111111111111,134.75561195611954L62.22222222222222,136.1336866170168L93.33333333333333,136.12307379714082L124.44444444444444,136.41105660549638L155.55555555555557,137.58376571276509L186.66666666666666,137.0344474759697L217.77777777777777,134.6695920247698L248.88888888888889,130.64594617918522" style="fill: none;" fill="none"/>
                </g>
                <g>
                  <path stroke="rgb(0, 153, 136)" stroke-width="2px" d="M31.11111111111111,116.79354870319365L62.22222222222222,127.81070602685212L93.33333333333333,133.33854644091764L124.44444444444444,137.48990851027125L155.55555555555557,140.8565931768363L186.66666666666666,144.74567508766734L217.77777777777777,148.99191122379506L248.88888888888889,153.9757513704128" style="fill: none;" fill="none"/>
                </g>
                <g>
                  <path stroke="rgb(0, 153, 136)" stroke-width="2px" d="M31.11111111111111,129.2794735133648L62.22222222222222,129.87374746799466L93.33333333333333,130.69392646271353L124.44444444444444,131.10549810572581L155.55555555555557,131.23595089512432L186.66666666666666,130.71470726539096L217.77777777777777,129.9062647028524" style="fill: none;" fill="none"/>
                </g>
                <g>
                  <path stroke="rgb(238, 51, 119)" stroke-width="2px" d="M31.11111111111111,114.19388258457185L62.22222222222222,124.48763807862997L93.33333333333333,129.1500447474572L124.44444444444444,132.1894637167673L155.55555555555557,134.80936966341127L186.66666666666666,137.21215418589557L217.77777777777777,140.071770085932" style="fill: none;" fill="none"/>
                </g>
                <g>
                  <path stroke="rgb(51, 187, 238)" stroke-width="2px" d="M31.11111111111111,21.400037646293626L62.22222222222222,21.433841675519904L93.33333333333333,22.76776906908774L124.44444444444444,22.32381717093727L155.55555555555557,22.219090920202802L186.66666666666666,21.473115825587474" style="fill: none;" fill="none"/>
                </g>
                <g>
                  <path stroke="rgb(204, 51, 17)" stroke-width="2px" d="M31.11111111111111,13.420440495014171L62.22222222222222,17.53394906967877L93.33333333333333,20.577602418101563L124.44444444444444,23.384747629656523L155.55555555555557,26.50547351521142L186.66666666666666,29.99988258654848" style="fill: none;" fill="none"/>
                </g>
                <g>
                  <path stroke="rgb(255, 112, 67)" stroke-width="2px" d="M31.11111111111111,154.33022850751877L62.22222222222222,154.68122554570436L93.33333333333333,155.3004483738724L124.44444444444444,156.496691146482L155.55555555555557,156.32680497247674L186.66666666666666,156.19211748779165L217.77777777777777,156.38137662974694" style="fill: none;" fill="none"/>
                </g>
                <g>
                  <path stroke="rgb(187, 187, 187)" stroke-width="2px" d="M31.11111111111111,130.9802425801754L62.22222222222222,145.32410760968924L93.33333333333333,151.41479977813304L124.44444444444444,155.35206282741447L155.55555555555557,158.54255354380666L186.66666666666666,161.41740420126587L217.77777777777777,163.96509092716016" style="fill: none;" fill="none"/>
                </g>
                <g>
                  <path stroke="rgb(0, 153, 136)" stroke-width="2px" d="M31.11111111111111,134.51224492490292L62.22222222222222,136.39828117191792L93.33333333333333,136.65862046151744L124.44444444444444,136.77136295540805L155.55555555555557,137.00085677129994" style="fill: none;" fill="none"/>
                </g>
                <g>
                  <path stroke="rgb(238, 51, 119)" stroke-width="2px" d="M31.11111111111111,114.8625517785549L62.22222222222222,126.85539383068682L93.33333333333333,132.57523780696246L124.44444444444444,136.3572709345642L155.55555555555557,139.9446516224053" style="fill: none;" fill="none"/>
                </g>
                <g>
                  <path stroke="rgb(238, 51, 119)" stroke-width="2px" d="M31.11111111111111,128.68465447425842L62.22222222222222,128.7453061118722L93.33333333333333,129.34531731386573L124.44444444444444,129.98974328049843L155.55555555555557,130.5137141041256L186.66666666666666,130.04529371149L217.77777777777777,130.51210984023473L248.88888888888889,129.0645427739743" style="fill: none;" fill="none"/>
                </g>
                <g>
                  <path stroke="rgb(51, 187, 238)" stroke-width="2px" d="M31.11111111111111,110.3277742266655L62.22222222222222,122.97872885689141L93.33333333333333,128.35266375845794L124.44444444444444,131.46879249728997L155.55555555555557,134.10577546069393L186.66666666666666,136.5209874917266L217.77777777777777,138.79667817195227L248.88888888888889,141.53220360560138" style="fill: none;" fill="none"/>
                </g>
                <g>
                  <path stroke="rgb(204, 51, 17)" stroke-width="2px" d="M31.11111111111111,21.138414680957773L62.22222222222222,21.57977925240995L93.33333333333333,23.237072449557626L124.44444444444444,24.123241227120154L155.55555555555557,22.923324066719022L186.66666666666666,23.422096814940193L217.77777777777777,23.026420156376577" style="fill: none;" fill="none"/>
                </g>
                <g>
                  <path stroke="rgb(0, 119, 187)" stroke-width="2px" d="M31.11111111111111,13.542785584926618L62.22222222222222,17.43190837651489L93.33333333333333,20.122802088455266L124.44444444444444,22.781574421069198L155.55555555555557,25.480413951822488L186.66666666666666,28.461463982865542L217.77777777777777,31.956502198161992" style="fill: none;" fill="none"/>
                </g>
              </g>
            </g>
          </g>
          <g opacity="0.2">
            <g>
              <g>
                <g>
                  <path stroke="rgb(0, 119, 187)" stroke-width="2px" d="M31.11111111111111,133.81988213956356L62.22222222222222,136.72623740136623L93.33333333333333,135.67544201016426L124.44444444444444,133.68493856489658L155.55555555555557,127.06481286883353" style="fill: none;" fill="none"/>
                </g>
                <g>
                  <path stroke="rgb(255, 112, 67)" stroke-width="2px" d="M31.11111111111111,118.99182164669037L62.22222222222222,138.4556014239788L93.33333333333333,145.38669781386852L124.44444444444444,151.43822127580643L155.55555555555557,158.25734236836433" style="fill: none;" fill="none"/>
                </g>
                <g>
                  <path stroke="rgb(187, 187, 187)" stroke-width="2px" d="M31.11111111111111,155.91062182188034L62.22222222222222,155.68951533734798L93.33333333333333,154.6706689298153L124.44444444444444,153.80245925486088" style="fill: none;" fill="none"/>
                </g>
                <g>
                  <path stroke="rgb(0, 153, 136)" stroke-width="2px" d="M31.11111111111111,141.1748036891222L62.22222222222222,157.20935152471066L93.33333333333333,163.16431590914726L124.44444444444444,169.0575978308916" style="fill: none;" fill="none"/>
                </g>
                <g>
                  <path stroke="rgb(238, 51, 119)" stroke-width="2px" d="M31.11111111111111,134.90797185897827L62.22222222222222,136.65046626329422L93.33333333333333,133.658607468009L124.44444444444444,129.1014594733715L155.55555555555557,127.63191172480585" style="fill: none;" fill="none"/>
                </g>
                <g>
                  <path stroke="rgb(51, 187, 238)" stroke-width="2px" d="M31.11111111111111,123.56064060330391L62.22222222222222,139.20712785422802L93.33333333333333,146.11353719234467L124.44444444444444,151.88584552705288L155.55555555555557,159.4652627557516" style="fill: none;" fill="none"/>
                </g>
                <g>
                  <path stroke="rgb(51, 187, 238)" stroke-width="2px" d="M31.11111111111111,130.45104467868805L62.22222222222222,130.90152183175087L93.33333333333333,131.00843751430511L124.44444444444444,122.53393882513046L155.55555555555557,128.40950989723206L186.66666666666666,120.14880740642549" style="fill: none;" fill="none"/>
                </g>
                <g>
                  <path stroke="rgb(204, 51, 17)" stroke-width="2px" d="M31.11111111111111,121.25138142704962L62.22222222222222,133.26637522876263L93.33333333333333,137.4401310235262L124.44444444444444,143.36417944729328L155.55555555555557,148.58300285041332L186.66666666666666,155.4934915304184" style="fill: none;" fill="none"/>
                </g>
                <g>
                  <path stroke="rgb(0, 119, 187)" stroke-width="2px" d="M31.11111111111111,21.798898816108682L62.22222222222222,23.703195393085473L93.33333333333333,22.16976726055144L124.44444444444444,19.12334287166594L155.55555555555557,15.54936462640761" style="fill: none;" fill="none"/>
                </g>
                <g>
                  <path stroke="rgb(255, 112, 67)" stroke-width="2px" d="M31.11111111111111,15.401857733726494L62.22222222222222,24.644310116767876L93.33333333333333,30.942233741283395L124.44444444444444,39.51192879676818L155.55555555555557,49.869835019111626" style="fill: none;" fill="none"/>
                </g>
                <g>
                  <path stroke="rgb(0, 153, 136)" stroke-width="2px" d="M31.11111111111111,154.179930254817L62.22222222222222,152.9950045198202L93.33333333333333,155.3086199760437L124.44444444444444,154.16759112477303L155.55555555555557,150.58591575920582L186.66666666666666,147.9455397427082" style="fill: none;" fill="none"/>
                </g>
                <g>
                  <path stroke="rgb(238, 51, 119)" stroke-width="2px" d="M31.11111111111111,138.42051380872726L62.22222222222222,156.60532319545746L93.33333333333333,162.44401754438877L124.44444444444444,167.4516602754593L155.55555555555557,172.53996012359858L186.66666666666666,176.31956709176302" style="fill: none;" fill="none"/>
                </g>
                <g>
                  <path stroke="rgb(51, 187, 238)" stroke-width="2px" d="M31.11111111111111,134.3597355633974L62.22222222222222,135.37979082763195L93.33333333333333,134.89473597705364L124.44444444444444,132.61734226346016L155.55555555555557,123.8541422188282" style="fill: none;" fill="none"/>
                </g>
                <g>
                  <path stroke="rgb(204, 51, 17)" stroke-width="2px" d="M31.11111111111111,117.97843047976495L62.22222222222222,137.79979886114597L93.33333333333333,144.64255200326443L124.44444444444444,151.09742479026318L155.55555555555557,157.76353979110718" style="fill: none;" fill="none"/>
                </g>
                <g>
                  <path stroke="rgb(204, 51, 17)" stroke-width="2px" d="M31.11111111111111,130.45298764109612L62.22222222222222,131.44246542453766L93.33333333333333,131.81946167349815L124.44444444444444,130.68386608362198L155.55555555555557,126.39959001541139L186.66666666666666,125.93802654743196" style="fill: none;" fill="none"/>
                </g>
                <g>
                  <path stroke="rgb(0, 119, 187)" stroke-width="2px" d="M31.11111111111111,118.51175168156622L62.22222222222222,132.78632724285126L93.33333333333333,137.20391602814198L124.44444444444444,141.98005171120167L155.55555555555557,147.0178938806057L186.66666666666666,152.9195454865694" style="fill: none;" fill="none"/>
                </g>
                <g>
                  <path stroke="rgb(255, 112, 67)" stroke-width="2px" d="M31.11111111111111,22.09549510478972L62.22222222222222,24.055108964443193L93.33333333333333,23.71309483051298L124.44444444444444,17.144897222518907L155.55555555555557,16.6401138305664" style="fill: none;" fill="none"/>
                </g>
                <g>
                  <path stroke="rgb(187, 187, 187)" stroke-width="2px" d="M31.11111111111111,14.749602615833275L62.22222222222222,24.38724124431608L93.33333333333333,31.14315891265867L124.44444444444444,39.053125917911515L155.55555555555557,49.72681188583372" style="fill: none;" fill="none"/>
                </g>
                <g>
                  <path stroke="rgb(0, 119, 187)" stroke-width="2px" d="M31.11111111111111,153.4782966375351L62.22222222222222,155.450667232275L93.33333333333333,157.99384677410126L124.44444444444444,158.01863932609558L155.55555555555557,156.6342961937189L186.66666666666666,156.68705070018768L217.77777777777777,155.0533006489277" style="fill: none;" fill="none"/>
                </g>
                <g>
                  <path stroke="rgb(255, 112, 67)" stroke-width="2px" d="M31.11111111111111,135.68595246970654L62.22222222222222,154.02811543643475L93.33333333333333,157.372208699584L124.44444444444444,161.26206339895725L155.55555555555557,164.21046929061413L186.66666666666666,167.28071914613247L217.77777777777777,170.49478998035192" style="fill: none;" fill="none"/>
                </g>
                <g>
                  <path stroke="rgb(187, 187, 187)" stroke-width="2px" d="M31.11111111111111,134.75561195611954L62.22222222222222,136.96053141355515L93.33333333333333,136.11288549005985L124.44444444444444,136.74972438812256L155.55555555555557,139.1148547232151L186.66666666666666,136.27454259991646L217.77777777777777,131.28781089186668L248.88888888888889,124.77943190932274" style="fill: none;" fill="none"/>
                </g>
                <g>
                  <path stroke="rgb(0, 153, 136)" stroke-width="2px" d="M31.11111111111111,116.79354870319365L62.22222222222222,134.4210004210472L93.33333333333333,138.6452732384205L124.44444444444444,142.3719103038311L155.55555555555557,145.2521366775036L186.66666666666666,150.1256754398346L217.77777777777777,155.06409683823586L248.88888888888889,161.2422381490469" style="fill: none;" fill="none"/>
                </g>
                <g>
                  <path stroke="rgb(0, 153, 136)" stroke-width="2px" d="M31.11111111111111,129.2794735133648L62.22222222222222,130.23031184077263L93.33333333333333,131.48129829764366L124.44444444444444,131.58950635790825L155.55555555555557,131.40627005696297L186.66666666666666,129.99363967776299L217.77777777777777,128.7501789033413" style="fill: none;" fill="none"/>
                </g>
                <g>
                  <path stroke="rgb(238, 51, 119)" stroke-width="2px" d="M31.11111111111111,114.19388258457184L62.22222222222222,130.66389137506485L93.33333333333333,133.62595514953136L124.44444444444444,135.76382042467594L155.55555555555557,138.22991886734962L186.66666666666666,140.5360701829195L217.77777777777777,144.1610665768385" style="fill: none;" fill="none"/>
                </g>
                <g>
                  <path stroke="rgb(51, 187, 238)" stroke-width="2px" d="M31.11111111111111,21.400037646293626L62.22222222222222,21.454124093055704L93.33333333333333,24.048339366912835L124.44444444444444,21.801729738712297L155.55555555555557,22.08236032724379L186.66666666666666,20.441163718700388" style="fill: none;" fill="none"/>
                </g>
                <g>
                  <path stroke="rgb(204, 51, 17)" stroke-width="2px" d="M31.11111111111111,13.420440495014171L62.22222222222222,20.002054214477525L93.33333333333333,23.49950963258741L124.44444444444444,26.685950398445122L155.55555555555557,30.579893231391885L186.66666666666666,34.83390831947325" style="fill: none;" fill="none"/>
                </g>
                <g>
                  <path stroke="rgb(255, 112, 67)" stroke-width="2px" d="M31.11111111111111,154.33022850751877L62.22222222222222,154.89182376861572L93.33333333333333,155.89490228891373L124.44444444444444,157.90347264707088L155.55555555555557,156.1050015836954L186.66666666666666,156.0057962089777L217.77777777777777,156.65202023088932" style="fill: none;" fill="none"/>
                </g>
                <g>
                  <path stroke="rgb(187, 187, 187)" stroke-width="2px" d="M31.11111111111111,130.9802425801754L62.22222222222222,153.93042662739754L93.33333333333333,157.26186425983906L124.44444444444444,159.9822841733694L155.55555555555557,162.70805822312832L186.66666666666666,165.3943576067686L217.77777777777777,167.6083237081766" style="fill: none;" fill="none"/>
                </g>
                <g>
                  <path stroke="rgb(0, 153, 136)" stroke-width="2px" d="M31.11111111111111,134.51224492490292L62.22222222222222,137.52990292012691L93.33333333333333,136.908546179533L124.44444444444444,136.90394812822342L155.55555555555557,137.30048389732838" style="fill: none;" fill="none"/>
                </g>
                <g>
                  <path stroke="rgb(238, 51, 119)" stroke-width="2px" d="M31.11111111111111,114.8625517785549L62.22222222222222,134.05109906196594L93.33333333333333,138.0662880241871L124.44444444444444,140.8049418926239L155.55555555555557,144.62833584845066" style="fill: none;" fill="none"/>
                </g>
                <g>
                  <path stroke="rgb(238, 51, 119)" stroke-width="2px" d="M31.11111111111111,128.68465447425842L62.22222222222222,128.78169709444046L93.33333333333333,129.92132806777954L124.44444444444444,130.74758821725845L155.55555555555557,131.19781041145325L186.66666666666666,129.39729967713356L217.77777777777777,131.17966437339783L248.88888888888889,126.95397609472275" style="fill: none;" fill="none"/>
                </g>
                <g>
                  <path stroke="rgb(51, 187, 238)" stroke-width="2px" d="M31.11111111111111,110.3277742266655L62.22222222222222,130.56930163502693L93.33333333333333,133.5116412639618L124.44444444444444,135.13335989415646L155.55555555555557,137.54862041771412L186.66666666666666,139.86209520697594L217.77777777777777,142.05095225572586L248.88888888888889,145.52062594890594" style="fill: none;" fill="none"/>
                </g>
                <g>
                  <path stroke="rgb(204, 51, 17)" stroke-width="2px" d="M31.11111111111111,21.138414680957773L62.22222222222222,21.844597995281212L93.33333333333333,24.828073918819406L124.44444444444444,25.165375709533684L155.55555555555557,21.356712222099297L186.66666666666666,24.11207908391951L217.77777777777777,22.460596203803995" style="fill: none;" fill="none"/>
                </g>
                <g>
                  <path stroke="rgb(0, 119, 187)" stroke-width="2px" d="M31.11111111111111,13.542785584926598L62.22222222222222,19.765382051467874L93.33333333333333,22.706060051918023L124.44444444444444,25.908290684223154L155.55555555555557,29.004018843173967L186.66666666666666,32.58532935380934L217.77777777777777,36.954462766647325" style="fill: none;" fill="none"/>
                </g>
              </g>
            </g>
          </g>
        </g>
      </g>
      <g transform="translate(50, 177)" clip-path="url(#clip-2)">
        <clipPath id="clip-2">
          <rect width="280" height="23"/>
        </clipPath>
        <g>
          <g>
            <line x1="0" y1="0" x2="0" y2="5" style="visibility: inherit;" fill="rgb(0, 0, 0)" stroke="rgb(204, 204, 204)" stroke-width="1px"/>
            <line x1="31.11111111111111" y1="0" x2="31.11111111111111" y2="5" style="visibility: inherit;" fill="rgb(0, 0, 0)" stroke="rgb(204, 204, 204)" stroke-width="1px"/>
            <line x1="62.22222222222222" y1="0" x2="62.22222222222222" y2="5" style="visibility: inherit;" fill="rgb(0, 0, 0)" stroke="rgb(204, 204, 204)" stroke-width="1px"/>
            <line x1="93.33333333333333" y1="0" x2="93.33333333333333" y2="5" style="visibility: inherit;" fill="rgb(0, 0, 0)" stroke="rgb(204, 204, 204)" stroke-width="1px"/>
            <line x1="124.44444444444444" y1="0" x2="124.44444444444444" y2="5" style="visibility: inherit;" fill="rgb(0, 0, 0)" stroke="rgb(204, 204, 204)" stroke-width="1px"/>
            <line x1="155.55555555555557" y1="0" x2="155.55555555555557" y2="5" style="visibility: inherit;" fill="rgb(0, 0, 0)" stroke="rgb(204, 204, 204)" stroke-width="1px"/>
            <line x1="186.66666666666666" y1="0" x2="186.66666666666666" y2="5" style="visibility: inherit;" fill="rgb(0, 0, 0)" stroke="rgb(204, 204, 204)" stroke-width="1px"/>
            <line x1="217.77777777777777" y1="0" x2="217.77777777777777" y2="5" style="visibility: inherit;" fill="rgb(0, 0, 0)" stroke="rgb(204, 204, 204)" stroke-width="1px"/>
            <line x1="248.88888888888889" y1="0" x2="248.88888888888889" y2="5" style="visibility: inherit;" fill="rgb(0, 0, 0)" stroke="rgb(204, 204, 204)" stroke-width="1px"/>
            <line x1="280" y1="0" x2="280" y2="5" style="visibility: inherit;" fill="rgb(0, 0, 0)" stroke="rgb(204, 204, 204)" stroke-width="1px"/>
          </g>
          <g transform="translate(0, 8)">
            <text x="0" y="0" dx="0em" dy="0.95em" style="text-anchor: middle; visibility: hidden; font-family: Roboto, sans-serif; font-size: 12px; font-weight: 200; white-space: pre;" fill="rgb(33, 33, 33)" stroke="none" stroke-width="1px">-1</text>
            <text x="31.11111111111111" y="0" dx="0em" dy="0.95em" style="text-anchor: middle; visibility: inherit; font-family: Roboto, sans-serif; font-size: 12px; font-weight: 200; white-space: pre;" fill="rgb(33, 33, 33)" stroke="none" stroke-width="1px">0</text>
            <text x="62.22222222222222" y="0" dx="0em" dy="0.95em" style="text-anchor: middle; visibility: inherit; font-family: Roboto, sans-serif; font-size: 12px; font-weight: 200; white-space: pre;" fill="rgb(33, 33, 33)" stroke="none" stroke-width="1px">1</text>
            <text x="93.33333333333333" y="0" dx="0em" dy="0.95em" style="text-anchor: middle; visibility: inherit; font-family: Roboto, sans-serif; font-size: 12px; font-weight: 200; white-space: pre;" fill="rgb(33, 33, 33)" stroke="none" stroke-width="1px">2</text>
            <text x="124.44444444444444" y="0" dx="0em" dy="0.95em" style="text-anchor: middle; visibility: inherit; font-family: Roboto, sans-serif; font-size: 12px; font-weight: 200; white-space: pre;" fill="rgb(33, 33, 33)" stroke="none" stroke-width="1px">3</text>
            <text x="155.55555555555557" y="0" dx="0em" dy="0.95em" style="text-anchor: middle; visibility: inherit; font-family: Roboto, sans-serif; font-size: 12px; font-weight: 200; white-space: pre;" fill="rgb(33, 33, 33)" stroke="none" stroke-width="1px">4</text>
            <text x="186.66666666666666" y="0" dx="0em" dy="0.95em" style="text-anchor: middle; visibility: inherit; font-family: Roboto, sans-serif; font-size: 12px; font-weight: 200; white-space: pre;" fill="rgb(33, 33, 33)" stroke="none" stroke-width="1px">5</text>
            <text x="217.77777777777777" y="0" dx="0em" dy="0.95em" style="text-anchor: middle; visibility: inherit; font-family: Roboto, sans-serif; font-size: 12px; font-weight: 200; white-space: pre;" fill="rgb(33, 33, 33)" stroke="none" stroke-width="1px">6</text>
            <text x="248.88888888888889" y="0" dx="0em" dy="0.95em" style="text-anchor: middle; visibility: inherit; font-family: Roboto, sans-serif; font-size: 12px; font-weight: 200; white-space: pre;" fill="rgb(33, 33, 33)" stroke="none" stroke-width="1px">7</text>
            <text x="280" y="0" dx="0em" dy="0.95em" style="text-anchor: middle; visibility: hidden; font-family: Roboto, sans-serif; font-size: 12px; font-weight: 200; white-space: pre;" fill="rgb(33, 33, 33)" stroke="none" stroke-width="1px">8</text>
          </g>
          <line x1="0" y1="0" x2="280" y2="0" fill="rgb(0, 0, 0)" stroke="rgb(204, 204, 204)" stroke-width="1px"/>
        </g>
      </g>
    </g>
  </g>
  <text style="white-space: pre; fill: rgb(51, 51, 51); font-family: Arial, sans-serif; font-size: 13.5px;" x="664.102" y="29.699">Epoch Loss</text>
  <text style="white-space: pre; fill: rgb(51, 51, 51); font-family: Arial, sans-serif; font-size: 13.5px;" x="401.768" y="125.277" transform="matrix(1, 0, 0, 1, 76.256197, 2.420187)">Loss</text>
  <text style="white-space: pre; fill: rgb(51, 51, 51); font-family: Arial, sans-serif; font-size: 13.5px;" x="671.93" y="250.61">Epoch x10</text>
  <text style="white-space: pre; fill: rgb(51, 51, 51); font-family: Arial, sans-serif; font-size: 13.5px;" x="460.425" y="16.462">Training Set</text>
</svg>