<svg viewBox="0 0 330 200" xmlns="http://www.w3.org/2000/svg"><g><g><g><g><g><line x1="50" y1="177" x2="45" y2="177" style="visibility: inherit;" fill="rgb(0, 0, 0)" stroke="rgb(204, 204, 204)" stroke-width="1px"></line><line x1="50" y1="154.87499999999997" x2="45" y2="154.87499999999997" style="visibility: inherit;" fill="rgb(0, 0, 0)" stroke="rgb(204, 204, 204)" stroke-width="1px"></line><line x1="50" y1="132.75" x2="45" y2="132.75" style="visibility: inherit;" fill="rgb(0, 0, 0)" stroke="rgb(204, 204, 204)" stroke-width="1px"></line><line x1="50" y1="110.625" x2="45" y2="110.625" style="visibility: inherit;" fill="rgb(0, 0, 0)" stroke="rgb(204, 204, 204)" stroke-width="1px"></line><line x1="50" y1="88.49999999999999" x2="45" y2="88.49999999999999" style="visibility: inherit;" fill="rgb(0, 0, 0)" stroke="rgb(204, 204, 204)" stroke-width="1px"></line><line x1="50" y1="66.375" x2="45" y2="66.375" style="visibility: inherit;" fill="rgb(0, 0, 0)" stroke="rgb(204, 204, 204)" stroke-width="1px"></line><line x1="50" y1="44.24999999999998" x2="45" y2="44.24999999999998" style="visibility: inherit;" fill="rgb(0, 0, 0)" stroke="rgb(204, 204, 204)" stroke-width="1px"></line><line x1="50" y1="22.12500000000002" x2="45" y2="22.12500000000002" style="visibility: inherit;" fill="rgb(0, 0, 0)" stroke="rgb(204, 204, 204)" stroke-width="1px"></line><line x1="50" y1="0" x2="45" y2="0" style="visibility: inherit;" fill="rgb(0, 0, 0)" stroke="rgb(204, 204, 204)" stroke-width="1px"></line></g><g transform="translate(40, 0)"><text x="0" y="177" dx="0em" dy="0.3em" style="text-anchor: end; visibility: hidden; font-family: Roboto, sans-serif; font-size: 12px; font-weight: 200;" fill="rgb(33, 33, 33)" stroke="none" stroke-width="1px">0.6</text><text x="0" y="154.87499999999997" dx="0em" dy="0.3em" style="text-anchor: end; visibility: inherit; font-family: Roboto, sans-serif; font-size: 12px; font-weight: 200;" fill="rgb(33, 33, 33)" stroke="none" stroke-width="1px">0.65</text><text x="0" y="132.75" dx="0em" dy="0.3em" style="text-anchor: end; visibility: hidden; font-family: Roboto, sans-serif; font-size: 12px; font-weight: 200;" fill="rgb(33, 33, 33)" stroke="none" stroke-width="1px">0.7</text><text x="0" y="110.625" dx="0em" dy="0.3em" style="text-anchor: end; visibility: inherit; font-family: Roboto, sans-serif; font-size: 12px; font-weight: 200;" fill="rgb(33, 33, 33)" stroke="none" stroke-width="1px">0.75</text><text x="0" y="88.49999999999999" dx="0em" dy="0.3em" style="text-anchor: end; visibility: hidden; font-family: Roboto, sans-serif; font-size: 12px; font-weight: 200;" fill="rgb(33, 33, 33)" stroke="none" stroke-width="1px">0.8</text><text x="0" y="66.375" dx="0em" dy="0.3em" style="text-anchor: end; visibility: inherit; font-family: Roboto, sans-serif; font-size: 12px; font-weight: 200;" fill="rgb(33, 33, 33)" stroke="none" stroke-width="1px">0.85</text><text x="0" y="44.24999999999998" dx="0em" dy="0.3em" style="text-anchor: end; visibility: hidden; font-family: Roboto, sans-serif; font-size: 12px; font-weight: 200;" fill="rgb(33, 33, 33)" stroke="none" stroke-width="1px">0.9</text><text x="0" y="22.12500000000002" dx="0em" dy="0.3em" style="text-anchor: end; visibility: inherit; font-family: Roboto, sans-serif; font-size: 12px; font-weight: 200;" fill="rgb(33, 33, 33)" stroke="none" stroke-width="1px">0.95</text><text x="0" y="0" dx="0em" dy="0.3em" style="text-anchor: end; visibility: hidden; font-family: Roboto, sans-serif; font-size: 12px; font-weight: 200;" fill="rgb(33, 33, 33)" stroke="none" stroke-width="1px">1</text></g><line x1="50" y1="0" x2="50" y2="177" fill="rgb(0, 0, 0)" stroke="rgb(204, 204, 204)" stroke-width="1px"></line></g></g><g transform="translate(50, 0)" clip-path="url(#clip_0)"><clipPath id="clip_0"><rect width="280" height="177"></rect></clipPath><g><g><g><line x1="0" y1="0" x2="0" y2="177" fill="rgb(0, 0, 0)" stroke="rgb(66, 66, 66)" stroke-width="1px" opacity="0.25"></line><line x1="31.11111111111111" y1="0" x2="31.11111111111111" y2="177" fill="rgb(0, 0, 0)" stroke="rgb(66, 66, 66)" stroke-width="1px" opacity="0.25"></line><line x1="62.22222222222222" y1="0" x2="62.22222222222222" y2="177" fill="rgb(0, 0, 0)" stroke="rgb(66, 66, 66)" stroke-width="1px" opacity="0.25"></line><line x1="93.33333333333333" y1="0" x2="93.33333333333333" y2="177" fill="rgb(0, 0, 0)" stroke="rgb(66, 66, 66)" stroke-width="1px" opacity="0.25"></line><line x1="124.44444444444444" y1="0" x2="124.44444444444444" y2="177" fill="rgb(0, 0, 0)" stroke="rgb(66, 66, 66)" stroke-width="1px" opacity="0.25"></line><line x1="155.55555555555557" y1="0" x2="155.55555555555557" y2="177" fill="rgb(0, 0, 0)" stroke="rgb(66, 66, 66)" stroke-width="1px" opacity="0.25"></line><line x1="186.66666666666666" y1="0" x2="186.66666666666666" y2="177" fill="rgb(0, 0, 0)" stroke="rgb(66, 66, 66)" stroke-width="1px" opacity="0.25"></line><line x1="217.77777777777777" y1="0" x2="217.77777777777777" y2="177" fill="rgb(0, 0, 0)" stroke="rgb(66, 66, 66)" stroke-width="1px" opacity="0.25"></line><line x1="248.88888888888889" y1="0" x2="248.88888888888889" y2="177" fill="rgb(0, 0, 0)" stroke="rgb(66, 66, 66)" stroke-width="1px" opacity="0.25"></line><line x1="280" y1="0" x2="280" y2="177" fill="rgb(0, 0, 0)" stroke="rgb(66, 66, 66)" stroke-width="1px" opacity="0.25"></line></g><g><line x1="0" y1="177" x2="280" y2="177" fill="rgb(0, 0, 0)" stroke="rgb(66, 66, 66)" stroke-width="1px" opacity="0.25"></line><line x1="0" y1="154.87499999999997" x2="280" y2="154.87499999999997" fill="rgb(0, 0, 0)" stroke="rgb(66, 66, 66)" stroke-width="1px" opacity="0.25"></line><line x1="0" y1="132.75" x2="280" y2="132.75" fill="rgb(0, 0, 0)" stroke="rgb(66, 66, 66)" stroke-width="1px" opacity="0.25"></line><line x1="0" y1="110.625" x2="280" y2="110.625" fill="rgb(0, 0, 0)" stroke="rgb(66, 66, 66)" stroke-width="1px" opacity="0.25"></line><line x1="0" y1="88.49999999999999" x2="280" y2="88.49999999999999" fill="rgb(0, 0, 0)" stroke="rgb(66, 66, 66)" stroke-width="1px" opacity="0.25"></line><line x1="0" y1="66.375" x2="280" y2="66.375" fill="rgb(0, 0, 0)" stroke="rgb(66, 66, 66)" stroke-width="1px" opacity="0.25"></line><line x1="0" y1="44.24999999999998" x2="280" y2="44.24999999999998" fill="rgb(0, 0, 0)" stroke="rgb(66, 66, 66)" stroke-width="1px" opacity="0.25"></line><line x1="0" y1="22.12500000000002" x2="280" y2="22.12500000000002" fill="rgb(0, 0, 0)" stroke="rgb(66, 66, 66)" stroke-width="1px" opacity="0.25"></line><line x1="0" y1="0" x2="280" y2="0" fill="rgb(0, 0, 0)" stroke="rgb(66, 66, 66)" stroke-width="1px" opacity="0.25"></line></g></g></g><g><g><line x1="0" y1="442.5" x2="280" y2="442.5" fill="rgb(0, 0, 0)" stroke="rgb(153, 153, 153)" stroke-width="1.5px"></line></g></g><g><g><line x1="31.11111111111111" y1="0" x2="31.11111111111111" y2="177" fill="rgb(0, 0, 0)" stroke="rgb(153, 153, 153)" stroke-width="1.5px"></line></g></g><g><g><g><g><g><path stroke="rgb(0, 119, 187)" stroke-width="2px" d="M31.11111111111111,39.26064133644104L62.22222222222222,39.64403573423618L93.33333333333333,38.50947437845926L124.44444444444444,38.196866993847124L155.55555555555557,39.54514060197899" style="fill: none;" fill="none"></path></g><g><path stroke="rgb(255, 112, 67)" stroke-width="2px" d="M31.11111111111111,48.03272098302841L62.22222222222222,40.81836858764291L93.33333333333333,36.62207542025314L124.44444444444444,33.140619076130996L155.55555555555557,29.599345460854682" style="fill: none;" fill="none"></path></g><g><path stroke="rgb(187, 187, 187)" stroke-width="2px" d="M31.11111111111111,25.15133187174797L62.22222222222222,25.2791354991495L93.33333333333333,26.57019950297413L124.44444444444444,26.388012640835612" style="fill: none;" fill="none"></path></g><g><path stroke="rgb(0, 153, 136)" stroke-width="2px" d="M31.11111111111111,33.49497511982912L62.22222222222222,27.552675157785355L93.33333333333333,24.739694768676937L124.44444444444444,21.815070351585785" style="fill: none;" fill="none"></path></g><g><path stroke="rgb(238, 51, 119)" stroke-width="2px" d="M31.11111111111111,38.647183924913406L62.22222222222222,38.13596941530709L93.33333333333333,38.39679314469805L124.44444444444444,40.76718420502458L155.55555555555557,42.41967489339262" style="fill: none;" fill="none"></path></g><g><path stroke="rgb(51, 187, 238)" stroke-width="2px" d="M31.11111111111111,45.41591987013817L62.22222222222222,39.63716173544526L93.33333333333333,35.687502248554864L124.44444444444444,32.19459141659387L155.55555555555557,28.735754400967384" style="fill: none;" fill="none"></path></g><g><path stroke="rgb(51, 187, 238)" stroke-width="2px" d="M31.11111111111111,33.73960375785822L62.22222222222222,34.12301464006299L93.33333333333333,34.4490308451409L124.44444444444444,35.626555212828215L155.55555555555557,34.719443285862326L186.66666666666666,36.53902247101948" style="fill: none;" fill="none"></path></g><g><path stroke="rgb(204, 51, 17)" stroke-width="2px" d="M31.11111111111111,39.86252009868622L62.22222222222222,36.42797688022256L93.33333333333333,34.84254505561319L124.44444444444444,32.846978894599204L155.55555555555557,30.80764266132979L186.66666666666666,28.01918314831883" style="fill: none;" fill="none"></path></g><g><path stroke="rgb(0, 119, 187)" stroke-width="2px" d="M31.11111111111111,149.2721839249134L62.22222222222222,149.5277911797166L93.33333333333333,149.5017088067775L124.44444444444444,151.55757713460312L155.55555555555557,153.49309622589954" style="fill: none;" fill="none"></path></g><g><path stroke="rgb(255, 112, 67)" stroke-width="2px" d="M31.11111111111111,158.6359088122845L62.22222222222222,149.1136896237731L93.33333333333333,141.24402240222807L124.44444444444444,133.67000143372402L155.55555555555557,125.02728271885597" style="fill: none;" fill="none"></path></g><g><path stroke="rgb(0, 153, 136)" stroke-width="2px" d="M31.11111111111111,27.196163535118103L62.22222222222222,27.323967162519693L93.33333333333333,26.632797736294403L124.44444444444444,26.797724204576205L155.55555555555557,27.9461267018674L186.66666666666666,27.631460362435092" style="fill: none;" fill="none"></path></g><g><path stroke="rgb(238, 51, 119)" stroke-width="2px" d="M31.11111111111111,35.79192593693733L62.22222222222222,28.886507861316144L93.33333333333333,25.526504115182497L124.44444444444444,22.694597575703913L155.55555555555557,19.787291434698787L186.66666666666666,17.32852393755267" style="fill: none;" fill="none"></path></g><g><path stroke="rgb(51, 187, 238)" stroke-width="2px" d="M31.11111111111111,39.465100765228215L62.22222222222222,40.104118902236166L93.33333333333333,39.15212574661992L124.44444444444444,40.047730100615034L155.55555555555557,40.94799889811285" style="fill: none;" fill="none"></path></g><g><path stroke="rgb(204, 51, 17)" stroke-width="2px" d="M31.11111111111111,48.96312743425369L62.22222222222222,41.02189499884848L93.33333333333333,36.78110570019605L124.44444444444444,32.86578731501803L155.55555555555557,29.267157331512383" style="fill: none;" fill="none"></path></g><g><path stroke="rgb(204, 51, 17)" stroke-width="2px" d="M31.11111111111111,33.73960375785822L62.22222222222222,33.73960375785822L93.33333333333333,33.84393324961464L124.44444444444444,33.889960966565994L155.55555555555557,34.71164489034392L186.66666666666666,35.93392620345313" style="fill: none;" fill="none"></path></g><g><path stroke="rgb(0, 119, 187)" stroke-width="2px" d="M31.11111111111111,42.15947091579437L62.22222222222222,37.43470944464207L93.33333333333333,35.454312848801564L124.44444444444444,33.578465454389935L155.55555555555557,31.587575431874342L186.66666666666666,29.3624271394606" style="fill: none;" fill="none"></path></g><g><path stroke="rgb(255, 112, 67)" stroke-width="2px" d="M31.11111111111111,147.6363238692284L62.22222222222222,144.05787175521257L93.33333333333333,147.13553961746547L124.44444444444444,151.0305757968522L155.55555555555557,151.86432833290203" style="fill: none;" fill="none"></path></g><g><path stroke="rgb(187, 187, 187)" stroke-width="2px" d="M31.11111111111111,160.55490508675575L62.22222222222222,150.50567932426924L93.33333333333333,143.0977269581385L124.44444444444444,135.03259797744892L155.55555555555557,124.58824746502025" style="fill: none;" fill="none"></path></g><g><path stroke="rgb(0, 119, 187)" stroke-width="2px" d="M31.11111111111111,27.196163535118103L62.22222222222222,25.79034011811018L93.33333333333333,25.56864499437566L124.44444444444444,25.940704599351648L155.55555555555557,25.59833266683793L186.66666666666666,25.668173822365247L217.77777777777777,25.371333079563673" style="fill: none;" fill="none"></path></g><g><path stroke="rgb(255, 112, 67)" stroke-width="2px" d="M31.11111111111111,37.50738590955734L62.22222222222222,30.492923464626074L93.33333333333333,27.529748237254605L124.44444444444444,25.66126786994151L155.55555555555557,24.03984686511001L186.66666666666666,22.61486309351422L217.77777777777777,20.79858053723946" style="fill: none;" fill="none"></path></g><g><path stroke="rgb(187, 187, 187)" stroke-width="2px" d="M31.11111111111111,39.87407237291336L62.22222222222222,38.08485455811024L93.33333333333333,37.85012329415397L124.44444444444444,37.84052651813808L155.55555555555557,37.56957021823038L186.66666666666666,38.27910260872557L217.77777777777777,38.767164480130035L248.88888888888889,40.54853588085744" style="fill: none;" fill="none"></path></g><g><path stroke="rgb(0, 153, 136)" stroke-width="2px" d="M31.11111111111111,48.87590512633324L62.22222222222222,42.47929483652119L93.33333333333333,39.52723985727958L124.44444444444444,37.50333035693451L155.55555555555557,35.57563554787706L186.66666666666666,33.62909598021929L217.77777777777777,31.16890410631019L248.88888888888889,28.17620630860944" style="fill: none;" fill="none"></path></g><g><path stroke="rgb(0, 153, 136)" stroke-width="2px" d="M31.11111111111111,33.94408956170082L62.22222222222222,33.56067867949605L93.33333333333333,33.54763749302648L124.44444444444444,33.91777705017697L155.55555555555557,33.485734845245965L186.66666666666666,34.02122740900883L217.77777777777777,35.083411712542016" style="fill: none;" fill="none"></path></g><g><path stroke="rgb(238, 51, 119)" stroke-width="2px" d="M31.11111111111111,44.36919942498207L62.22222222222222,38.445065282285256L93.33333333333333,36.453550120397516L124.44444444444444,35.33442568198286L155.55555555555557,34.57443771605934L186.66666666666666,33.71893928801409L217.77777777777777,32.64562797308085" style="fill: none;" fill="none"></path></g><g><path stroke="rgb(51, 187, 238)" stroke-width="2px" d="M31.11111111111111,145.18252059817317L62.22222222222222,147.2273456677794L93.33333333333333,145.03647007504287L124.44444444444444,147.45288390501898L155.55555555555557,148.68540587936488L186.66666666666666,149.44637631335237" style="fill: none;" fill="none"></path></g><g><path stroke="rgb(204, 51, 17)" stroke-width="2px" d="M31.11111111111111,160.84566369652748L62.22222222222222,154.6125952340662L93.33333333333333,151.47325549502764L124.44444444444444,147.02838262597868L155.55555555555557,142.64260143537967L186.66666666666666,137.99539506827523" style="fill: none;" fill="none"></path></g><g><path stroke="rgb(255, 112, 67)" stroke-width="2px" d="M31.11111111111111,25.764789283275604L62.22222222222222,25.125787630677223L93.33333333333333,25.45180888200286L124.44444444444444,25.31372202067253L155.55555555555557,24.888536824090558L186.66666666666666,25.513582923174425L217.77777777777777,25.785259310402516" style="fill: none;" fill="none"></path></g><g><path stroke="rgb(187, 187, 187)" stroke-width="2px" d="M31.11111111111111,40.32772332429886L62.22222222222222,31.532384175807238L93.33333333333333,28.424566664866052L124.44444444444444,26.25175871721961L155.55555555555557,24.853440850332056L186.66666666666666,23.440872390767478L217.77777777777777,22.194017859631035" style="fill: none;" fill="none"></path></g><g><path stroke="rgb(0, 153, 136)" stroke-width="2px" d="M31.11111111111111,36.39786645770073L62.22222222222222,36.65347371250391L93.33333333333333,37.87933178398069L124.44444444444444,37.1985113215359L155.55555555555557,37.20601407636548" style="fill: none;" fill="none"></path></g><g><path stroke="rgb(238, 51, 119)" stroke-width="2px" d="M31.11111111111111,53.15000921487808L62.22222222222222,43.973055984824896L93.33333333333333,40.16987561571355L124.44444444444444,37.91743540369408L155.55555555555557,35.974072599725346" style="fill: none;" fill="none"></path></g><g><path stroke="rgb(238, 51, 119)" stroke-width="2px" d="M31.11111111111111,34.148575365543365L62.22222222222222,34.14857536554331L93.33333333333333,34.35722089239529L124.44444444444444,34.35530925498291L155.55555555555557,34.709086473371976L186.66666666666666,34.73129039080102L217.77777777777777,34.996380588866565L248.88888888888889,35.31698748656212" style="fill: none;" fill="none"></path></g><g><path stroke="rgb(51, 187, 238)" stroke-width="2px" d="M31.11111111111111,48.55608120560646L62.22222222222222,39.706228114664555L93.33333333333333,37.100934465320734L124.44444444444444,35.85800330483302L155.55555555555557,34.90875644103925L186.66666666666666,34.13257523640894L217.77777777777777,33.34372356854252L248.88888888888889,32.25785072921153" style="fill: none;" fill="none"></path></g><g><path stroke="rgb(204, 51, 17)" stroke-width="2px" d="M31.11111111111111,142.1152862906456L62.22222222222222,143.39330608025193L93.33333333333333,143.5758776445778L124.44444444444444,143.7503971783992L155.55555555555557,147.47568389510712L186.66666666666666,148.22945169762383L217.77777777777777,149.16344582576522" style="fill: none;" fill="none"></path></g><g><path stroke="rgb(0, 119, 187)" stroke-width="2px" d="M31.11111111111111,159.94432255625725L62.22222222222222,154.8379305191338L93.33333333333333,150.82706341025778L124.44444444444444,147.4407820211833L155.55555555555557,143.9102115045191L186.66666666666666,138.9873323315268L217.77777777777777,134.4379166444119" style="fill: none;" fill="none"></path></g></g></g></g><g opacity="0.2"><g><g><g><path stroke="rgb(0, 119, 187)" stroke-width="2px" d="M31.11111111111111,39.26064133644104L62.22222222222222,39.87407237291336L93.33333333333333,37.42029547691345L124.44444444444444,37.82924070954323L155.55555555555557,41.30544662475586" style="fill: none;" fill="none"></path></g><g><path stroke="rgb(255, 112, 67)" stroke-width="2px" d="M31.11111111111111,48.03272098302841L62.22222222222222,36.489757150411606L93.33333333333333,32.593633979558945L124.44444444444444,29.04642641544342L155.55555555555557,24.975858628749847" style="fill: none;" fill="none"></path></g><g><path stroke="rgb(187, 187, 187)" stroke-width="2px" d="M31.11111111111111,25.15133187174797L62.22222222222222,25.355817675590515L93.33333333333333,27.809620946645737L124.44444444444444,26.173760890960693" style="fill: none;" fill="none"></path></g><g><path stroke="rgb(0, 153, 136)" stroke-width="2px" d="M31.11111111111111,33.49497511982918L62.22222222222222,23.98729518055916L93.33333333333333,22.039233595132828L124.44444444444444,18.375712037086487" style="fill: none;" fill="none"></path></g><g><path stroke="rgb(238, 51, 119)" stroke-width="2px" d="M31.11111111111111,38.647183924913406L62.22222222222222,37.82924070954323L93.33333333333333,38.647183924913406L124.44444444444444,43.554764091968536L155.55555555555557,44.577166736125946" style="fill: none;" fill="none"></path></g><g><path stroke="rgb(51, 187, 238)" stroke-width="2px" d="M31.11111111111111,45.41591987013817L62.22222222222222,36.16990685462952L93.33333333333333,31.895829141139984L124.44444444444444,28.08692827820778L155.55555555555557,24.21989679336548" style="fill: none;" fill="none"></path></g><g><path stroke="rgb(51, 187, 238)" stroke-width="2px" d="M31.11111111111111,33.739603757858276L62.22222222222222,34.35306116938591L93.33333333333333,34.762006402015686L124.44444444444444,37.01132386922836L155.55555555555557,33.53511795401573L186.66666666666666,39.056155532598495" style="fill: none;" fill="none"></path></g><g><path stroke="rgb(204, 51, 17)" stroke-width="2px" d="M31.11111111111111,39.86252009868622L62.22222222222222,34.36725094914436L93.33333333333333,33.320530503988266L124.44444444444444,30.50019308924675L155.55555555555557,28.145085275173187L186.66666666666666,24.16173979640007" style="fill: none;" fill="none"></path></g><g><path stroke="rgb(0, 119, 187)" stroke-width="2px" d="M31.11111111111111,149.2721839249134L62.22222222222222,149.6811555325985L93.33333333333333,149.47666972875595L124.44444444444444,153.975278288126L155.55555555555557,156.02010995149612" style="fill: none;" fill="none"></path></g><g><path stroke="rgb(255, 112, 67)" stroke-width="2px" d="M31.11111111111111,158.63590881228447L62.22222222222222,143.40035811066628L93.33333333333333,133.68914186954498L124.44444444444444,124.76295277476311L155.55555555555557,113.74334916472435" style="fill: none;" fill="none"></path></g><g><path stroke="rgb(0, 153, 136)" stroke-width="2px" d="M31.11111111111111,27.196163535118103L62.22222222222222,27.400649338960648L93.33333333333333,25.96927508711815L124.44444444444444,26.99167773127556L155.55555555555557,29.44548100233078L186.66666666666666,27.196163535118103" style="fill: none;" fill="none"></path></g><g><path stroke="rgb(238, 51, 119)" stroke-width="2px" d="M31.11111111111111,35.79192593693733L62.22222222222222,24.743257015943527L93.33333333333333,22.300900518894196L124.44444444444444,19.364275485277176L155.55555555555557,15.991512537002563L186.66666666666666,13.92716333270073" style="fill: none;" fill="none"></path></g><g><path stroke="rgb(51, 187, 238)" stroke-width="2px" d="M31.11111111111111,39.46510076522827L62.22222222222222,40.487529784440994L93.33333333333333,38.23821231722832L124.44444444444444,41.100960820913315L155.55555555555557,42.12338984012604" style="fill: none;" fill="none"></path></g><g><path stroke="rgb(204, 51, 17)" stroke-width="2px" d="M31.11111111111111,48.96312743425369L62.22222222222222,36.257155537605286L93.33333333333333,32.70994797348976L124.44444444444444,28.26137289404869L155.55555555555557,24.568786025047302" style="fill: none;" fill="none"></path></g><g><path stroke="rgb(204, 51, 17)" stroke-width="2px" d="M31.11111111111111,33.739603757858276L62.22222222222222,33.739603757858276L93.33333333333333,33.94408956170082L124.44444444444444,33.94408956170082L155.55555555555557,35.78443542122841L186.66666666666666,37.624781280756" style="fill: none;" fill="none"></path></g><g><path stroke="rgb(0, 119, 187)" stroke-width="2px" d="M31.11111111111111,42.15947091579437L62.22222222222222,34.599852561950684L93.33333333333333,33.553132116794586L124.44444444444444,31.372468918561935L155.55555555555557,28.988269418478012L186.66666666666666,26.284245997667313" style="fill: none;" fill="none"></path></g><g><path stroke="rgb(255, 112, 67)" stroke-width="2px" d="M31.11111111111111,147.63632386922836L62.22222222222222,141.91080048680305L93.33333333333333,150.09010076522827L124.44444444444444,155.61113834381104L155.55555555555557,152.95287564396858" style="fill: none;" fill="none"></path></g><g><path stroke="rgb(187, 187, 187)" stroke-width="2px" d="M31.11111111111111,160.55490508675575L62.22222222222222,144.47614386677742L93.33333333333333,135.98609268665314L124.44444444444444,125.54800629615784L155.55555555555557,110.9521034359932" style="fill: none;" fill="none"></path></g><g><path stroke="rgb(0, 119, 187)" stroke-width="2px" d="M31.11111111111111,27.196163535118103L62.22222222222222,24.946846067905426L93.33333333333333,25.355817675590515L124.44444444444444,26.378246694803238L155.55555555555557,25.15133187174797L186.66666666666666,25.764789283275604L217.77777777777777,24.946846067905426" style="fill: none;" fill="none"></path></g><g><path stroke="rgb(255, 112, 67)" stroke-width="2px" d="M31.11111111111111,37.50738590955734L62.22222222222222,26.284245997667313L93.33333333333333,24.68510001897812L124.44444444444444,23.46393495798111L155.55555555555557,21.92291960120201L186.66666666666666,20.643597543239594L217.77777777777777,18.201267421245575" style="fill: none;" fill="none"></path></g><g><path stroke="rgb(187, 187, 187)" stroke-width="2px" d="M31.11111111111111,39.87407237291336L62.22222222222222,37.01132386922836L93.33333333333333,37.624781280756L124.44444444444444,37.82924070954323L155.55555555555557,37.21580967307091L186.66666666666666,39.26064133644104L217.77777777777777,39.46510076522827L248.88888888888889,43.14579248428345" style="fill: none;" fill="none"></path></g><g><path stroke="rgb(0, 153, 136)" stroke-width="2px" d="M31.11111111111111,48.87590512633324L62.22222222222222,38.641328662633896L93.33333333333333,36.693267077207565L124.44444444444444,35.12321278452873L155.55555555555557,33.058837205171585L186.66666666666666,30.936331003904343L217.77777777777777,27.650790363550186L248.88888888888889,23.812824189662933" style="fill: none;" fill="none"></path></g><g><path stroke="rgb(0, 153, 136)" stroke-width="2px" d="M31.11111111111111,33.94408956170082L62.22222222222222,33.33063215017319L93.33333333333333,33.53511795401573L124.44444444444444,34.35306116938591L155.55555555555557,32.9216605424881L186.66666666666666,34.762006402015686L217.77777777777777,36.602352261543274" style="fill: none;" fill="none"></path></g><g><path stroke="rgb(238, 51, 119)" stroke-width="2px" d="M31.11111111111111,44.36919942498207L62.22222222222222,34.8905847966671L93.33333333333333,34.541695564985275L124.44444444444444,34.01833534240723L155.55555555555557,33.582197427749634L186.66666666666666,32.535476982593536L217.77777777777777,31.110775619745255" style="fill: none;" fill="none"></path></g><g><path stroke="rgb(51, 187, 238)" stroke-width="2px" d="M31.11111111111111,145.18252059817314L62.22222222222222,148.45424070954323L93.33333333333333,142.93322950601578L124.44444444444444,150.29458656907082L155.55555555555557,150.29458656907082L186.66666666666666,150.49907237291336" style="fill: none;" fill="none"></path></g><g><path stroke="rgb(204, 51, 17)" stroke-width="2px" d="M31.11111111111111,160.84566369652748L62.22222222222222,150.8727541565895L93.33333333333333,148.45948934555054L124.44444444444444,141.80121213197708L155.55555555555557,136.91652551293373L186.66666666666666,131.56663566827774" style="fill: none;" fill="none"></path></g><g><path stroke="rgb(255, 112, 67)" stroke-width="2px" d="M31.11111111111111,25.764789283275604L62.22222222222222,24.742386639118195L93.33333333333333,25.764789283275604L124.44444444444444,25.15133187174797L155.55555555555557,24.333415031433105L186.66666666666666,26.378246694803238L217.77777777777777,26.173760890960693" style="fill: none;" fill="none"></path></g><g><path stroke="rgb(187, 187, 187)" stroke-width="2px" d="M31.11111111111111,40.32772332429886L62.22222222222222,26.255180686712265L93.33333333333333,25.441061854362488L124.44444444444444,23.69653657078743L155.55555555555557,23.027797043323517L186.66666666666666,21.48678168654442L217.77777777777777,20.410995930433273" style="fill: none;" fill="none"></path></g><g><path stroke="rgb(0, 153, 136)" stroke-width="2px" d="M31.11111111111111,36.39786645770073L62.22222222222222,36.80683806538582L93.33333333333333,39.056155532598495L124.44444444444444,36.39786645770073L155.55555555555557,37.21580967307091" style="fill: none;" fill="none"></path></g><g><path stroke="rgb(238, 51, 119)" stroke-width="2px" d="M31.11111111111111,53.15000921487808L62.22222222222222,38.466884046792984L93.33333333333333,36.51882246136665L124.44444444444444,35.26856571435928L155.55555555555557,33.43681812286377" style="fill: none;" fill="none"></path></g><g><path stroke="rgb(238, 51, 119)" stroke-width="2px" d="M31.11111111111111,34.148575365543365L62.22222222222222,34.148575365543365L93.33333333333333,34.55752059817314L124.44444444444444,34.35306116938591L155.55555555555557,35.170978009700775L186.66666666666666,34.762006402015686L217.77777777777777,35.37546381354332L248.88888888888889,35.78443542122841" style="fill: none;" fill="none"></path></g><g><path stroke="rgb(51, 187, 238)" stroke-width="2px" d="M31.11111111111111,48.55608120560646L62.22222222222222,34.39631626009941L93.33333333333333,34.599852561950684L124.44444444444444,34.39631626009941L155.55555555555557,33.66941973567009L186.66666666666666,33.058837205171585L217.77777777777777,32.21565306186676L248.88888888888889,30.67463770508766" style="fill: none;" fill="none"></path></g><g><path stroke="rgb(204, 51, 17)" stroke-width="2px" d="M31.11111111111111,142.1152862906456L62.22222222222222,144.16011795401573L93.33333333333333,143.75114634633064L124.44444444444444,143.9556321501732L155.55555555555557,152.33941823244095L186.66666666666666,149.2721839249134L217.77777777777777,150.49907237291336" style="fill: none;" fill="none"></path></g><g><path stroke="rgb(0, 119, 187)" stroke-width="2px" d="M31.11111111111111,159.94432255625725L62.22222222222222,151.77409529685974L93.33333333333333,146.97663098573685L124.44444444444444,143.45851510763168L155.55555555555557,139.30069863796234L186.66666666666666,132.17721819877625L217.77777777777777,127.93217942118645" style="fill: none;" fill="none"></path></g></g></g></g></g></g><g transform="translate(50, 177)" clip-path="url(#clip_1)"><clipPath id="clip_1"><rect width="280" height="23"></rect></clipPath><g><g><line x1="0" y1="0" x2="0" y2="5" style="visibility: inherit;" fill="rgb(0, 0, 0)" stroke="rgb(204, 204, 204)" stroke-width="1px"></line><line x1="31.11111111111111" y1="0" x2="31.11111111111111" y2="5" style="visibility: inherit;" fill="rgb(0, 0, 0)" stroke="rgb(204, 204, 204)" stroke-width="1px"></line><line x1="62.22222222222222" y1="0" x2="62.22222222222222" y2="5" style="visibility: inherit;" fill="rgb(0, 0, 0)" stroke="rgb(204, 204, 204)" stroke-width="1px"></line><line x1="93.33333333333333" y1="0" x2="93.33333333333333" y2="5" style="visibility: inherit;" fill="rgb(0, 0, 0)" stroke="rgb(204, 204, 204)" stroke-width="1px"></line><line x1="124.44444444444444" y1="0" x2="124.44444444444444" y2="5" style="visibility: inherit;" fill="rgb(0, 0, 0)" stroke="rgb(204, 204, 204)" stroke-width="1px"></line><line x1="155.55555555555557" y1="0" x2="155.55555555555557" y2="5" style="visibility: inherit;" fill="rgb(0, 0, 0)" stroke="rgb(204, 204, 204)" stroke-width="1px"></line><line x1="186.66666666666666" y1="0" x2="186.66666666666666" y2="5" style="visibility: inherit;" fill="rgb(0, 0, 0)" stroke="rgb(204, 204, 204)" stroke-width="1px"></line><line x1="217.77777777777777" y1="0" x2="217.77777777777777" y2="5" style="visibility: inherit;" fill="rgb(0, 0, 0)" stroke="rgb(204, 204, 204)" stroke-width="1px"></line><line x1="248.88888888888889" y1="0" x2="248.88888888888889" y2="5" style="visibility: inherit;" fill="rgb(0, 0, 0)" stroke="rgb(204, 204, 204)" stroke-width="1px"></line><line x1="280" y1="0" x2="280" y2="5" style="visibility: inherit;" fill="rgb(0, 0, 0)" stroke="rgb(204, 204, 204)" stroke-width="1px"></line></g><g transform="translate(0, 8)"><text x="0" y="0" dx="0em" dy="0.95em" style="text-anchor: middle; visibility: hidden; font-family: Roboto, sans-serif; font-size: 12px; font-weight: 200;" fill="rgb(33, 33, 33)" stroke="none" stroke-width="1px">-1</text><text x="31.11111111111111" y="0" dx="0em" dy="0.95em" style="text-anchor: middle; visibility: inherit; font-family: Roboto, sans-serif; font-size: 12px; font-weight: 200;" fill="rgb(33, 33, 33)" stroke="none" stroke-width="1px">0</text><text x="62.22222222222222" y="0" dx="0em" dy="0.95em" style="text-anchor: middle; visibility: inherit; font-family: Roboto, sans-serif; font-size: 12px; font-weight: 200;" fill="rgb(33, 33, 33)" stroke="none" stroke-width="1px">1</text><text x="93.33333333333333" y="0" dx="0em" dy="0.95em" style="text-anchor: middle; visibility: inherit; font-family: Roboto, sans-serif; font-size: 12px; font-weight: 200;" fill="rgb(33, 33, 33)" stroke="none" stroke-width="1px">2</text><text x="124.44444444444444" y="0" dx="0em" dy="0.95em" style="text-anchor: middle; visibility: inherit; font-family: Roboto, sans-serif; font-size: 12px; font-weight: 200;" fill="rgb(33, 33, 33)" stroke="none" stroke-width="1px">3</text><text x="155.55555555555557" y="0" dx="0em" dy="0.95em" style="text-anchor: middle; visibility: inherit; font-family: Roboto, sans-serif; font-size: 12px; font-weight: 200;" fill="rgb(33, 33, 33)" stroke="none" stroke-width="1px">4</text><text x="186.66666666666666" y="0" dx="0em" dy="0.95em" style="text-anchor: middle; visibility: inherit; font-family: Roboto, sans-serif; font-size: 12px; font-weight: 200;" fill="rgb(33, 33, 33)" stroke="none" stroke-width="1px">5</text><text x="217.77777777777777" y="0" dx="0em" dy="0.95em" style="text-anchor: middle; visibility: inherit; font-family: Roboto, sans-serif; font-size: 12px; font-weight: 200;" fill="rgb(33, 33, 33)" stroke="none" stroke-width="1px">6</text><text x="248.88888888888889" y="0" dx="0em" dy="0.95em" style="text-anchor: middle; visibility: inherit; font-family: Roboto, sans-serif; font-size: 12px; font-weight: 200;" fill="rgb(33, 33, 33)" stroke="none" stroke-width="1px">7</text><text x="280" y="0" dx="0em" dy="0.95em" style="text-anchor: middle; visibility: hidden; font-family: Roboto, sans-serif; font-size: 12px; font-weight: 200;" fill="rgb(33, 33, 33)" stroke="none" stroke-width="1px">8</text></g><line x1="0" y1="0" x2="280" y2="0" fill="rgb(0, 0, 0)" stroke="rgb(204, 204, 204)" stroke-width="1px"></line></g></g></g></g></svg>