<svg viewBox="0 0 330 200" xmlns="http://www.w3.org/2000/svg"><g><g><g><g><g><line x1="50" y1="177" x2="45" y2="177" style="visibility: inherit;" fill="rgb(0, 0, 0)" stroke="rgb(204, 204, 204)" stroke-width="1px"></line><line x1="50" y1="160.90909090909093" x2="45" y2="160.90909090909093" style="visibility: inherit;" fill="rgb(0, 0, 0)" stroke="rgb(204, 204, 204)" stroke-width="1px"></line><line x1="50" y1="144.8181818181818" x2="45" y2="144.8181818181818" style="visibility: inherit;" fill="rgb(0, 0, 0)" stroke="rgb(204, 204, 204)" stroke-width="1px"></line><line x1="50" y1="128.72727272727272" x2="45" y2="128.72727272727272" style="visibility: inherit;" fill="rgb(0, 0, 0)" stroke="rgb(204, 204, 204)" stroke-width="1px"></line><line x1="50" y1="112.63636363636365" x2="45" y2="112.63636363636365" style="visibility: inherit;" fill="rgb(0, 0, 0)" stroke="rgb(204, 204, 204)" stroke-width="1px"></line><line x1="50" y1="96.54545454545456" x2="45" y2="96.54545454545456" style="visibility: inherit;" fill="rgb(0, 0, 0)" stroke="rgb(204, 204, 204)" stroke-width="1px"></line><line x1="50" y1="80.45454545454544" x2="45" y2="80.45454545454544" style="visibility: inherit;" fill="rgb(0, 0, 0)" stroke="rgb(204, 204, 204)" stroke-width="1px"></line><line x1="50" y1="64.36363636363639" x2="45" y2="64.36363636363639" style="visibility: inherit;" fill="rgb(0, 0, 0)" stroke="rgb(204, 204, 204)" stroke-width="1px"></line><line x1="50" y1="48.272727272727266" x2="45" y2="48.272727272727266" style="visibility: inherit;" fill="rgb(0, 0, 0)" stroke="rgb(204, 204, 204)" stroke-width="1px"></line><line x1="50" y1="32.18181818181817" x2="45" y2="32.18181818181817" style="visibility: inherit;" fill="rgb(0, 0, 0)" stroke="rgb(204, 204, 204)" stroke-width="1px"></line><line x1="50" y1="16.090909090909097" x2="45" y2="16.090909090909097" style="visibility: inherit;" fill="rgb(0, 0, 0)" stroke="rgb(204, 204, 204)" stroke-width="1px"></line><line x1="50" y1="0" x2="45" y2="0" style="visibility: inherit;" fill="rgb(0, 0, 0)" stroke="rgb(204, 204, 204)" stroke-width="1px"></line></g><g transform="translate(40, 0)"><text x="0" y="177" dx="0em" dy="0.3em" style="text-anchor: end; visibility: hidden; font-family: Roboto, sans-serif; font-size: 12px; font-weight: 200;" fill="rgb(33, 33, 33)" stroke="none" stroke-width="1px">0.1</text><text x="0" y="160.90909090909093" dx="0em" dy="0.3em" style="text-anchor: end; visibility: inherit; font-family: Roboto, sans-serif; font-size: 12px; font-weight: 200;" fill="rgb(33, 33, 33)" stroke="none" stroke-width="1px">0.15</text><text x="0" y="144.8181818181818" dx="0em" dy="0.3em" style="text-anchor: end; visibility: hidden; font-family: Roboto, sans-serif; font-size: 12px; font-weight: 200;" fill="rgb(33, 33, 33)" stroke="none" stroke-width="1px">0.2</text><text x="0" y="128.72727272727272" dx="0em" dy="0.3em" style="text-anchor: end; visibility: inherit; font-family: Roboto, sans-serif; font-size: 12px; font-weight: 200;" fill="rgb(33, 33, 33)" stroke="none" stroke-width="1px">0.25</text><text x="0" y="112.63636363636365" dx="0em" dy="0.3em" style="text-anchor: end; visibility: hidden; font-family: Roboto, sans-serif; font-size: 12px; font-weight: 200;" fill="rgb(33, 33, 33)" stroke="none" stroke-width="1px">0.3</text><text x="0" y="96.54545454545456" dx="0em" dy="0.3em" style="text-anchor: end; visibility: inherit; font-family: Roboto, sans-serif; font-size: 12px; font-weight: 200;" fill="rgb(33, 33, 33)" stroke="none" stroke-width="1px">0.35</text><text x="0" y="80.45454545454544" dx="0em" dy="0.3em" style="text-anchor: end; visibility: hidden; font-family: Roboto, sans-serif; font-size: 12px; font-weight: 200;" fill="rgb(33, 33, 33)" stroke="none" stroke-width="1px">0.4</text><text x="0" y="64.36363636363639" dx="0em" dy="0.3em" style="text-anchor: end; visibility: inherit; font-family: Roboto, sans-serif; font-size: 12px; font-weight: 200;" fill="rgb(33, 33, 33)" stroke="none" stroke-width="1px">0.45</text><text x="0" y="48.272727272727266" dx="0em" dy="0.3em" style="text-anchor: end; visibility: hidden; font-family: Roboto, sans-serif; font-size: 12px; font-weight: 200;" fill="rgb(33, 33, 33)" stroke="none" stroke-width="1px">0.5</text><text x="0" y="32.18181818181817" dx="0em" dy="0.3em" style="text-anchor: end; visibility: inherit; font-family: Roboto, sans-serif; font-size: 12px; font-weight: 200;" fill="rgb(33, 33, 33)" stroke="none" stroke-width="1px">0.55</text><text x="0" y="16.090909090909097" dx="0em" dy="0.3em" style="text-anchor: end; visibility: hidden; font-family: Roboto, sans-serif; font-size: 12px; font-weight: 200;" fill="rgb(33, 33, 33)" stroke="none" stroke-width="1px">0.6</text><text x="0" y="0" dx="0em" dy="0.3em" style="text-anchor: end; visibility: hidden; font-family: Roboto, sans-serif; font-size: 12px; font-weight: 200;" fill="rgb(33, 33, 33)" stroke="none" stroke-width="1px">0.65</text></g><line x1="50" y1="0" x2="50" y2="177" fill="rgb(0, 0, 0)" stroke="rgb(204, 204, 204)" stroke-width="1px"></line></g></g><g transform="translate(50, 0)" clip-path="url(#clip_0)"><clipPath id="clip_0"><rect width="280" height="177"></rect></clipPath><g><g><g><line x1="0" y1="0" x2="0" y2="177" fill="rgb(0, 0, 0)" stroke="rgb(66, 66, 66)" stroke-width="1px" opacity="0.25"></line><line x1="25.454545454545457" y1="0" x2="25.454545454545457" y2="177" fill="rgb(0, 0, 0)" stroke="rgb(66, 66, 66)" stroke-width="1px" opacity="0.25"></line><line x1="50.909090909090914" y1="0" x2="50.909090909090914" y2="177" fill="rgb(0, 0, 0)" stroke="rgb(66, 66, 66)" stroke-width="1px" opacity="0.25"></line><line x1="76.36363636363636" y1="0" x2="76.36363636363636" y2="177" fill="rgb(0, 0, 0)" stroke="rgb(66, 66, 66)" stroke-width="1px" opacity="0.25"></line><line x1="101.81818181818183" y1="0" x2="101.81818181818183" y2="177" fill="rgb(0, 0, 0)" stroke="rgb(66, 66, 66)" stroke-width="1px" opacity="0.25"></line><line x1="127.27272727272727" y1="0" x2="127.27272727272727" y2="177" fill="rgb(0, 0, 0)" stroke="rgb(66, 66, 66)" stroke-width="1px" opacity="0.25"></line><line x1="152.72727272727272" y1="0" x2="152.72727272727272" y2="177" fill="rgb(0, 0, 0)" stroke="rgb(66, 66, 66)" stroke-width="1px" opacity="0.25"></line><line x1="178.1818181818182" y1="0" x2="178.1818181818182" y2="177" fill="rgb(0, 0, 0)" stroke="rgb(66, 66, 66)" stroke-width="1px" opacity="0.25"></line><line x1="203.63636363636365" y1="0" x2="203.63636363636365" y2="177" fill="rgb(0, 0, 0)" stroke="rgb(66, 66, 66)" stroke-width="1px" opacity="0.25"></line><line x1="229.0909090909091" y1="0" x2="229.0909090909091" y2="177" fill="rgb(0, 0, 0)" stroke="rgb(66, 66, 66)" stroke-width="1px" opacity="0.25"></line><line x1="254.54545454545453" y1="0" x2="254.54545454545453" y2="177" fill="rgb(0, 0, 0)" stroke="rgb(66, 66, 66)" stroke-width="1px" opacity="0.25"></line><line x1="280" y1="0" x2="280" y2="177" fill="rgb(0, 0, 0)" stroke="rgb(66, 66, 66)" stroke-width="1px" opacity="0.25"></line></g><g><line x1="0" y1="177" x2="280" y2="177" fill="rgb(0, 0, 0)" stroke="rgb(66, 66, 66)" stroke-width="1px" opacity="0.25"></line><line x1="0" y1="160.90909090909093" x2="280" y2="160.90909090909093" fill="rgb(0, 0, 0)" stroke="rgb(66, 66, 66)" stroke-width="1px" opacity="0.25"></line><line x1="0" y1="144.8181818181818" x2="280" y2="144.8181818181818" fill="rgb(0, 0, 0)" stroke="rgb(66, 66, 66)" stroke-width="1px" opacity="0.25"></line><line x1="0" y1="128.72727272727272" x2="280" y2="128.72727272727272" fill="rgb(0, 0, 0)" stroke="rgb(66, 66, 66)" stroke-width="1px" opacity="0.25"></line><line x1="0" y1="112.63636363636365" x2="280" y2="112.63636363636365" fill="rgb(0, 0, 0)" stroke="rgb(66, 66, 66)" stroke-width="1px" opacity="0.25"></line><line x1="0" y1="96.54545454545456" x2="280" y2="96.54545454545456" fill="rgb(0, 0, 0)" stroke="rgb(66, 66, 66)" stroke-width="1px" opacity="0.25"></line><line x1="0" y1="80.45454545454544" x2="280" y2="80.45454545454544" fill="rgb(0, 0, 0)" stroke="rgb(66, 66, 66)" stroke-width="1px" opacity="0.25"></line><line x1="0" y1="64.36363636363639" x2="280" y2="64.36363636363639" fill="rgb(0, 0, 0)" stroke="rgb(66, 66, 66)" stroke-width="1px" opacity="0.25"></line><line x1="0" y1="48.272727272727266" x2="280" y2="48.272727272727266" fill="rgb(0, 0, 0)" stroke="rgb(66, 66, 66)" stroke-width="1px" opacity="0.25"></line><line x1="0" y1="32.18181818181817" x2="280" y2="32.18181818181817" fill="rgb(0, 0, 0)" stroke="rgb(66, 66, 66)" stroke-width="1px" opacity="0.25"></line><line x1="0" y1="16.090909090909097" x2="280" y2="16.090909090909097" fill="rgb(0, 0, 0)" stroke="rgb(66, 66, 66)" stroke-width="1px" opacity="0.25"></line><line x1="0" y1="0" x2="280" y2="0" fill="rgb(0, 0, 0)" stroke="rgb(66, 66, 66)" stroke-width="1px" opacity="0.25"></line></g></g></g><g><g><line x1="0" y1="209.1818181818182" x2="280" y2="209.1818181818182" fill="rgb(0, 0, 0)" stroke="rgb(153, 153, 153)" stroke-width="1.5px"></line></g></g><g><g><line x1="25.454545454545457" y1="0" x2="25.454545454545457" y2="177" fill="rgb(0, 0, 0)" stroke="rgb(153, 153, 153)" stroke-width="1.5px"></line></g></g><g><g><g><g><g><path stroke="rgb(187, 187, 187)" stroke-width="2px" d="M25.454545454545457,153.6382007653063L50.909090909090914,154.24510877105325L76.36363636363636,154.657149892017L101.81818181818183,154.7590340404388L127.27272727272727,154.38680154255877L152.72727272727272,154.15832402867423L178.1818181818182,153.8893170184578L203.63636363636365,153.7528529005835" style="fill: none;" fill="none"></path></g><g><path stroke="rgb(0, 153, 136)" stroke-width="2px" d="M25.454545454545457,142.07238414612684L50.909090909090914,150.4827448949218L76.36363636363636,155.78916227485786L101.81818181818183,159.76652679570458L127.27272727272727,163.45610375574248L152.72727272727272,167.06211879745615L178.1818181818182,169.48959349499535L203.63636363636365,171.08431967377092" style="fill: none;" fill="none"></path></g><g><path stroke="rgb(238, 51, 119)" stroke-width="2px" d="M25.454545454545457,130.99074640599164L50.909090909090914,132.21671592308715L76.36363636363636,132.76643795228404L101.81818181818183,133.31286392711542L127.27272727272727,133.46717941959562L152.72727272727272,133.33494179396612L178.1818181818182,133.24432996001661L203.63636363636365,133.08787198582118L229.0909090909091,133.02452935197743" style="fill: none;" fill="none"></path></g><g><path stroke="rgb(51, 187, 238)" stroke-width="2px" d="M25.454545454545457,120.02032028545032L50.909090909090914,129.31138309429994L76.36363636363636,135.1860871904414L101.81818181818183,139.45662040506457L127.27272727272727,143.4144098905312L152.72727272727272,147.09014847229182L178.1818181818182,150.8865837814594L203.63636363636365,153.4203656977535L229.0909090909091,155.20760652213042" style="fill: none;" fill="none"></path></g><g><path stroke="rgb(51, 187, 238)" stroke-width="2px" d="M25.454545454545457,125.34029362418435L50.909090909090914,125.35560314492747L76.36363636363636,125.79280149339526L101.81818181818183,125.99331707423703L127.27272727272727,125.44099997821333L152.72727272727272,125.55108316411334L178.1818181818182,125.68689057655027L203.63636363636365,125.74507585928367L229.0909090909091,125.7649153551264" style="fill: none;" fill="none"></path></g><g><path stroke="rgb(204, 51, 17)" stroke-width="2px" d="M25.454545454545457,118.38548885692249L50.909090909090914,125.47388987310909L76.36363636363636,129.51801557808508L101.81818181818183,132.79056558259987L127.27272727272727,135.55062635867623L152.72727272727272,138.51682120155712L178.1818181818182,140.45587891919706L203.63636363636365,141.92864351688786L229.0909090909091,142.90830746454512" style="fill: none;" fill="none"></path></g><g><path stroke="rgb(0, 119, 187)" stroke-width="2px" d="M25.454545454545457,9.55708089741795L50.909090909090914,11.02993591807107L76.36363636363636,11.65695025482957L101.81818181818183,11.734915053621364L127.27272727272727,11.61403723411642L152.72727272727272,11.491442662039782L178.1818181818182,11.402020325276471L203.63636363636365,11.36016474797468" style="fill: none;" fill="none"></path></g><g><path stroke="rgb(255, 112, 67)" stroke-width="2px" d="M25.454545454545457,-3.803678122433735L50.909090909090914,5.097435487942275L76.36363636363636,10.77349296792763L101.81818181818183,15.642919552198693L127.27272727272727,19.84726623422107L152.72727272727272,24.55003895250956L178.1818181818182,27.681273060198404L203.63636363636365,30.0019011704437" style="fill: none;" fill="none"></path></g><g><path stroke="rgb(255, 112, 67)" stroke-width="2px" d="M25.454545454545457,150.9220496145162L50.909090909090914,152.51785735040903L76.36363636363636,153.8062313983082L101.81818181818183,154.11801485478242L127.27272727272727,154.29441122633148L152.72727272727272,154.2828724431306L178.1818181818182,154.1920421610578L203.63636363636365,154.1202728893852" style="fill: none;" fill="none"></path></g><g><path stroke="rgb(187, 187, 187)" stroke-width="2px" d="M25.454545454545457,137.16329100998968L50.909090909090914,147.70438757674262L76.36363636363636,153.2892645576447L101.81818181818183,157.31590510384842L127.27272727272727,160.43563386890972L152.72727272727272,163.65278541141683L178.1818181818182,165.75959275236417L203.63636363636365,167.21734326058132" style="fill: none;" fill="none"></path></g><g><path stroke="rgb(0, 153, 136)" stroke-width="2px" d="M25.454545454545457,128.23177655176684L50.909090909090914,130.34394493021748L76.36363636363636,131.39313080691232L101.81818181818183,132.00061134320688L127.27272727272727,132.24625929335934L152.72727272727272,132.33269024128L178.1818181818182,132.26541990224447L203.63636363636365,132.06341977552054L229.0909090909091,131.94720352146703" style="fill: none;" fill="none"></path></g><g><path stroke="rgb(238, 51, 119)" stroke-width="2px" d="M25.454545454545457,115.75524365901947L50.909090909090914,127.05008236047897L76.36363636363636,133.20637289624045L101.81818181818183,137.98858516131415L127.27272727272727,141.8594255067672L152.72727272727272,145.644806229641L178.1818181818182,149.346520389827L203.63636363636365,151.75011509353246L229.0909090909091,153.45118187099862" style="fill: none;" fill="none"></path></g><g><path stroke="rgb(238, 51, 119)" stroke-width="2px" d="M25.454545454545457,125.58920700983569L50.909090909090914,125.79590951719068L76.36363636363636,125.72192296070602L101.81818181818183,125.43687643218327L127.27272727272727,125.28872692506778L152.72727272727272,125.17009427193355L178.1818181818182,125.09000014754537" style="fill: none;" fill="none"></path></g><g><path stroke="rgb(51, 187, 238)" stroke-width="2px" d="M25.454545454545457,116.45996595512739L50.909090909090914,124.25682193718173L76.36363636363636,128.98930386167734L101.81818181818183,133.02529678718852L127.27272727272727,136.67234258555172L152.72727272727272,138.96915527380776L178.1818181818182,140.52711935505752" style="fill: none;" fill="none"></path></g><g><path stroke="rgb(204, 51, 17)" stroke-width="2px" d="M25.454545454545457,8.990161072124133L50.909090909090914,9.687193840742111L76.36363636363636,10.303380458828254L101.81818181818183,10.830268639373925L127.27272727272727,10.807143441420425L152.72727272727272,10.607241197324923L178.1818181818182,10.567823301887614L203.63636363636365,10.477442441131288L229.0909090909091,10.407872069495548" style="fill: none;" fill="none"></path></g><g><path stroke="rgb(0, 119, 187)" stroke-width="2px" d="M25.454545454545457,-7.078232353383795L50.909090909090914,3.1887254850431046L76.36363636363636,9.327858472357015L101.81818181818183,14.232199154834095L127.27272727272727,19.018794701111602L152.72727272727272,23.636259018344685L178.1818181818182,28.248439013353877L203.63636363636365,31.542860007106636L229.0909090909091,33.75025943493215" style="fill: none;" fill="none"></path></g><g><path stroke="rgb(0, 119, 187)" stroke-width="2px" d="M25.454545454545457,152.25703502785075L50.909090909090914,153.697442736138L76.36363636363636,154.143333475864L101.81818181818183,152.9941023448333L127.27272727272727,153.4174287233862L152.72727272727272,153.51543956281745L178.1818181818182,153.56776195786975L203.63636363636365,153.58969776799893" style="fill: none;" fill="none"></path></g><g><path stroke="rgb(255, 112, 67)" stroke-width="2px" d="M25.454545454545457,141.24101842533457L50.909090909090914,150.00519754398954L76.36363636363636,155.0588453119009L101.81818181818183,159.0488315689811L127.27272727272727,162.78456664374932L152.72727272727272,165.2884652270409L178.1818181818182,167.083369286913L203.63636363636365,168.12948381652845" style="fill: none;" fill="none"></path></g><g><path stroke="rgb(187, 187, 187)" stroke-width="2px" d="M25.454545454545457,131.7689783789895L50.909090909090914,131.97888785329735L76.36363636363636,132.29826946581449L101.81818181818183,132.7159194687511L127.27272727272727,132.99282765221156L152.72727272727272,132.88329160016676L178.1818181818182,132.55602570140252L203.63636363636365,132.18189455832402L229.0909090909091,131.89309276766764L254.54545454545453,131.7089834118479" style="fill: none;" fill="none"></path></g><g><path stroke="rgb(0, 153, 136)" stroke-width="2px" d="M25.454545454545457,118.58174804123966L50.909090909090914,128.26596701551568L76.36363636363636,134.03559905688707L101.81818181818183,138.40033519419438L127.27272727272727,142.16527142690023L152.72727272727272,145.79453403388482L178.1818181818182,149.22685182928794L203.63636363636365,152.7430690458315L229.0909090909091,155.12378292684548L254.54545454545453,156.90355884275016" style="fill: none;" fill="none"></path></g><g><path stroke="rgb(0, 153, 136)" stroke-width="2px" d="M25.454545454545457,123.04850272698835L50.909090909090914,124.35138849914074L76.36363636363636,124.88975463572595L101.81818181818183,125.38696908002552L127.27272727272727,125.60144787750428L152.72727272727272,125.4311861223951L178.1818181818182,125.24787853177702L203.63636363636365,125.13129603991456L229.0909090909091,125.08847323601745" style="fill: none;" fill="none"></path></g><g><path stroke="rgb(238, 51, 119)" stroke-width="2px" d="M25.454545454545457,114.1464803760702L50.909090909090914,123.11996354162693L76.36363636363636,127.79791295959689L101.81818181818183,130.85346297369924L127.27272727272727,133.48445786459126L152.72727272727272,135.9094645134663L178.1818181818182,138.46637934158045L203.63636363636365,140.05419577677947L229.0909090909091,141.29059180343924" style="fill: none;" fill="none"></path></g><g><path stroke="rgb(51, 187, 238)" stroke-width="2px" d="M25.454545454545457,7.2389341267672505L50.909090909090914,7.6312031312422395L76.36363636363636,9.363158572361533L101.81818181818183,9.672145813862938L127.27272727272727,9.89893507936402L152.72727272727272,9.835299684033258L178.1818181818182,9.673326402808506L203.63636363636365,9.591751697248501" style="fill: none;" fill="none"></path></g><g><path stroke="rgb(204, 51, 17)" stroke-width="2px" d="M25.454545454545457,-6.715771956877267L50.909090909090914,3.9827057637951753L76.36363636363636,9.982102337927465L101.81818181818183,15.133053061796419L127.27272727272727,19.773298339207237L152.72727272727272,24.930982959964815L178.1818181818182,28.329438341685492L203.63636363636365,30.841130935759548" style="fill: none;" fill="none"></path></g></g></g></g><g opacity="0.2"><g><g><g><path stroke="rgb(187, 187, 187)" stroke-width="2px" d="M25.454545454545457,153.6382007653063L50.909090909090914,154.6092535745014L76.36363636363636,155.05270936814222L101.81818181818183,154.8788497989828L127.27272727272727,153.90081479332665L152.72727272727272,153.84225737506694L178.1818181818182,153.5046326897361L203.63636363636365,153.5538869066672" style="fill: none;" fill="none"></path></g><g><path stroke="rgb(0, 153, 136)" stroke-width="2px" d="M25.454545454545457,142.07238414612684L50.909090909090914,155.52896134419873L76.36363636363636,160.88332295959646L101.81818181818183,164.44390747222033L127.27272727272727,168.273215434768L152.72727272727272,172.0505357655612L178.1818181818182,172.9609211520715L203.63636363636365,173.40944575179708" style="fill: none;" fill="none"></path></g><g><path stroke="rgb(238, 51, 119)" stroke-width="2px" d="M25.454545454545457,130.99074640599164L50.909090909090914,132.95229763334447L76.36363636363636,133.294171100313L101.81818181818183,133.95546087351713L127.27272727272727,133.66865372657776L152.72727272727272,133.15200955217534L178.1818181818182,133.11475358767944L203.63636363636365,132.8597547574477L229.0909090909091,132.93111127073115" style="fill: none;" fill="none"></path></g><g><path stroke="rgb(51, 187, 238)" stroke-width="2px" d="M25.454545454545457,120.02032028545032L50.909090909090914,134.88602077960968L76.36363636363636,140.8258031227372L101.81818181818183,144.47876746546137L127.27272727272727,148.58169984275645L152.72727272727272,152.17501819675618L178.1818181818182,156.31554701653394L203.63636363636365,157.11464405601674L229.0909090909091,157.8434395844286" style="fill: none;" fill="none"></path></g><g><path stroke="rgb(51, 187, 238)" stroke-width="2px" d="M25.454545454545457,125.34029362418435L50.909090909090914,125.36478885737333L76.36363636363636,126.21251190792432L101.81818181818183,126.22912339730695L127.27272727272727,124.71989477764478L152.72727272727272,125.70336784016004L178.1818181818182,125.88109734925358L203.63636363636365,125.82991056008771L229.0909090909091,125.79417475787076" style="fill: none;" fill="none"></path></g><g><path stroke="rgb(204, 51, 17)" stroke-width="2px" d="M25.454545454545457,118.38548885692249L50.909090909090914,129.72693048282102L76.36363636363636,133.400376254862L101.81818181818183,136.6390843879093L127.27272727272727,139.15416170792147L152.72727272727272,142.6201364994049L178.1818181818182,143.22876248034567L203.63636363636365,144.07594843886116L229.0909090909091,144.35312149741432" style="fill: none;" fill="none"></path></g><g><path stroke="rgb(0, 119, 187)" stroke-width="2px" d="M25.454545454545457,9.55708089741795L50.909090909090914,11.91364893046293L76.36363636363636,12.25888401811774L101.81818181818183,11.82660165700047L127.27272727272727,11.456219152970755L152.72727272727272,11.321850234811967L178.1818181818182,11.274144952947452L203.63636363636365,11.299138914455066" style="fill: none;" fill="none"></path></g><g><path stroke="rgb(255, 112, 67)" stroke-width="2px" d="M25.454545454545457,-3.803678122433735L50.909090909090914,10.438103654167872L76.36363636363636,16.22250814871355L101.81818181818183,21.369365215301514L127.27272727272727,25.33646126226946L152.72727272727272,31.055666620081134L178.1818181818182,32.158987933939166L203.63636363636365,33.38539923321117" style="fill: none;" fill="none"></path></g><g><path stroke="rgb(255, 112, 67)" stroke-width="2px" d="M25.454545454545457,150.9220496145162L50.909090909090914,153.47534199194476L76.36363636363636,155.04307048429143L101.81818181818183,154.48467219959605L127.27272727272727,154.52471432902595L152.72727272727272,154.26691015200183L178.1818181818182,154.06215340440923L203.63636363636365,154.01563260230154" style="fill: none;" fill="none"></path></g><g><path stroke="rgb(187, 187, 187)" stroke-width="2px" d="M25.454545454545457,137.16329100998968L50.909090909090914,154.02904551679438L76.36363636363636,158.6507464593107L101.81818181818183,162.051234386184L127.27272727272727,164.50875174457377L152.72727272727272,168.10326416925952L178.1818181818182,168.7723609588363L203.63636363636365,169.34275749596682" style="fill: none;" fill="none"></path></g><g><path stroke="rgb(0, 153, 136)" stroke-width="2px" d="M25.454545454545457,128.23177655176684L50.909090909090914,131.61124595728788L76.36363636363636,132.40034924853933L101.81818181818183,132.71500845388934L127.27272727272727,132.56697725707835L152.72727272727272,132.45225535739553L178.1818181818182,132.16922224109823L203.63636363636365,131.76890165155584L229.0909090909091,131.77580712058327" style="fill: none;" fill="none"></path></g><g><path stroke="rgb(238, 51, 119)" stroke-width="2px" d="M25.454545454545457,115.75524365901947L50.909090909090914,133.82698558135468L76.36363636363636,139.1164118105715L101.81818181818183,143.6124667850408L127.27272727272727,146.91319466179067L152.72727272727272,150.88135050643575L178.1818181818182,154.64003086631948L203.63636363636365,155.25457924604416L229.0909090909091,155.95992495255038" style="fill: none;" fill="none"></path></g><g><path stroke="rgb(238, 51, 119)" stroke-width="2px" d="M25.454545454545457,125.58920700983569L50.909090909090914,125.91993102160367L76.36363636363636,125.65089586648075L101.81818181818183,125.10166171464054L127.27272727272727,125.09530292857777L152.72727272727272,125.00598260489377L178.1818181818182,124.97546426816419" style="fill: none;" fill="none"></path></g><g><path stroke="rgb(51, 187, 238)" stroke-width="2px" d="M25.454545454545457,116.45996595512739L50.909090909090914,128.93493552641436L76.36363636363636,133.53248650919306L101.81818181818183,137.77162446758965L127.27272727272727,141.43392557989466L152.72727272727272,142.14647407423365L178.1818181818182,142.75503291866997" style="fill: none;" fill="none"></path></g><g><path stroke="rgb(204, 51, 17)" stroke-width="2px" d="M25.454545454545457,8.990161072124133L50.909090909090914,10.105413501912906L76.36363636363636,10.894919612190943L101.81818181818183,11.449889139695609L127.27272727272727,10.776951182972303L152.72727272727272,10.330704428932886L178.1818181818182,10.511455080725947L203.63636363636365,10.345666278492322L229.0909090909091,10.305269284681852" style="fill: none;" fill="none"></path></g><g><path stroke="rgb(0, 119, 187)" stroke-width="2px" d="M25.454545454545457,-7.078232353383834L50.909090909090914,9.348900188099256L76.36363636363636,15.221426140178332L101.81818181818183,19.999703797427106L127.27272727272727,25.268173846331525L152.72727272727272,30.023874456232257L178.1818181818182,34.843930201096974L203.63636363636365,36.34615744243968L229.0909090909091,37.00574482570995" style="fill: none;" fill="none"></path></g><g><path stroke="rgb(0, 119, 187)" stroke-width="2px" d="M25.454545454545457,152.25703502785075L50.909090909090914,154.56168736111033L76.36363636363636,154.57138858600095L101.81818181818183,151.64260653474113L127.27272727272727,153.9701236432249L152.72727272727272,153.6510238376531L178.1818181818182,153.6425838199529L203.63636363636365,153.62168038975108" style="fill: none;" fill="none"></path></g><g><path stroke="rgb(255, 112, 67)" stroke-width="2px" d="M25.454545454545457,141.24101842533457L50.909090909090914,155.2637050151825L76.36363636363636,159.91034716909581L101.81818181818183,163.74105540730736L127.27272727272727,167.66194235736674L152.72727272727272,168.7522583712231L178.1818181818182,169.6501108109951L203.63636363636365,169.65472884340718" style="fill: none;" fill="none"></path></g><g><path stroke="rgb(187, 187, 187)" stroke-width="2px" d="M25.454545454545457,131.7689783789895L50.909090909090914,132.10483353788203L76.36363636363636,132.604875813831L101.81818181818183,133.2070758722045L127.27272727272727,133.35435897653753L152.72727272727272,132.73176380721006L178.1818181818182,132.0880302299153L203.63636363636365,131.63640776005658L229.0909090909091,131.46716622330925L254.54545454545453,131.43560247529638" style="fill: none;" fill="none"></path></g><g><path stroke="rgb(0, 153, 136)" stroke-width="2px" d="M25.454545454545457,118.58174804123966L50.909090909090914,134.07649840008128L76.36363636363636,139.5744458166036L101.81818181818183,143.5332648916678L127.27272727272727,147.08077217232096L152.72727272727272,150.815110753883L178.1818181818182,154.1351211937991L203.63636363636365,157.86974750323728L229.0909090909091,158.63487347147682L254.54545454545453,159.54631865566427" style="fill: none;" fill="none"></path></g><g><path stroke="rgb(0, 153, 136)" stroke-width="2px" d="M25.454545454545457,123.04850272698835L50.909090909090914,125.13311996243216L76.36363636363636,125.40658612684771L101.81818181818183,125.9716932665218L127.27272727272727,125.88147139549255L152.72727272727272,125.19565282084726L178.1818181818182,124.98574574427172L203.63636363636365,124.96131764758717L229.0909090909091,125.0253179181706" style="fill: none;" fill="none"></path></g><g><path stroke="rgb(238, 51, 119)" stroke-width="2px" d="M25.454545454545457,114.1464803760702L50.909090909090914,128.50405344096097L76.36363636363636,132.28874440084806L101.81818181818183,134.44678979028356L127.27272727272727,136.91948479413986L152.72727272727272,139.26412171125412L178.1818181818182,142.1228084564209L203.63636363636365,142.3692473823374L229.0909090909091,143.1140357851982" style="fill: none;" fill="none"></path></g><g><path stroke="rgb(51, 187, 238)" stroke-width="2px" d="M25.454545454545457,7.2389341267672505L50.909090909090914,7.86656453392724L76.36363636363636,11.025835795836027L101.81818181818183,10.035514809868555L127.27272727272727,10.195031144402247L152.72727272727272,9.747269023548474L178.1818181818182,9.441702019084582L203.63636363636365,9.472814993424857" style="fill: none;" fill="none"></path></g><g><path stroke="rgb(204, 51, 17)" stroke-width="2px" d="M25.454545454545457,-6.715771956877267L50.909090909090914,10.401792396198621L76.36363636363636,15.741523049094457L101.81818181818183,21.19057111306625L127.27272727272727,25.831602573394775L152.72727272727272,32.0659175569361L178.1818181818182,33.189283912832096L203.63636363636365,34.503202850168414" style="fill: none;" fill="none"></path></g></g></g></g></g></g><g transform="translate(50, 177)" clip-path="url(#clip_1)"><clipPath id="clip_1"><rect width="280" height="23"></rect></clipPath><g><g><line x1="0" y1="0" x2="0" y2="5" style="visibility: inherit;" fill="rgb(0, 0, 0)" stroke="rgb(204, 204, 204)" stroke-width="1px"></line><line x1="25.454545454545457" y1="0" x2="25.454545454545457" y2="5" style="visibility: inherit;" fill="rgb(0, 0, 0)" stroke="rgb(204, 204, 204)" stroke-width="1px"></line><line x1="50.909090909090914" y1="0" x2="50.909090909090914" y2="5" style="visibility: inherit;" fill="rgb(0, 0, 0)" stroke="rgb(204, 204, 204)" stroke-width="1px"></line><line x1="76.36363636363636" y1="0" x2="76.36363636363636" y2="5" style="visibility: inherit;" fill="rgb(0, 0, 0)" stroke="rgb(204, 204, 204)" stroke-width="1px"></line><line x1="101.81818181818183" y1="0" x2="101.81818181818183" y2="5" style="visibility: inherit;" fill="rgb(0, 0, 0)" stroke="rgb(204, 204, 204)" stroke-width="1px"></line><line x1="127.27272727272727" y1="0" x2="127.27272727272727" y2="5" style="visibility: inherit;" fill="rgb(0, 0, 0)" stroke="rgb(204, 204, 204)" stroke-width="1px"></line><line x1="152.72727272727272" y1="0" x2="152.72727272727272" y2="5" style="visibility: inherit;" fill="rgb(0, 0, 0)" stroke="rgb(204, 204, 204)" stroke-width="1px"></line><line x1="178.1818181818182" y1="0" x2="178.1818181818182" y2="5" style="visibility: inherit;" fill="rgb(0, 0, 0)" stroke="rgb(204, 204, 204)" stroke-width="1px"></line><line x1="203.63636363636365" y1="0" x2="203.63636363636365" y2="5" style="visibility: inherit;" fill="rgb(0, 0, 0)" stroke="rgb(204, 204, 204)" stroke-width="1px"></line><line x1="229.0909090909091" y1="0" x2="229.0909090909091" y2="5" style="visibility: inherit;" fill="rgb(0, 0, 0)" stroke="rgb(204, 204, 204)" stroke-width="1px"></line><line x1="254.54545454545453" y1="0" x2="254.54545454545453" y2="5" style="visibility: inherit;" fill="rgb(0, 0, 0)" stroke="rgb(204, 204, 204)" stroke-width="1px"></line><line x1="280" y1="0" x2="280" y2="5" style="visibility: inherit;" fill="rgb(0, 0, 0)" stroke="rgb(204, 204, 204)" stroke-width="1px"></line></g><g transform="translate(0, 8)"><text x="0" y="0" dx="0em" dy="0.95em" style="text-anchor: middle; visibility: hidden; font-family: Roboto, sans-serif; font-size: 12px; font-weight: 200;" fill="rgb(33, 33, 33)" stroke="none" stroke-width="1px">-1</text><text x="25.454545454545457" y="0" dx="0em" dy="0.95em" style="text-anchor: middle; visibility: inherit; font-family: Roboto, sans-serif; font-size: 12px; font-weight: 200;" fill="rgb(33, 33, 33)" stroke="none" stroke-width="1px">0</text><text x="50.909090909090914" y="0" dx="0em" dy="0.95em" style="text-anchor: middle; visibility: inherit; font-family: Roboto, sans-serif; font-size: 12px; font-weight: 200;" fill="rgb(33, 33, 33)" stroke="none" stroke-width="1px">1</text><text x="76.36363636363636" y="0" dx="0em" dy="0.95em" style="text-anchor: middle; visibility: inherit; font-family: Roboto, sans-serif; font-size: 12px; font-weight: 200;" fill="rgb(33, 33, 33)" stroke="none" stroke-width="1px">2</text><text x="101.81818181818183" y="0" dx="0em" dy="0.95em" style="text-anchor: middle; visibility: inherit; font-family: Roboto, sans-serif; font-size: 12px; font-weight: 200;" fill="rgb(33, 33, 33)" stroke="none" stroke-width="1px">3</text><text x="127.27272727272727" y="0" dx="0em" dy="0.95em" style="text-anchor: middle; visibility: inherit; font-family: Roboto, sans-serif; font-size: 12px; font-weight: 200;" fill="rgb(33, 33, 33)" stroke="none" stroke-width="1px">4</text><text x="152.72727272727272" y="0" dx="0em" dy="0.95em" style="text-anchor: middle; visibility: inherit; font-family: Roboto, sans-serif; font-size: 12px; font-weight: 200;" fill="rgb(33, 33, 33)" stroke="none" stroke-width="1px">5</text><text x="178.1818181818182" y="0" dx="0em" dy="0.95em" style="text-anchor: middle; visibility: inherit; font-family: Roboto, sans-serif; font-size: 12px; font-weight: 200;" fill="rgb(33, 33, 33)" stroke="none" stroke-width="1px">6</text><text x="203.63636363636365" y="0" dx="0em" dy="0.95em" style="text-anchor: middle; visibility: inherit; font-family: Roboto, sans-serif; font-size: 12px; font-weight: 200;" fill="rgb(33, 33, 33)" stroke="none" stroke-width="1px">7</text><text x="229.0909090909091" y="0" dx="0em" dy="0.95em" style="text-anchor: middle; visibility: inherit; font-family: Roboto, sans-serif; font-size: 12px; font-weight: 200;" fill="rgb(33, 33, 33)" stroke="none" stroke-width="1px">8</text><text x="254.54545454545453" y="0" dx="0em" dy="0.95em" style="text-anchor: middle; visibility: inherit; font-family: Roboto, sans-serif; font-size: 12px; font-weight: 200;" fill="rgb(33, 33, 33)" stroke="none" stroke-width="1px">9</text><text x="280" y="0" dx="0em" dy="0.95em" style="text-anchor: middle; visibility: hidden; font-family: Roboto, sans-serif; font-size: 12px; font-weight: 200;" fill="rgb(33, 33, 33)" stroke="none" stroke-width="1px">10</text></g><line x1="0" y1="0" x2="280" y2="0" fill="rgb(0, 0, 0)" stroke="rgb(204, 204, 204)" stroke-width="1px"></line></g></g></g></g></svg>