<svg viewBox="0 0 330 200" xmlns="http://www.w3.org/2000/svg"><g><g><g><g><g><line x1="50" y1="177" x2="45" y2="177" style="visibility: inherit;" fill="rgb(0, 0, 0)" stroke="rgb(204, 204, 204)" stroke-width="1px"></line><line x1="50" y1="154.87499999999997" x2="45" y2="154.87499999999997" style="visibility: inherit;" fill="rgb(0, 0, 0)" stroke="rgb(204, 204, 204)" stroke-width="1px"></line><line x1="50" y1="132.75" x2="45" y2="132.75" style="visibility: inherit;" fill="rgb(0, 0, 0)" stroke="rgb(204, 204, 204)" stroke-width="1px"></line><line x1="50" y1="110.625" x2="45" y2="110.625" style="visibility: inherit;" fill="rgb(0, 0, 0)" stroke="rgb(204, 204, 204)" stroke-width="1px"></line><line x1="50" y1="88.49999999999999" x2="45" y2="88.49999999999999" style="visibility: inherit;" fill="rgb(0, 0, 0)" stroke="rgb(204, 204, 204)" stroke-width="1px"></line><line x1="50" y1="66.375" x2="45" y2="66.375" style="visibility: inherit;" fill="rgb(0, 0, 0)" stroke="rgb(204, 204, 204)" stroke-width="1px"></line><line x1="50" y1="44.24999999999998" x2="45" y2="44.24999999999998" style="visibility: inherit;" fill="rgb(0, 0, 0)" stroke="rgb(204, 204, 204)" stroke-width="1px"></line><line x1="50" y1="22.12500000000002" x2="45" y2="22.12500000000002" style="visibility: inherit;" fill="rgb(0, 0, 0)" stroke="rgb(204, 204, 204)" stroke-width="1px"></line><line x1="50" y1="0" x2="45" y2="0" style="visibility: inherit;" fill="rgb(0, 0, 0)" stroke="rgb(204, 204, 204)" stroke-width="1px"></line></g><g transform="translate(40, 0)"><text x="0" y="177" dx="0em" dy="0.3em" style="text-anchor: end; visibility: hidden; font-family: Roboto, sans-serif; font-size: 12px; font-weight: 200;" fill="rgb(33, 33, 33)" stroke="none" stroke-width="1px">0.6</text><text x="0" y="154.87499999999997" dx="0em" dy="0.3em" style="text-anchor: end; visibility: inherit; font-family: Roboto, sans-serif; font-size: 12px; font-weight: 200;" fill="rgb(33, 33, 33)" stroke="none" stroke-width="1px">0.65</text><text x="0" y="132.75" dx="0em" dy="0.3em" style="text-anchor: end; visibility: hidden; font-family: Roboto, sans-serif; font-size: 12px; font-weight: 200;" fill="rgb(33, 33, 33)" stroke="none" stroke-width="1px">0.7</text><text x="0" y="110.625" dx="0em" dy="0.3em" style="text-anchor: end; visibility: inherit; font-family: Roboto, sans-serif; font-size: 12px; font-weight: 200;" fill="rgb(33, 33, 33)" stroke="none" stroke-width="1px">0.75</text><text x="0" y="88.49999999999999" dx="0em" dy="0.3em" style="text-anchor: end; visibility: hidden; font-family: Roboto, sans-serif; font-size: 12px; font-weight: 200;" fill="rgb(33, 33, 33)" stroke="none" stroke-width="1px">0.8</text><text x="0" y="66.375" dx="0em" dy="0.3em" style="text-anchor: end; visibility: inherit; font-family: Roboto, sans-serif; font-size: 12px; font-weight: 200;" fill="rgb(33, 33, 33)" stroke="none" stroke-width="1px">0.85</text><text x="0" y="44.24999999999998" dx="0em" dy="0.3em" style="text-anchor: end; visibility: hidden; font-family: Roboto, sans-serif; font-size: 12px; font-weight: 200;" fill="rgb(33, 33, 33)" stroke="none" stroke-width="1px">0.9</text><text x="0" y="22.12500000000002" dx="0em" dy="0.3em" style="text-anchor: end; visibility: inherit; font-family: Roboto, sans-serif; font-size: 12px; font-weight: 200;" fill="rgb(33, 33, 33)" stroke="none" stroke-width="1px">0.95</text><text x="0" y="0" dx="0em" dy="0.3em" style="text-anchor: end; visibility: hidden; font-family: Roboto, sans-serif; font-size: 12px; font-weight: 200;" fill="rgb(33, 33, 33)" stroke="none" stroke-width="1px">1</text></g><line x1="50" y1="0" x2="50" y2="177" fill="rgb(0, 0, 0)" stroke="rgb(204, 204, 204)" stroke-width="1px"></line></g></g><g transform="translate(50, 0)" clip-path="url(#clip_0)"><clipPath id="clip_0"><rect width="280" height="177"></rect></clipPath><g><g><g><line x1="0" y1="0" x2="0" y2="177" fill="rgb(0, 0, 0)" stroke="rgb(66, 66, 66)" stroke-width="1px" opacity="0.25"></line><line x1="25.454545454545457" y1="0" x2="25.454545454545457" y2="177" fill="rgb(0, 0, 0)" stroke="rgb(66, 66, 66)" stroke-width="1px" opacity="0.25"></line><line x1="50.909090909090914" y1="0" x2="50.909090909090914" y2="177" fill="rgb(0, 0, 0)" stroke="rgb(66, 66, 66)" stroke-width="1px" opacity="0.25"></line><line x1="76.36363636363636" y1="0" x2="76.36363636363636" y2="177" fill="rgb(0, 0, 0)" stroke="rgb(66, 66, 66)" stroke-width="1px" opacity="0.25"></line><line x1="101.81818181818183" y1="0" x2="101.81818181818183" y2="177" fill="rgb(0, 0, 0)" stroke="rgb(66, 66, 66)" stroke-width="1px" opacity="0.25"></line><line x1="127.27272727272727" y1="0" x2="127.27272727272727" y2="177" fill="rgb(0, 0, 0)" stroke="rgb(66, 66, 66)" stroke-width="1px" opacity="0.25"></line><line x1="152.72727272727272" y1="0" x2="152.72727272727272" y2="177" fill="rgb(0, 0, 0)" stroke="rgb(66, 66, 66)" stroke-width="1px" opacity="0.25"></line><line x1="178.1818181818182" y1="0" x2="178.1818181818182" y2="177" fill="rgb(0, 0, 0)" stroke="rgb(66, 66, 66)" stroke-width="1px" opacity="0.25"></line><line x1="203.63636363636365" y1="0" x2="203.63636363636365" y2="177" fill="rgb(0, 0, 0)" stroke="rgb(66, 66, 66)" stroke-width="1px" opacity="0.25"></line><line x1="229.0909090909091" y1="0" x2="229.0909090909091" y2="177" fill="rgb(0, 0, 0)" stroke="rgb(66, 66, 66)" stroke-width="1px" opacity="0.25"></line><line x1="254.54545454545453" y1="0" x2="254.54545454545453" y2="177" fill="rgb(0, 0, 0)" stroke="rgb(66, 66, 66)" stroke-width="1px" opacity="0.25"></line><line x1="280" y1="0" x2="280" y2="177" fill="rgb(0, 0, 0)" stroke="rgb(66, 66, 66)" stroke-width="1px" opacity="0.25"></line></g><g><line x1="0" y1="177" x2="280" y2="177" fill="rgb(0, 0, 0)" stroke="rgb(66, 66, 66)" stroke-width="1px" opacity="0.25"></line><line x1="0" y1="154.87499999999997" x2="280" y2="154.87499999999997" fill="rgb(0, 0, 0)" stroke="rgb(66, 66, 66)" stroke-width="1px" opacity="0.25"></line><line x1="0" y1="132.75" x2="280" y2="132.75" fill="rgb(0, 0, 0)" stroke="rgb(66, 66, 66)" stroke-width="1px" opacity="0.25"></line><line x1="0" y1="110.625" x2="280" y2="110.625" fill="rgb(0, 0, 0)" stroke="rgb(66, 66, 66)" stroke-width="1px" opacity="0.25"></line><line x1="0" y1="88.49999999999999" x2="280" y2="88.49999999999999" fill="rgb(0, 0, 0)" stroke="rgb(66, 66, 66)" stroke-width="1px" opacity="0.25"></line><line x1="0" y1="66.375" x2="280" y2="66.375" fill="rgb(0, 0, 0)" stroke="rgb(66, 66, 66)" stroke-width="1px" opacity="0.25"></line><line x1="0" y1="44.24999999999998" x2="280" y2="44.24999999999998" fill="rgb(0, 0, 0)" stroke="rgb(66, 66, 66)" stroke-width="1px" opacity="0.25"></line><line x1="0" y1="22.12500000000002" x2="280" y2="22.12500000000002" fill="rgb(0, 0, 0)" stroke="rgb(66, 66, 66)" stroke-width="1px" opacity="0.25"></line><line x1="0" y1="0" x2="280" y2="0" fill="rgb(0, 0, 0)" stroke="rgb(66, 66, 66)" stroke-width="1px" opacity="0.25"></line></g></g></g><g><g><line x1="0" y1="442.5" x2="280" y2="442.5" fill="rgb(0, 0, 0)" stroke="rgb(153, 153, 153)" stroke-width="1.5px"></line></g></g><g><g><line x1="25.454545454545457" y1="0" x2="25.454545454545457" y2="177" fill="rgb(0, 0, 0)" stroke="rgb(153, 153, 153)" stroke-width="1.5px"></line></g></g><g><g><g><g><g><path stroke="rgb(187, 187, 187)" stroke-width="2px" d="M25.454545454545457,25.64325302839273L50.909090909090914,26.540763191878735L76.36363636363636,25.559520301770174L101.81818181818183,25.503724137430677L127.27272727272727,25.83117227745423L152.72727272727272,25.752325922282743L178.1818181818182,26.382810885308942L203.63636363636365,26.248853924170355" style="fill: none;" fill="none"></path></g><g><path stroke="rgb(0, 153, 136)" stroke-width="2px" d="M25.454545454545457,27.922479808330536L50.909090909090914,25.880094431340694L76.36363636363636,24.451013867344173L101.81818181818183,23.016013114658342L127.27272727272727,21.61337155577294L152.72727272727272,19.841158026619258L178.1818181818182,18.736215282534058L203.63636363636365,17.796628092612096" style="fill: none;" fill="none"></path></g><g><path stroke="rgb(238, 51, 119)" stroke-width="2px" d="M25.454545454545457,37.746871411800385L50.909090909090914,37.234008461236954L76.36363636363636,37.39100732365432L101.81818181818183,37.271718972307845L127.27272727272727,36.67701295975762L152.72727272727272,36.523382031347815L178.1818181818182,36.351501656341874L203.63636363636365,36.25150542917317L229.0909090909091,36.10970010243876" style="fill: none;" fill="none"></path></g><g><path stroke="rgb(51, 187, 238)" stroke-width="2px" d="M25.454545454545457,42.569392025470734L50.909090909090914,38.97696113213897L76.36363636363636,36.40350426034055L101.81818181818183,34.35636173605044L127.27272727272727,32.64148964133634L152.72727272727272,30.9430794449669L178.1818181818182,28.883571689664187L203.63636363636365,27.459866934899207L229.0909090909091,26.52678585158458" style="fill: none;" fill="none"></path></g><g><path stroke="rgb(51, 187, 238)" stroke-width="2px" d="M25.454545454545457,33.438796252012196L50.909090909090914,33.438796252012196L76.36363636363636,33.438796252012196L101.81818181818183,33.533072529689335L127.27272727272727,33.67013623665227L152.72727272727272,33.831293408055664L178.1818181818182,34.176300982207025L203.63636363636365,34.210099056350735L229.0909090909091,34.230010888365776" style="fill: none;" fill="none"></path></g><g><path stroke="rgb(204, 51, 17)" stroke-width="2px" d="M25.454545454545457,36.44220292568207L50.909090909090914,35.20217970013613L76.36363636363636,34.77791809609956L101.81818181818183,34.4030276450383L127.27272727272727,34.19915794447259L152.72727272727272,33.76917758186287L178.1818181818182,33.44035683018498L203.63636363636365,33.22531009747928L229.0909090909091,33.1104043565304" style="fill: none;" fill="none"></path></g><g><path stroke="rgb(0, 119, 187)" stroke-width="2px" d="M25.454545454545457,143.39708760380745L50.909090909090914,141.34561931714416L76.36363636363636,140.40362109639204L101.81818181818183,140.0823099237373L127.27272727272727,140.45228266068662L152.72727272727272,140.05243544657856L178.1818181818182,139.40270369862486L203.63636363636365,139.27508367036882" style="fill: none;" fill="none"></path></g><g><path stroke="rgb(255, 112, 67)" stroke-width="2px" d="M25.454545454545457,165.81348448991778L50.909090909090914,153.08498170226812L76.36363636363636,145.15431543698116L101.81818181818183,139.1480921800523L127.27272727272727,134.07241566232065L152.72727272727272,127.76626939858312L178.1818181818182,124.0202158064003L203.63636363636365,121.00992580103977" style="fill: none;" fill="none"></path></g><g><path stroke="rgb(255, 112, 67)" stroke-width="2px" d="M25.454545454545457,26.668978929519593L50.909090909090914,25.77146876603365L76.36363636363636,26.12471620647272L101.81818181818183,26.563389498521254L127.27272727272727,26.698163358351156L152.72727272727272,26.68591828046465L178.1818181818182,27.01663271607194L203.63636363636365,27.29249498877199" style="fill: none;" fill="none"></path></g><g><path stroke="rgb(187, 187, 187)" stroke-width="2px" d="M25.454545454545457,29.760636538267136L50.909090909090914,27.007047794759274L76.36363636363636,25.58355174502547L101.81818181818183,23.896257895428498L127.27272727272727,22.744575860618667L152.72727272727272,21.489346295927312L178.1818181818182,20.810782065452003L203.63636363636365,20.321045594883174" style="fill: none;" fill="none"></path></g><g><path stroke="rgb(0, 153, 136)" stroke-width="2px" d="M25.454545454545457,40.82404911518097L50.909090909090914,39.54189173877239L76.36363636363636,38.521399133059425L101.81818181818183,38.16545808468673L127.27272727272727,38.33981358781616L152.72727272727272,38.435325195330606L178.1818181818182,38.658540720587304L203.63636363636365,38.87186248824464L229.0909090909091,38.831752198814335" style="fill: none;" fill="none"></path></g><g><path stroke="rgb(238, 51, 119)" stroke-width="2px" d="M25.454545454545457,44.49508756399149L50.909090909090914,39.97263925150031L76.36363636363636,37.39731526800564L101.81818181818183,35.36276684252215L127.27272727272727,33.831471589747416L152.72727272727272,32.13569845213973L178.1818181818182,30.389870665415096L203.63636363636365,29.101176674719422L229.0909090909091,28.22405109100263" style="fill: none;" fill="none"></path></g><g><path stroke="rgb(238, 51, 119)" stroke-width="2px" d="M25.454545454545457,33.438796252012196L50.909090909090914,33.567011989653054L76.36363636363636,33.50159579697918L101.81818181818183,33.84984082268446L127.27272727272727,33.760536784496225L152.72727272727272,33.71161620503753L178.1818181818182,33.68376668766811" style="fill: none;" fill="none"></path></g><g><path stroke="rgb(51, 187, 238)" stroke-width="2px" d="M25.454545454545457,36.675622165203094L50.909090909090914,35.344423670321646L76.36363636363636,34.862471679035494L101.81818181818183,34.435318179209396L127.27272727272727,33.96434289529291L152.72727272727272,33.6941041811004L178.1818181818182,33.48021907348907" style="fill: none;" fill="none"></path></g><g><path stroke="rgb(204, 51, 17)" stroke-width="2px" d="M25.454545454545457,142.78165206313133L50.909090909090914,143.29451501369476L76.36363636363636,144.60283886717292L101.81818181818183,142.91739778209694L127.27272727272727,142.9474981729973L152.72727272727272,142.96398710893624L178.1818181818182,142.29799244781557L203.63636363636365,142.3278414992045L229.0909090909091,142.3454267999095" style="fill: none;" fill="none"></path></g><g><path stroke="rgb(0, 119, 187)" stroke-width="2px" d="M25.454545454545457,163.4793184697628L50.909090909090914,153.59557969495657L76.36363636363636,146.1487190759912L101.81818181818183,140.67773697897795L127.27272727272727,134.609576719532L152.72727272727272,129.5226055544538L178.1818181818182,123.61294547835041L203.63636363636365,119.86621161518529L229.0909090909091,117.1990637285919" style="fill: none;" fill="none"></path></g><g><path stroke="rgb(0, 119, 187)" stroke-width="2px" d="M25.454545454545457,26.25868856906891L50.909090909090914,25.874041356146375L76.36363636363636,25.546960392776796L101.81818181818183,26.72252785524023L127.27272727272727,26.521348428552496L152.72727272727272,26.497216665303043L178.1818181818182,26.483478930239293L203.63636363636365,26.475486617701165" style="fill: none;" fill="none"></path></g><g><path stroke="rgb(255, 112, 67)" stroke-width="2px" d="M25.454545454545457,29.002037197351456L50.909090909090914,26.66787777096033L76.36363636363636,24.732658549839147L101.81818181818183,23.31572460120219L127.27272727272727,21.732470140553975L152.72727272727272,20.534626109031393L178.1818181818182,19.75667140259625L203.63636363636365,19.315942096127614" style="fill: none;" fill="none"></path></g><g><path stroke="rgb(187, 187, 187)" stroke-width="2px" d="M25.454545454545457,38.97774249315262L50.909090909090914,38.46487954258919L76.36363636363636,38.7265443132848L101.81818181818183,39.21908976400606L127.27272727272727,38.93645720358609L152.72727272727272,39.21200132207536L178.1818181818182,39.20002047557175L203.63636363636365,39.69380954749336L229.0909090909091,39.90182749998568L254.54545454545453,39.94273118665492" style="fill: none;" fill="none"></path></g><g><path stroke="rgb(0, 153, 136)" stroke-width="2px" d="M25.454545454545457,42.74446964263916L50.909090909090914,38.987919967621565L76.36363636363636,36.64704129403951L101.81818181818183,35.05113993990511L127.27272727272727,33.41456883270906L152.72727272727272,31.881467541069554L178.1818181818182,30.180228135710887L203.63636363636365,28.502010170861116L229.0909090909091,27.00635075604806L254.54545454545453,26.165628228333716" style="fill: none;" fill="none"></path></g><g><path stroke="rgb(0, 153, 136)" stroke-width="2px" d="M25.454545454545457,33.849086612463L50.909090909090914,33.849086612463L76.36363636363636,33.849086612463L101.81818181818183,33.84908661246304L127.27272727272727,33.93806352963229L152.72727272727272,33.90073097510032L178.1818181818182,33.963899619910926L203.63636363636365,34.00064975008837L229.0909090909091,34.022300759418464" style="fill: none;" fill="none"></path></g><g><path stroke="rgb(238, 51, 119)" stroke-width="2px" d="M25.454545454545457,36.996580213308334L50.909090909090914,35.37359118461609L76.36363636363636,34.86187474155912L101.81818181818183,34.582482551717646L127.27272727272727,34.2754627366103L152.72727272727272,34.021580193079735L178.1818181818182,33.8170171834719L203.63636363636365,33.61492259847246L229.0909090909091,33.51943461048396" style="fill: none;" fill="none"></path></g><g><path stroke="rgb(51, 187, 238)" stroke-width="2px" d="M25.454545454545457,149.34632420539856L50.909090909090914,147.8077188692987L76.36363636363636,147.02271951096398L101.81818181818183,146.95922509767118L127.27272727272727,145.59218522370648L152.72727272727272,144.5851016106038L178.1818181818182,144.43389549266266L203.63636363636365,144.59630672682644" style="fill: none;" fill="none"></path></g><g><path stroke="rgb(204, 51, 17)" stroke-width="2px" d="M25.454545454545457,164.93817552924156L50.909090909090914,153.15792191773647L76.36363636363636,144.951858359332L101.81818181818183,139.10571667804L127.27272727272727,133.84593928546897L152.72727272727272,127.92862815172218L178.1818181818182,123.38333131969111L203.63636363636365,120.15734429840325" style="fill: none;" fill="none"></path></g></g></g></g><g opacity="0.2"><g><g><g><path stroke="rgb(187, 187, 187)" stroke-width="2px" d="M25.454545454545457,25.64325302839279L50.909090909090914,27.079269289970398L76.36363636363636,24.61752712726593L101.81818181818183,25.43810784816742L127.27272727272727,26.25868856906891L152.72727272727272,25.64325302839279L178.1818181818182,27.28441447019577L203.63636363636365,26.053543388843536" style="fill: none;" fill="none"></path></g><g><path stroke="rgb(0, 153, 136)" stroke-width="2px" d="M25.454545454545457,27.922479808330536L50.909090909090914,24.65466320514679L76.36363636363636,23.079096525907516L101.81818181818183,21.328452229499817L127.27272727272727,19.782082736492157L152.72727272727272,17.38954871892929L178.1818181818182,17.156129479408264L203.63636363636365,16.426700949668884" style="fill: none;" fill="none"></path></g><g><path stroke="rgb(238, 51, 119)" stroke-width="2px" d="M25.454545454545457,37.746871411800385L50.909090909090914,36.926290690898895L76.36363636363636,37.54172623157501L101.81818181818183,37.13143587112427L127.27272727272727,35.900564789772034L152.72727272727272,36.31085515022278L178.1818181818182,36.105709969997406L203.63636363636365,36.105709969997406L229.0909090909091,35.900564789772034" style="fill: none;" fill="none"></path></g><g><path stroke="rgb(51, 187, 238)" stroke-width="2px" d="M25.454545454545457,42.569392025470734L50.909090909090914,36.82150259613991L76.36363636363636,33.932985663414L101.81818181818183,31.948922127485275L127.27272727272727,30.402552634477615L152.72727272727272,28.593566715717316L178.1818181818182,25.938442647457123L203.63636363636365,25.38409173488617L229.0909090909091,25.150672495365143" style="fill: none;" fill="none"></path></g><g><path stroke="rgb(51, 187, 238)" stroke-width="2px" d="M25.454545454545457,33.43879625201225L50.909090909090914,33.43879625201225L76.36363636363636,33.43879625201225L101.81818181818183,33.643941432237625L127.27272727272727,33.849086612463L152.72727272727272,34.05423179268837L178.1818181818182,34.66966733336449L203.63636363636365,34.25937697291374L229.0909090909091,34.25937697291374" style="fill: none;" fill="none"></path></g><g><path stroke="rgb(204, 51, 17)" stroke-width="2px" d="M25.454545454545457,36.44220292568207L50.909090909090914,34.458165764808655L76.36363636363636,34.37062695622444L101.81818181818183,33.9621564745903L127.27272727272727,33.932985663414L152.72727272727272,33.17435994744301L178.1818181818182,32.970137894153595L203.63636363636365,32.91176989674568L229.0909090909091,32.94094070792198" style="fill: none;" fill="none"></path></g><g><path stroke="rgb(0, 119, 187)" stroke-width="2px" d="M25.454545454545457,143.39708760380745L50.909090909090914,140.11473834514618L76.36363636363636,139.49930280447006L101.81818181818183,139.70444798469543L127.27272727272727,140.93531906604767L152.72727272727272,139.49930280447006L178.1818181818182,138.4735769033432L203.63636363636365,139.08901244401932" style="fill: none;" fill="none"></path></g><g><path stroke="rgb(255, 112, 67)" stroke-width="2px" d="M25.454545454545457,165.81348448991776L50.909090909090914,145.44788002967834L76.36363636363636,137.54087582230568L101.81818181818183,132.0847736299038L127.27272727272727,127.44561240077019L152.72727272727272,119.04259890317917L178.1818181818182,118.66329923272133L203.63636363636365,116.62089407444" style="fill: none;" fill="none"></path></g><g><path stroke="rgb(255, 112, 67)" stroke-width="2px" d="M25.454545454545457,26.668978929519653L50.909090909090914,25.232962667942047L76.36363636363636,26.46383374929428L101.81818181818183,27.079269289970398L127.27272727272727,26.874124109745026L152.72727272727272,26.668978929519653L178.1818181818182,27.489559650421143L203.63636363636365,27.694704830646515" style="fill: none;" fill="none"></path></g><g><path stroke="rgb(187, 187, 187)" stroke-width="2px" d="M25.454545454545457,29.760636538267136L50.909090909090914,25.354894548654556L76.36363636363636,24.216995537281036L101.81818181818183,21.912000328302383L127.27272727272727,21.240939795970917L152.72727272727272,19.752911925315857L178.1818181818182,19.840424358844757L203.63636363636365,19.60700511932373" style="fill: none;" fill="none"></path></g><g><path stroke="rgb(0, 153, 136)" stroke-width="2px" d="M25.454545454545457,40.82404911518097L50.909090909090914,38.772597312927246L76.36363636363636,37.54172623157501L101.81818181818183,37.746871411800385L127.27272727272727,38.567452132701874L152.72727272727272,38.567452132701874L178.1818181818182,38.97774249315262L203.63636363636365,39.18288767337799L229.0909090909091,38.772597312927246" style="fill: none;" fill="none"></path></g><g><path stroke="rgb(238, 51, 119)" stroke-width="2px" d="M25.454545454545457,44.49508756399155L50.909090909090914,37.25917026400566L76.36363636363636,34.92500424385071L101.81818181818183,32.970137894153595L127.27272727272727,31.832212507724762L152.72727272727272,29.78983372449875L178.1818181818182,27.893308997154236L203.63636363636365,27.22224846482277L229.0909090909091,26.93046122789383" style="fill: none;" fill="none"></path></g><g><path stroke="rgb(238, 51, 119)" stroke-width="2px" d="M25.454545454545457,33.43879625201225L50.909090909090914,33.643941432237625L76.36363636363636,33.43879625201225L101.81818181818183,34.25937697291374L127.27272727272727,33.643941432237625L152.72727272727272,33.643941432237625L178.1818181818182,33.643941432237625" style="fill: none;" fill="none"></path></g><g><path stroke="rgb(51, 187, 238)" stroke-width="2px" d="M25.454545454545457,36.675622165203094L50.909090909090914,34.54570457339287L76.36363636363636,34.39979776740074L101.81818181818183,33.932985663414L127.27272727272727,33.349437564611435L152.72727272727272,33.320266753435135L178.1818181818182,33.17435994744301" style="fill: none;" fill="none"></path></g><g><path stroke="rgb(204, 51, 17)" stroke-width="2px" d="M25.454545454545457,142.78165206313133L50.909090909090914,143.60223278403282L76.36363636363636,145.85882976651192L101.81818181818183,140.93531906604767L127.27272727272727,142.9867972433567L152.72727272727272,142.9867972433567L178.1818181818182,141.3456094264984L203.63636363636365,142.3713617026806L229.0909090909091,142.3713617026806" style="fill: none;" fill="none"></path></g><g><path stroke="rgb(0, 119, 187)" stroke-width="2px" d="M25.454545454545457,163.4793184697628L50.909090909090914,147.66533643007278L76.36363636363636,138.99973288178444L101.81818181818183,134.24386203289032L127.27272727272727,126.6869866847992L152.72727272727272,122.48549312353134L178.1818181818182,115.16203701496124L203.63636363636365,114.40343767404556L229.0909090909091,113.26553866267204" style="fill: none;" fill="none"></path></g><g><path stroke="rgb(0, 119, 187)" stroke-width="2px" d="M25.454545454545457,26.25868856906891L50.909090909090914,25.64325302839279L76.36363636363636,25.232962667942047L101.81818181818183,28.10499519109726L127.27272727272727,26.25868856906891L152.72727272727272,26.46383374929428L178.1818181818182,26.46383374929428L203.63636363636365,26.46383374929428" style="fill: none;" fill="none"></path></g><g><path stroke="rgb(255, 112, 67)" stroke-width="2px" d="M25.454545454545457,29.002037197351456L50.909090909090914,25.267382115125656L76.36363636363636,22.87484809756279L101.81818181818183,21.649410277605057L127.27272727272727,19.665373116731644L152.72727272727272,18.87757658958435L178.1818181818182,18.644183725118637L203.63636363636365,18.673354536294937" style="fill: none;" fill="none"></path></g><g><path stroke="rgb(187, 187, 187)" stroke-width="2px" d="M25.454545454545457,38.97774249315262L50.909090909090914,38.15716177225113L76.36363636363636,38.97774249315262L101.81818181818183,39.79832321405411L127.27272727272727,38.567452132701874L152.72727272727272,39.593178033828735L178.1818181818182,39.18288767337799L203.63636363636365,40.413758754730225L229.0909090909091,40.20861357450485L254.54545454545453,40.00346839427948" style="fill: none;" fill="none"></path></g><g><path stroke="rgb(0, 153, 136)" stroke-width="2px" d="M25.454545454545457,42.74446964263916L50.909090909090914,36.73399016261101L76.36363636363636,34.39979776740074L101.81818181818183,33.17435994744301L127.27272727272727,31.27786159515381L152.72727272727272,29.760636538267136L178.1818181818182,27.747428566217422L203.63636363636365,26.055152267217636L229.0909090909091,24.800543636083603L254.54545454545453,24.917253255844116" style="fill: none;" fill="none"></path></g><g><path stroke="rgb(0, 153, 136)" stroke-width="2px" d="M25.454545454545457,33.849086612463L50.909090909090914,33.849086612463L76.36363636363636,33.849086612463L101.81818181818183,33.849086612463L127.27272727272727,34.05423179268837L152.72727272727272,33.849086612463L178.1818181818182,34.05423179268837L203.63636363636365,34.05423179268837L229.0909090909091,34.05423179268837" style="fill: none;" fill="none"></path></g><g><path stroke="rgb(238, 51, 119)" stroke-width="2px" d="M25.454545454545457,36.996580213308334L50.909090909090914,34.39979776740074L76.36363636363636,34.37062695622444L101.81818181818183,34.25391733646393L127.27272727272727,33.87461766600609L152.72727272727272,33.67036923766136L178.1818181818182,33.52448880672455L203.63636363636365,33.320266753435135L229.0909090909091,33.378608375787735" style="fill: none;" fill="none"></path></g><g><path stroke="rgb(51, 187, 238)" stroke-width="2px" d="M25.454545454545457,149.34632420539856L50.909090909090914,146.88455566763878L76.36363636363636,146.26912012696266L101.81818181818183,146.88455566763878L127.27272727272727,143.8073779642582L152.72727272727272,143.19194242358208L178.1818181818182,144.21766832470894L203.63636363636365,144.83310386538506" style="fill: none;" fill="none"></path></g><g><path stroke="rgb(204, 51, 17)" stroke-width="2px" d="M25.454545454545457,164.93817552924156L50.909090909090914,146.0897697508335L76.36363636363636,137.07403734326363L101.81818181818183,132.2306540608406L127.27272727272727,126.97877392172813L152.72727272727272,119.74285662174225L178.1818181818182,116.88348412513733L203.63636363636365,115.45382425189018" style="fill: none;" fill="none"></path></g></g></g></g></g></g><g transform="translate(50, 177)" clip-path="url(#clip_1)"><clipPath id="clip_1"><rect width="280" height="23"></rect></clipPath><g><g><line x1="0" y1="0" x2="0" y2="5" style="visibility: inherit;" fill="rgb(0, 0, 0)" stroke="rgb(204, 204, 204)" stroke-width="1px"></line><line x1="25.454545454545457" y1="0" x2="25.454545454545457" y2="5" style="visibility: inherit;" fill="rgb(0, 0, 0)" stroke="rgb(204, 204, 204)" stroke-width="1px"></line><line x1="50.909090909090914" y1="0" x2="50.909090909090914" y2="5" style="visibility: inherit;" fill="rgb(0, 0, 0)" stroke="rgb(204, 204, 204)" stroke-width="1px"></line><line x1="76.36363636363636" y1="0" x2="76.36363636363636" y2="5" style="visibility: inherit;" fill="rgb(0, 0, 0)" stroke="rgb(204, 204, 204)" stroke-width="1px"></line><line x1="101.81818181818183" y1="0" x2="101.81818181818183" y2="5" style="visibility: inherit;" fill="rgb(0, 0, 0)" stroke="rgb(204, 204, 204)" stroke-width="1px"></line><line x1="127.27272727272727" y1="0" x2="127.27272727272727" y2="5" style="visibility: inherit;" fill="rgb(0, 0, 0)" stroke="rgb(204, 204, 204)" stroke-width="1px"></line><line x1="152.72727272727272" y1="0" x2="152.72727272727272" y2="5" style="visibility: inherit;" fill="rgb(0, 0, 0)" stroke="rgb(204, 204, 204)" stroke-width="1px"></line><line x1="178.1818181818182" y1="0" x2="178.1818181818182" y2="5" style="visibility: inherit;" fill="rgb(0, 0, 0)" stroke="rgb(204, 204, 204)" stroke-width="1px"></line><line x1="203.63636363636365" y1="0" x2="203.63636363636365" y2="5" style="visibility: inherit;" fill="rgb(0, 0, 0)" stroke="rgb(204, 204, 204)" stroke-width="1px"></line><line x1="229.0909090909091" y1="0" x2="229.0909090909091" y2="5" style="visibility: inherit;" fill="rgb(0, 0, 0)" stroke="rgb(204, 204, 204)" stroke-width="1px"></line><line x1="254.54545454545453" y1="0" x2="254.54545454545453" y2="5" style="visibility: inherit;" fill="rgb(0, 0, 0)" stroke="rgb(204, 204, 204)" stroke-width="1px"></line><line x1="280" y1="0" x2="280" y2="5" style="visibility: inherit;" fill="rgb(0, 0, 0)" stroke="rgb(204, 204, 204)" stroke-width="1px"></line></g><g transform="translate(0, 8)"><text x="0" y="0" dx="0em" dy="0.95em" style="text-anchor: middle; visibility: hidden; font-family: Roboto, sans-serif; font-size: 12px; font-weight: 200;" fill="rgb(33, 33, 33)" stroke="none" stroke-width="1px">-1</text><text x="25.454545454545457" y="0" dx="0em" dy="0.95em" style="text-anchor: middle; visibility: inherit; font-family: Roboto, sans-serif; font-size: 12px; font-weight: 200;" fill="rgb(33, 33, 33)" stroke="none" stroke-width="1px">0</text><text x="50.909090909090914" y="0" dx="0em" dy="0.95em" style="text-anchor: middle; visibility: inherit; font-family: Roboto, sans-serif; font-size: 12px; font-weight: 200;" fill="rgb(33, 33, 33)" stroke="none" stroke-width="1px">1</text><text x="76.36363636363636" y="0" dx="0em" dy="0.95em" style="text-anchor: middle; visibility: inherit; font-family: Roboto, sans-serif; font-size: 12px; font-weight: 200;" fill="rgb(33, 33, 33)" stroke="none" stroke-width="1px">2</text><text x="101.81818181818183" y="0" dx="0em" dy="0.95em" style="text-anchor: middle; visibility: inherit; font-family: Roboto, sans-serif; font-size: 12px; font-weight: 200;" fill="rgb(33, 33, 33)" stroke="none" stroke-width="1px">3</text><text x="127.27272727272727" y="0" dx="0em" dy="0.95em" style="text-anchor: middle; visibility: inherit; font-family: Roboto, sans-serif; font-size: 12px; font-weight: 200;" fill="rgb(33, 33, 33)" stroke="none" stroke-width="1px">4</text><text x="152.72727272727272" y="0" dx="0em" dy="0.95em" style="text-anchor: middle; visibility: inherit; font-family: Roboto, sans-serif; font-size: 12px; font-weight: 200;" fill="rgb(33, 33, 33)" stroke="none" stroke-width="1px">5</text><text x="178.1818181818182" y="0" dx="0em" dy="0.95em" style="text-anchor: middle; visibility: inherit; font-family: Roboto, sans-serif; font-size: 12px; font-weight: 200;" fill="rgb(33, 33, 33)" stroke="none" stroke-width="1px">6</text><text x="203.63636363636365" y="0" dx="0em" dy="0.95em" style="text-anchor: middle; visibility: inherit; font-family: Roboto, sans-serif; font-size: 12px; font-weight: 200;" fill="rgb(33, 33, 33)" stroke="none" stroke-width="1px">7</text><text x="229.0909090909091" y="0" dx="0em" dy="0.95em" style="text-anchor: middle; visibility: inherit; font-family: Roboto, sans-serif; font-size: 12px; font-weight: 200;" fill="rgb(33, 33, 33)" stroke="none" stroke-width="1px">8</text><text x="254.54545454545453" y="0" dx="0em" dy="0.95em" style="text-anchor: middle; visibility: inherit; font-family: Roboto, sans-serif; font-size: 12px; font-weight: 200;" fill="rgb(33, 33, 33)" stroke="none" stroke-width="1px">9</text><text x="280" y="0" dx="0em" dy="0.95em" style="text-anchor: middle; visibility: hidden; font-family: Roboto, sans-serif; font-size: 12px; font-weight: 200;" fill="rgb(33, 33, 33)" stroke="none" stroke-width="1px">10</text></g><line x1="0" y1="0" x2="280" y2="0" fill="rgb(0, 0, 0)" stroke="rgb(204, 204, 204)" stroke-width="1px"></line></g></g></g></g></svg>